<svg id="Layer_1" data-name="Layer 1" xmlns="http://www.w3.org/2000/svg" viewBox="0 0 231.78 204.27"><defs><style>.cls-1{fill:#8d8d8d;}</style></defs><title>grey-relish</title><path class="cls-1" d="M217.1,147.51v.25H217c-.95.73-3.18.1-4.2-.25-.1,0-.3.05-.38,0s0-.14-.09-.17a28.83,28.83,0,0,1-5.52-2.13c-.51-.36-.89-1-1.4-1.1a26.73,26.73,0,0,1-7.94-1.62,10.45,10.45,0,0,1-1.12-.42c-.35-.18-.6-.52-1-.51a5.3,5.3,0,0,0-.66-.68c-.15-.15-.15-.3-.28-.43a3.9,3.9,0,0,0-.65-.34,10,10,0,0,1-1.59-.76c.05-.33-.13-.45-.37-.51a19.71,19.71,0,0,1-1-2.89c-2.4-1.28-5.06-2.3-6.36-4.59a11.1,11.1,0,0,1-.37-1.11,17.88,17.88,0,0,1-1.22-3.14,31.6,31.6,0,0,1-4-1.61,16.69,16.69,0,0,1-2-.85,9.08,9.08,0,0,1-1.59-1.11c-.15-.14-.06-.27-.18-.42s-.3-.16-.38-.26a3.45,3.45,0,0,0-.56-.59,2.18,2.18,0,0,0-1-.6c-.74-.1-1.65-.89-2.43-1.1-.53-.75-1.54-1.16-1.86-2.13-.18-.53,0-1.16-.47-1.61-.45.06-.61-.14-1-.09.27,4.6.83,8.93,1.21,13.43a7.28,7.28,0,0,1,.38,1.44,6.42,6.42,0,0,1,.28,1.45c0,.57-.29,1.1-.28,1.7a19.43,19.43,0,0,0,.37,2.63c.3,1.65.46,3.41.66,5.27.09.89.06,1.86.18,2.72,0,.23.17.45.19.68,0,.41,0,.87,0,1.28,0,.24.15.42.19.68s0,.72,0,1.1.16.63.18.93c.24,2.6.32,5.34.57,8,.08.87.28,1.73.37,2.55.1,1,0,1.93.09,2.81,0,.24.17.51.19.76,0,.55-.07,1.09,0,1.62,0,.26.16.51.19.76.06.61-.07,1.2,0,1.79a8.14,8.14,0,0,1,.18,1.1,8.6,8.6,0,0,1-.37,1.87c.11.17.51-.18.37.34.1.43-.21.49-.37.68.47.58.1,1.34,0,1.87,0,.21,0,.5,0,.68s-.15.08-.19.17c-.16.4-.1,1-.28,1.44a5.78,5.78,0,0,1-.56,1.11c-.33.43-.86,1.18-1.21,1.7a1.41,1.41,0,0,0-.94.68,6.19,6.19,0,0,0-1.31.59c-.27.15-.35.3-.65.34a2.21,2.21,0,0,0-.65.26,8.49,8.49,0,0,0-.94.34c-.34.19-.53.48-.84.68a12.78,12.78,0,0,0-2.43.76,14.22,14.22,0,0,0-2.24.85c-4,.66-7.83,1.68-11.78,2.38-.55.1-1.14.06-1.68.17-.08,0-.12.14-.28.17-3.21.53-6.69,1.19-10.1,1.79-2,.34-4,.61-6,1.1s-4,.64-6.07,1c-1,.18-2,.45-3,.6-2,.3-4.21.4-6.36.68-.76.09-1.45.11-2.43.25-.24,0-.41.15-.65.17a17.8,17.8,0,0,1-2.53,0c-.55,0-1.21-.37-1.59.09h-.37c.06-.52-.22.11-.65-.09s-.92-.45-1.41-.59c-.14-.05-.33,0-.46,0s-.07-.15-.19-.17-.34,0-.47,0a7.28,7.28,0,0,0-1-.34,11.83,11.83,0,0,1-1.3-.34c-.33-.11-.76-.18-.94-.26s-.13-.22-.19-.25a6.43,6.43,0,0,1-.93-.43,11,11,0,0,1-.75-.85c-.11-.11-.36-.22-.47-.34s0-.21,0-.25a4.83,4.83,0,0,1-.84-.85c-.13-.19-.23-.5-.37-.68a11.05,11.05,0,0,1-1.4-1.79,9.78,9.78,0,0,1-.75-.68c-.34-2-1.56-3.17-2.24-4.84-1.52-2.31-2.54-5.06-3.93-7.48,0-1.64-1.11-2.9-1.59-4.42-.27.38.15.77.28,1.11s.15.81.47,1c-.19.2-.28,0-.37-.26a2.57,2.57,0,0,1-.19-.34c-.06-.13-.08-.1-.19-.34a5.54,5.54,0,0,1-.65-1.87.74.74,0,0,1,.37.68,4.47,4.47,0,0,0-.56-1.78c-.22-.44-.52-.83-.75-1.28-.44-.87-.81-1.79-1.3-2.72-.24-.43-.43-.93-.66-1.36-.08-.14-.29-.25-.37-.42-.29-.61-.26-1.33-.84-1.7v-.43a43.73,43.73,0,0,1-2.43-5.27c-.27,0,0-.46-.38-.42v-.43A15.73,15.73,0,0,1,78,149.12c-.44-1.12-1.14-2.32-1.68-3.48a4.28,4.28,0,0,0-.19-.43c-.15-.28-.37-.72-.56-1.1-.53-1.09-.94-2.13-1.49-3.23a5.67,5.67,0,0,1-.75-1.62,3.67,3.67,0,0,1-1.12-2.12,11.45,11.45,0,0,0-1.4-2.47c.14-.46-.26-.45-.19-.85-.81,1.88-2.69,2.77-4.67,3.57a6.22,6.22,0,0,1-.94,2.89,11.63,11.63,0,0,0-.84,1.45,11.55,11.55,0,0,0-1.31,1.1,12.33,12.33,0,0,1-1.31,1,33.88,33.88,0,0,1-3.27,2c-.16.09-.24.28-.46.17-.51,3.48-3.31,4.87-5.24,7.05a4.75,4.75,0,0,1-1.77,1.79c-.1.22-.41.25-.47.51-.37-.09-.29.25-.66.17a1.26,1.26,0,0,1-.18.51c-.32.52-.74,1.61-1,2.21-.09.18-.06.55-.37.59-1,2.9-3.93,4-6,6a3.53,3.53,0,0,1-.93,1.28,12.82,12.82,0,0,1-1.4,3.31,4,4,0,0,1-1.68,1.7c-1.52,1.23-2.44,3-4.58,3.65-.88.74-2.27,1-3.09,1.79H29.33a3,3,0,0,1,.93-2.3,8.19,8.19,0,0,0,.85-2c0-.12-.06-.3,0-.42s.15-.06.18-.17-.05-.34,0-.51.17-.14.19-.25,0-.52,0-.77.17-.13.19-.25c0-.35-.05-.68,0-1,0-.18.17-.13.18-.26.07-.59-.06-1.17,0-1.78,0-.19.15-.12.19-.26.41-1.54-.31-3.39,0-5.18.11-.28-.3-.07-.19-.34v-4.51c0-.18-.18-.12-.18-.25-.1-1,.21-2.4-.19-3.15a18,18,0,0,0-.75-4.5c-1.55.34-1.73,1.94-3.64,1.95,0-.14-.08-.15-.19-.17,0-1.39.84-2.16,1.4-3.14.18-.31.2-.71.56-.93,1.17-3.36,1.35-7.61,1.22-12.16.11-.27-.31-.06-.19-.34-.24-4.73-1.51-8.53-2.15-12.91-1.37.19-1.84,1.21-3,1.61-1.39-1.1-.18-2.2.37-3.48.11-.25.09-.53.19-.77,0,0,.16,0,.19-.08s0-.13,0-.17a16.37,16.37,0,0,0,.84-2.89c.13-.66.05-1.3.19-2.13,0-.17.17-.12.18-.25.07-.58-.06-1.2,0-1.79,0-.16.15-.17.19-.34a13.72,13.72,0,0,0,0-3.14v-3.14c.05-.19-.18-.13-.19-.26.28-2.41-.43-4.8-.18-7.14,0-.19.14-.11.18-.25a11.79,11.79,0,0,0,0-2.38c0-.85.07-1.71,0-2.38,0-.19-.15-.34-.18-.51a7.15,7.15,0,0,1,0-2c0-.16.15-.2.18-.34.07-.32,0-.69,0-1,0-.18.16-.11.19-.25s0-.44,0-.68.14-.12.19-.26-.05-.43,0-.59.14-.12.18-.26c.23-.73.25-1.55.47-2.29a25.68,25.68,0,0,1,.94-2.72c0-.07,0-.18,0-.25s.18-.07.18-.09c.14-.43.24-1,.38-1.44a15,15,0,0,0,.84-2.13c.31-.14.33-.51.47-.76s.41-.51.37-.85a1.92,1.92,0,0,0,.75-1.11c.33,0,.3-.32.46-.51s.42-.25.56-.42.07-.38.19-.51.45-.32.66-.51a10.08,10.08,0,0,1,1-.77c.32-.23.63-.61,1-.85s.75-.27,1.12-.51a8.19,8.19,0,0,1,3.09-1c.2.05.13-.16.28-.17H41c.3.11.07-.27.38-.17a16.51,16.51,0,0,1,2.61.17c.2,0,.14.14.28.17.36.09.76,0,1.13.09a14.13,14.13,0,0,1,1.58.51c.08,0,0,.15.1.17s.27,0,.37,0a3.28,3.28,0,0,0,.38.17,3.28,3.28,0,0,1,.84.51c1.1,0,1.44.78,2.43.93,1.36,1.32,3.38,1.82,5,2.89a4.39,4.39,0,0,0,1.69.94c.9,1,2.43,1.46,3.36,2.46a9.89,9.89,0,0,1,2.62,1.45,11.47,11.47,0,0,1,2.61,1.19A10.08,10.08,0,0,1,68.86,82c.46.11.57,0,1.13.17.27.06.71.13,1.21.25.87.2,1.41.84,2.34,1-.12.27.3.06.18.34.79.17,1.31.43,2.34.59.2,0,.31.16.47.17,2.17.22,4.67-.25,6.91-.17a10.31,10.31,0,0,1,.94-.93,3.13,3.13,0,0,1,1.12-1.27v-.34c.86-.61,1.13-1.75,2-2.38a27,27,0,0,1,1.31-2.64,1.83,1.83,0,0,1,.47-.76c.09-1.15.71-2.24.84-3.4.28-2.6-.65-5-.56-7.57-.74-.76-1.72-1.33-1.87-2.63a6.85,6.85,0,0,1-3,0c-.24-.89-.87-1.42-.75-2.63a10.75,10.75,0,0,1,4-2c1.58-.76,3.54-1,5.23-1.62.25-.09.46,0,.85-.17.09,0,.07-.14.18-.17s.33,0,.47,0,.07-.14.19-.17.33,0,.46,0,.07-.14.19-.17.33.05.47,0,.07-.14.19-.17c.77-.19,1.62-.25,2.43-.42.34-.08.68-.29,1-.34.18,0,.39,0,.56,0,.34-.08.69-.29,1-.34.18,0,.38,0,.56,0a6.34,6.34,0,0,0,1.12-.34c1.41,0,2.36-.47,3.84-.43.2,0,.13-.16.28-.17.49,0,1.06.06,1.31-.17h1.21c.21,0,.13-.16.28-.17a51.4,51.4,0,0,1,6.17.17c.49,1.16,1.72,2.51.84,3.91A9.82,9.82,0,0,0,115,58.11a12.3,12.3,0,0,0,2.89,8.32,16.44,16.44,0,0,0,1.4,1.53c.36.32.72.61,1.13.94s.79.55,1.21.85a20.54,20.54,0,0,0,1.87,1.36l.37.17a9.46,9.46,0,0,0,1.13.59c.07,0,.19,0,.28,0a2.33,2.33,0,0,0,.37.17,10.68,10.68,0,0,0,2.62.77c.66,0,1.36-.57,2.15-.6,1.09-.7,2.36-1,3.45-1.7a23.65,23.65,0,0,0,2.71-2.21c.6-.52,1.22-1,1.78-1.53a1.49,1.49,0,0,0,.56-.85c.53-.16.63-.73,1.12-.93a9,9,0,0,1,.84-1.36c.16-.22.24-.21.38-.51,0-.1.14,0,.18-.09.42-.59.83-1.33,1.31-2,.17-.22.4-.37.56-.59s.43-.56.66-.85.36-.37.56-.6.47-.78.75-1.1c.13-.16.32-.26.46-.43s.2-.4.47-.42c-.14-.3.24-.4.37-.6s.16-.42.29-.59a16.51,16.51,0,0,1,1.68-2c.3-.33.66-.61.93-.94.12-.15.15-.37.28-.51.4-.43,1.14-.62,1.22-1.27a47,47,0,0,0,3.83-3.49c.58,0,.86-.56,1.21-.85s.89-.5,1.13-.93h.28a19.56,19.56,0,0,1,4.39-2.72,5.56,5.56,0,0,1,1.49-.85c.37-.08.41.14.57.25a41.59,41.59,0,0,1,14.86-1.36c.37,0,.85.1,1.21.17s.29.1.75.17c.3,0,.31.08.75.17.18,0,.14.15.28.17a7.45,7.45,0,0,1,2.43.77c.28.17.83.38,1.21.59a4,4,0,0,1,1.68,1.45c.76.52,1.13,1.42,2,1.87a17.79,17.79,0,0,1,3.27,6.12c.19.07.13.21.18.34s0,.42.19.76c0,.09.16.07.19.17.1.34.18.74.28,1.11a19.73,19.73,0,0,1,.75,4.42c-.12.27.3.06.18.34-.14,1,.3,1.48.19,2.46,0,.19.18.12.19.25a36.33,36.33,0,0,0,1.77,8.42,21.26,21.26,0,0,0,.84,2.12c.16.31.44.65.66,1,0,0,0,.18.09.26a1.18,1.18,0,0,1,.19.34,4.57,4.57,0,0,1,.65,1.78c.13.06.12.13.19.26s0,.22,0,.25.18,0,.19,0c.11.28.07.62.18.94,0,.08.15.07.19.17.15.36.28.83.47,1.27a6.15,6.15,0,0,0,.56,1.45c.4.51,1.3.43,1.31,1.19-1.07.61-2.92.51-4.68.51,0,.32-.13,1.4.19,1.69-.13.84.29,1.16.19,2-.06.19.18.12.19.25v.68c-.06.19.17.12.18.26a24.77,24.77,0,0,0,.75,3.74c.09.5-.05,1.17.28,1.44.21,1.85,1,3.14,1.4,4.85.44.48.43,1.36.94,1.78a8.65,8.65,0,0,0,1,2.47s0,.22,0,.25a4.67,4.67,0,0,1,.75,1.19c.2.4.28.89.47,1.28.27.55.69,1,.93,1.61a20.06,20.06,0,0,0,1,2.29c0,.05,0,.22,0,.26s.17,0,.19,0,0,.22,0,.25.17,0,.19,0c.11.2.06.49.18.68s.24.11.28.17c.47.71,1,1.55,1.5,2.3a4.5,4.5,0,0,1,0,1.1c-.39,0-.4.43-.94.34-.12.85.31,1.2.19,2,.39.22,0,1.17.38,1.36a15.19,15.19,0,0,0,.56,3.4,14.65,14.65,0,0,0,.46,2.72c.15,1,.32,2.08.56,3.06,0,.17.15.12.19.26.13.38.08.85.19,1.27s.29.68.37,1a21.64,21.64,0,0,0,.47,2.12c.25.75.63,1.77.93,2.55a9.54,9.54,0,0,0,.66,1.7c.09.16.22.54.37.94.09.23.3.45.38.68.22.67.26,1.37.46,2a28.21,28.21,0,0,0,1.59,3.57c.27.58.55,1.13.84,1.7a21.88,21.88,0,0,1,1,2.21,7.68,7.68,0,0,0,.66,1.53m-7.76-4.08c1.33-.06,1.77.7,3.27.51a31.66,31.66,0,0,0-1.78-3.91,35.79,35.79,0,0,0-1.77-4.34c-.64-2.53-1.79-4.61-2.25-7.31-.42-.55-.33-1.33-.56-1.95-.05-.13-.14-.08-.18-.25a25.87,25.87,0,0,1-.84-4.34c-.38-.54-.22-1.56-.56-2.12-.17-2.09-.65-3.89-.75-6a17.3,17.3,0,0,0-3.65-.85,3.11,3.11,0,0,0-1.21-.59c.08.32-.14.22-.28.25s0,.12-.1.17a3,3,0,0,1-1.4.51c-2.8.34-6.6-.75-7.94-2v-.6c-.52-.46-.75-1.19-1.5-1.44-2.18,1-4.23-.54-6-1-1.37-1.36-2.34-3.09-3.64-4.5-.4.32-1.14.32-1.69.51-.2-.33-.55-.09-.84-.17,0,0,0-.16,0-.17s-.23,0-.28,0c-.29-.1-.25-.14-.37-.26s-.23,0-.28,0c-.26-.14-.45-.49-.84-.51,0-.37-.51-.27-.47-.68-.46.07-.7-.52-1.12-.59s-.59.13-.94.17a6.23,6.23,0,0,1-2.9-.51c-.36-.2-.86-.38-1.12-.51a5.77,5.77,0,0,1-1-.68,5.44,5.44,0,0,0-.85-.6c.51,5.27,1.11,10.44,1.59,15.72.38.14.56.46,1,.51-.12-2.8-1.21-5.81-.47-8.58.94.42,1.18,1.48,1.22,2.72,0,.13.24.07.19.25.24,2.19.7,4.18,1,6.29.7,1.46,1.32,3,3.18,3.4-.49-3.4-1.88-6.45-1.49-10.37a1.93,1.93,0,0,0,1,.17c.72,1.11.53,3,1,4.34a37.88,37.88,0,0,0,1,6c.35.08.43.4.56.68a12.85,12.85,0,0,1,1.5,1.45,9.42,9.42,0,0,0,.93.59c.3.2.55.52.84.68.49.26,1.09.27,1.5.68a8.47,8.47,0,0,1,1.49.17A23.6,23.6,0,0,1,181,120c0-.13-.24-.07-.19-.25.08-1.9-1-3.58-.37-5.44.23.53-.11,1.56.37,1.87.1-1.12-.43-2.42.47-2.89,1.09.55.46,2,.65,3.48.16,1.15.24,2.54.38,3.66.24,1.91,1.66,3.31,1.59,5.18a5.19,5.19,0,0,1,.65,1.36c1.73,1.46,2.79,3.52,4.86,4.67-.08-4.23-1-8.87-1.21-13,.28-.19.69.06.84.26a5.8,5.8,0,0,1,.28,2.38,6.07,6.07,0,0,1,.74,2.12c.27,1.36.52,2.87.66,4.33,0,.14.24.07.19.26,0,.85.36,1.31.37,2.12a2.48,2.48,0,0,1,.37,1.28,5.83,5.83,0,0,1,.66,1.87c.28.17.33.49.47.76s.48.82.65,1.19a5.48,5.48,0,0,1,.47,1.36,14.54,14.54,0,0,1,1.21,1.7c.63.76,1.7,1.22,2.34,1.87a10.79,10.79,0,0,1,2,.85,3.76,3.76,0,0,1,1.22.6c1.2,0,1.82.6,3.08.59a5.53,5.53,0,0,0-.84-1.78c-.74-2.47-1.9-4.57-2.43-7.23a7.75,7.75,0,0,1-.66-1.7,5.79,5.79,0,0,0-.28-.59c-.29-.89-.36-1.89-.65-2.81,0-.13-.15-.08-.19-.25a19.81,19.81,0,0,1-.37-7.56c.4-.32.54-.87,1.12-1a40.59,40.59,0,0,1,.84,6.71c0,.13.24.07.19.26,0,1.12.52,1.79.56,2.88a15.14,15.14,0,0,1,.84,2.72,1.8,1.8,0,0,1,.37,1.11c.28.19.35.58.47.85a20.84,20.84,0,0,0,1.31,2.72,21.25,21.25,0,0,0,2.15,5.1c.32-.12.3.23.47.34.36.23.76.32,1,.51.08.05.19.2.28.25s.54.22.74.34.36.38.66.43m-7.2-32.21a5.27,5.27,0,0,0,2.15.51c-3.66-4.3-5.82-10-7.94-15.64-.15-.18-.43-.24-.56-.42-.7-4.83-1.71-9.38-2.06-14.53A4.11,4.11,0,0,1,191.49,79,12.27,12.27,0,0,1,181.86,76a7.75,7.75,0,0,1-6.17-1.44c-1.68-.26-4.15.49-4.95-.34,0,0-.23,0-.28,0-.31-.14-.66-.45-.84-.51a1.26,1.26,0,0,1-.47-.26c-.1-.07-.26-.08-.37-.17s-.31-.39-.47-.51-.43-.07-.56-.17-.16-.33-.38-.42c0-.06,0-.11-.09-.09-.62.63-1.94.62-3,.85q-1.06,2.14-4.21,2.38a6.2,6.2,0,0,1-6.16,1.79c.08.47-.28.54-.29.93A21.65,21.65,0,0,0,157,79.44c.38.11.72.14,1,.25A5.11,5.11,0,0,1,159,80c.1.07.08.27.19.34s.28,0,.37.09c.57.39.93.94,1.59,1.36v.34c.81.42.93,1.48,1.59,2,.3,1,1.1,1.85,1.4,3,.06.22,0,.45,0,.68s.15.09.19.25a55.36,55.36,0,0,1,.75,6.12,4.2,4.2,0,0,1,.65.26c.08.93,1,1.4,1.4,2a3.38,3.38,0,0,1,.19.51s.46.38.09.42a2.68,2.68,0,0,1-1.87-2.29c-.35.12,0-.38-.37-.26a15.07,15.07,0,0,1,.19,2.3c1.7,1.23,2.91,2.9,6,2.89-1-2.48-2.37-4.59-2.62-7.74-.3-.09-.15-.6-.19-.93-.31-.39-.27-1.21-.37-1.79-.39-2.22-1.37-4.19-1.4-6.71.31,0,.17-.46.47-.51.16.22,0,.72.46.68.28,0,.57-.39.84-.08.08.26-.32.1-.18.42,1.17,4.11,2.59,8,3.36,12.49a2.36,2.36,0,0,1,.38,1.19,1.86,1.86,0,0,1,.37,1.11c.27.16.34.49.47.76a2.8,2.8,0,0,1,.37.94c.25.06.42.18.38.51.64.45,1.16,1,1.86,1.44a6.38,6.38,0,0,0,2.53.34,37.59,37.59,0,0,1-1.59-8.58c-.33-.13-.14-.73-.19-1.11,0-.13-.24-.06-.18-.25-.11-2.12-.82-3.68-1-5.7-.45-.46-.64-2,.18-2.21.16.51.61.76.94,1.11.49,3.37,1.67,6.13,1.87,9.77,0,.14.24.07.19.26-.08,1,.39,1.51.37,2.46.08.11.13.1.19.26.32,1,.53,1.94.84,3,.32.2.42.69.56.94a11.71,11.71,0,0,0,1.4,2,8.2,8.2,0,0,0,1.4,1.18c.06,0,.13.14.19.17a9,9,0,0,1,1.4.85,1,1,0,0,1,.94.34c.55-.11,1.26.47,1.49.09A47.64,47.64,0,0,1,184.57,98a3.28,3.28,0,0,1-.37-1.61,5.1,5.1,0,0,1-.38-1.19c-.11-.42-.07-.94-.18-1.36a14.71,14.71,0,0,1-.66-3.49c-.08-.11-.14-.09-.19-.25a8.41,8.41,0,0,1-.37-2.13c.32,0,.24-.35.56-.34.43,1.11,1.29,1.84,1.4,3.23.37.15.28.63.38.94,0,0,.16,0,.18.08.16.47.25.77.38,1.19a23,23,0,0,1,.65,2.72,3,3,0,0,1,.38.85,47.14,47.14,0,0,1,1.21,4.59c.2.07.22.31.19.6.31.18.2.77.37,1.1,0,.09.16.09.19.17a7.06,7.06,0,0,0,.19.85,5.7,5.7,0,0,1,.65,1.78,3.3,3.3,0,0,1,.56.77,2.65,2.65,0,0,0,.28.51,4.39,4.39,0,0,1,.75,1.36q.82.69,1.59,1.44c1.87.48,3.29,1.37,5.79,1.28a28.37,28.37,0,0,1-2.15-2.81c-.13-.2-.15-.47-.28-.68s-.3-.15-.37-.25-.09-.37-.19-.51a22,22,0,0,1-1.59-2.55c-.17-.36.06-.23-.18-.42-.05,0,0-.21,0-.26a7.18,7.18,0,0,1-.85-2.55,5.14,5.14,0,0,1-.56-2c-.5-1-.47-2.49-.74-3.74a7.27,7.27,0,0,1-.28-2.38c0-.13-.25-.06-.19-.25V91.42c-.38-.25-.11-1.1-.19-1.62,0-.13-.24-.06-.18-.25.07-1.29-.32-2.6-.29-3.57,1.41,1.13,1.43,3.7,1.78,5.44a21.34,21.34,0,0,0,.47,2.38c0,.1.15.08.18.17a9,9,0,0,0,.94,2.38c.49,2.15,1.63,3.73,2.06,6,.3.25.23.86.56,1.1a15.88,15.88,0,0,0,2.33,4.76,1.1,1.1,0,0,1,.66.76c.29,0,.35.31.56.43a2,2,0,0,0,1,1.1c.07,0,.26,0,.37.09s.08.26.19.34.63.21.93.34m-4.86-30.85c.25,0,.54,0,.84,0a8,8,0,0,1-1.21-2.55,1.65,1.65,0,0,1-.56-1.27c-.36-.15-.28-.55-.38-.85s-.38-.57-.28-.94c-.46-.63-.49-1.65-.93-2.29-.06-.94-.63-1.41-.66-2.38-.27-.07-.11-.32-.18-.51s-.16-.08-.19-.17,0-.3,0-.43-.15-.08-.19-.17-.12-.39-.18-.59a18.19,18.19,0,0,1-.85-3.4,13.07,13.07,0,0,1-.74-3.32c0-.09-.17-.23-.19-.33-.26-1.69-.49-3.48-.65-5.27,0-.14-.25-.07-.19-.26V55c-.37-.54-.33-1.46-.75-2,0-.84-.63-1.13-.65-2-.44-.22-.36-.72-.56-1.1-.3-.54-.95-1-1-1.62-.28-.15-.59-.26-.56-.68-.75-.34-.84-1.28-1.78-1.44A8.64,8.64,0,0,0,179.8,44c0-.18-.44-.3-.56-.34s-.14-.15-.18-.17a10.82,10.82,0,0,0-1.22-.17c-.15,0-.08-.15-.28-.17-.93-.11-3.16,0-4.2,0-.13,0-.09.16-.19.17-.51,0-1,0-1.4,0-.15,0-.08.22-.28.17h-.75a6.18,6.18,0,0,1-1.31.34c-1.21.28-2.48.51-3.74.76-.53.22-1.35.56-1.68.68a3.93,3.93,0,0,0-.37.17,9,9,0,0,1-1.5.6c-.58.81-1.71,1.11-2.24,2h-.38a5.6,5.6,0,0,1-2.15,1.45c.15.41.15.26,0,.68-.37,0-.51.15-.93.08-1.35,1-2.46,2.24-3.83,3.23-.22.71-.83,1.06-1.41,1.45v.34c-1,.64-1.52,1.78-2.61,2.38.12.39-.31.28-.19.68a4.26,4.26,0,0,0-.93,1.19c-1,1.31-2.16,2.42-3.09,3.73-.24.06-.29.31-.56.34a1.21,1.21,0,0,1-.75.85c.09.54-.56.4-.46.94a8.17,8.17,0,0,0-1.69,2.21A14.26,14.26,0,0,0,139.43,70a.94.94,0,0,0-.56.77c-.74.46-.94,1.41-1.78,1.78v.34a11.84,11.84,0,0,0-2,1.53,169,169,0,0,1,17,3.06c.35-.36.81-.62,1-1.1-.57-.59-1.64-1.58-2.34-2.47,0,0,0-.2,0-.25s-.29-.15-.37-.26c-.41-.52-.66-1.28,0-1.7.59.28.7,1,.93,1.62,1,.6,1.77,2.27,3.27,2.55a7.64,7.64,0,0,0,2,0c.28-.05.54-.25.84-.34.46-.15,1.15-.14,1.31-.6a22.86,22.86,0,0,0-2.34-2.38v-.34c-.24,0-.23-.19-.38-.25-.42-.88-1.4-1.88-1.86-3-.09-.21-.07-.6-.19-.85s-.5-.92.09-1.1a5.76,5.76,0,0,1,1.68,3.23c.25.06.42.18.38.51a24.47,24.47,0,0,1,2.8,2.89,2.16,2.16,0,0,0,1.68.76c.39-.18.5-.29.75-.42a13.66,13.66,0,0,0,1.22-.85c.32-.23.71-.25.93-.6-.2-.39-.61-.58-.93-.85-.54-.87-1.2-1.63-1.78-2.46a.52.52,0,0,1-.09-.43.59.59,0,0,1-.38-.34,18.64,18.64,0,0,1-1.4-3c-.22-.59-.64-1.12-.47-1.7a2.21,2.21,0,0,1,.85.93c0,.12.13,0,.18.09a4.39,4.39,0,0,1,.38.85c.09.22.32.48.46.76.45.89.93,1.78,1.41,2.64s1.1,1,1.58,1.7a4.88,4.88,0,0,0,3.37.68c-.28-1.39-1.08-2.3-1.22-3.83-.33-.25-.2-.92-.37-1.36,0-.13-.14-.08-.19-.25a22.9,22.9,0,0,1-.56-2.81,6.84,6.84,0,0,1,.19-3.73h.56a6.43,6.43,0,0,1,.37,1.1c.07.29.13.62.19.93.13.7.24,1.44.38,2.21s.22,1.28.37,2,.25,1.66.47,2.38c0,.1.14.08.18.17s-.07.33,0,.42.16,0,.19.09c.1.39,0,.25.19.42,0,0,0,.21,0,.26.17.27.48.6.56.76a3.36,3.36,0,0,0,.84,1.19,3.15,3.15,0,0,0,.84.51c.15.09.28.3.37.34a7.23,7.23,0,0,0,4,0c-.61-2.93-1.89-5.25-2.24-8.41-.32-.11-.13-.54-.19-.85,0-.12-.14-.1-.18-.26s0-.36,0-.51-.16-.07-.19-.25a20.36,20.36,0,0,0-.37-2.38.9.9,0,0,1,.93-.34c.26,2.5,1.08,4.52,1.4,7a14.84,14.84,0,0,1,.94,2.63c.47.39.41,1,.65,1.45,0,0,.15,0,.19.08s0,.13.18.26,0,.2,0,.25.16,0,.19,0,0,.21,0,.26c.38.54,1,1,1,1.7.51.3.59.78,1,1,.18.1.3,0,.46.08s.06.16.1.17c.41.14,1,0,1.49.17.17,0,.58.32.94.17.07.21.42.18.75.17a39.36,39.36,0,0,1-3-10.45,6.12,6.12,0,0,1-.57-2.72c.29-.17.35-.54.66-.68,0,.18.21.24.28.43.19.49.15,1.19.37,1.78,0,.13.14.08.19.25.22.82.28,1.69.47,2.47,0,.13.14.09.18.25a6.79,6.79,0,0,0,.19.68c.07.19.13.49.19.68.33,1.23.62,2.61,1,3.83,0,.1.14.08.18.17.16.37-.06.23.19.42,0,0,0,.21,0,.26.17.36.4,1,.56,1.19.5.77.45,1.2,1.12,1.44.1,0,0,.14.1.17.43.21.84.38,1.21.6a19.23,19.23,0,0,0,1.87,1.19c.36.15.84.33,1.12.42s.49.07.75.17c.09,0,0,.13.19.17a4,4,0,0,0,1.4.17,20.78,20.78,0,0,1-2.34-4c-.2-.42-.42-.94-.56-1.28a26.23,26.23,0,0,1-1-3.06c-.23-.94-.54-2.09-.75-2.89s-.45-2.06.29-2.63c.53.25.67.86,1,1.27.17,2,.94,3.51,1.22,5.44a3.74,3.74,0,0,1,.37.68c.18.5.26,1,.47,1.53s.62,1.25.75,1.53,0,.28.18.43c.37.4.58,1.06.94,1.53a6.15,6.15,0,0,0,1.21,1.1c.21.16.31.4.47.51s.39.06.56.17.18.26.28.34c.42.34.91.48,1.12.94a4.2,4.2,0,0,1,1.22.59c.09,0,.15.16.19.17a11.06,11.06,0,0,0,1.49.34c.15,0,.08.14.28.17m-27,83.54c.15-2.83-.37-5-.37-7.74-.36-.46-.12-1.32-.19-2s-.29-2-.37-2.72c-.05-.37.06-.8,0-1.19,0-.22-.09-.75-.47-.76h-.09a36.31,36.31,0,0,1-4.49,1.44c-.11.19-.18.41-.37.51-.47-.16-.82.28-1.31.43s-.84.14-1.22.25a3.23,3.23,0,0,0-1.12.43c-2.37.25-3.66,1.49-5.89,1.87-.26.35-.77.36-1.21.51a11.44,11.44,0,0,1-1.68.51c-.77.1-1.76.43-2.62.59-.41.08-.72.12-1.12.17a.5.5,0,0,0-.28.17c-.53.11-1.15.06-1.69.17,0,0-.11.15-.18.17s-.33,0-.47,0a20.27,20.27,0,0,1-3.37.6,6.21,6.21,0,0,1-1.49.42,31.32,31.32,0,0,1-5.05,1,4.56,4.56,0,0,1-2,.34c-.1.28-.66.14-1,.17a14.61,14.61,0,0,1-2.24.51c-.36.1-.68.24-1,.34s-.8.15-1,.43c-2.2.46-4.14,1.16-6.91,1.1-.29-.06-.12.3-.47.17h-.94a34.08,34.08,0,0,1-7.75,1.28c-.29-.07-.12.29-.47.17-1.09-.11-1.61.29-2.71.17-.34.29-1.16.13-1.78.17-.43.3-1.3.12-2,.17a107.75,107.75,0,0,1-13.18.34c1,4.27,4,6.81,5.24,10.87a16.05,16.05,0,0,1,3,3.83c.34-3.29.38-6.85.75-10.11.5-.71,2-.91,3.36-1s3.09-.29,4.21-.26c.88,0,2.32.22,2.52.94a15.8,15.8,0,0,1-.47,2.72c-.31,2-.56,3.73-.84,5.52a11.89,11.89,0,0,1-.47,2.72c-.23.5-1.4.7-2,.85.18,1.45.09,3.15.28,4.59a16.59,16.59,0,0,0,2.71.93c.53.12,1.15.06,1.68.17a8.33,8.33,0,0,0,3.56.51,9.71,9.71,0,0,1,2.52-.34c.15,0,.31-.15.47-.17,1.13-.1,1.93-.07,2.89-.17a33.37,33.37,0,0,0,6.17-1.27,4.32,4.32,0,0,0,2.53,0c.55-.1.74-.06,1.12-.17a21.69,21.69,0,0,1,2.61-.68c1-.18,2.48,0,3.27-.26-.31-2.21-1-4.78-1.58-7.05a10.39,10.39,0,0,1-3.93-1.19c-2.59-1.07-5-2-7.57-3.06.31,1.84.73,3.58,1,5.44-.46.86-1.59,1.11-2.62,1.44,0,1,.93,2.13-.09,2.55a3,3,0,0,0-1.31-.25c-.8.06-1.13.83-1.68.93-1.56.29-1.15-1.47-1.5-2.46-1.73,0-1.72-.61-1.87-2-.27-2.39-.58-4.72-.84-6.88a11.11,11.11,0,0,1-.28-2.89c.22-.75,1.73-1.2,2.71-1.44a24.24,24.24,0,0,1,3.46-.77c2.2-.2,3,.66,4.39,1.28,1.82.79,3.57,1.54,5.24,2.29a13.41,13.41,0,0,0,2.61,1c-.22-.92-.38-1.82-.56-2.8a10.76,10.76,0,0,1-.47-2.89c.18-.79,1.55-1.17,2.62-1.45,1.88-.48,4.45-1.33,5.89-.25.32,2.34.72,5.72,1,8.24a13.81,13.81,0,0,1,.28,2.89c-.16.56-1.05.73-1.31,1.19.11.38.17.81.28,1.19-.85.67-1,2.5-.65,3.48h-.85a19,19,0,0,1-.84-3.31c-.07-.28-.05-.9-.56-.85s-.22.47-.18.68a6.71,6.71,0,0,0,.28.76c.41,1.78.74,3.69,1.21,5.27A18.86,18.86,0,0,1,144,182a9.83,9.83,0,0,1,2.33-.34c.13,0,.23-.15.38-.17l.93-.17c2.09-.41,4-.92,6.08-1.28-.62-1.85-1.42-3.53-2.06-5.35-1-.2-1.06-1.3-1.4-2.13a5.27,5.27,0,0,1-2.52-.08c-.84-2.6-1.51-5.44-2.25-8.16-.21-.8-.86-2.14-.74-2.8.15-.89,2.13-1.6,3.08-2a34.24,34.24,0,0,1,3.83-1.36c1.09-.23,2.21-.25,2.71.26.39,1.94.61,4,1.12,5.86,1.2-2.07,2.34-4.21,3.56-6.29a16.36,16.36,0,0,1,1.21-2.12c1-1.26,3-1.62,5.14-2,1.08-.22,3.81-1,4.11,0,.17.58-.79,1.6-1.12,2.12-1.41,2.21-2.65,4.11-3.92,6.12,1.87.65,4,1.11,5.79,1.79m-.19,2.29c.28-.09.25-.9.1-1.1a26,26,0,0,1-4.21,2.38c.37,1.19.87,2.26,1.31,3.4-.48.4-.35,1.5-.28,2a4.51,4.51,0,0,1-1.4.17c-.61-1.64-1.31-3.18-1.87-4.84-3.18-.09-5.43-1.47-8-1.79.07,1,.92,2.46.56,3.4-.25.64-1,.84-1.68,1.19a14.29,14.29,0,0,1,.75,2.29,2.41,2.41,0,0,1-1.4.77c.4,1.27,1,2.4,1.4,3.65a2.31,2.31,0,0,0-.38,2,28.42,28.42,0,0,1,3.27-.59,2.9,2.9,0,0,1,1.31-.34,7.37,7.37,0,0,1,1.59-.51,4.91,4.91,0,0,1,1.5-.6,1.9,1.9,0,0,1,1.12-.68c.36-.57,1.09-.81,1.59-1.27s.73-1.14,1.4-1.45a5.56,5.56,0,0,1,.84-1.36,13,13,0,0,0,.84-1.36,21.86,21.86,0,0,0,.94-2.29c.09-.25.29-.51.37-.76s.06-.85.19-1.19c0-.14.16-.07.18-.26s0-.57,0-.85M168,141.39a3.64,3.64,0,0,0-.19-2.21,1.31,1.31,0,0,1-2,.34c.76.95-.77,2.11-1.4,1.1.49,1.23.18,2.77-1.69,2.38a2.86,2.86,0,0,1-.46-1.44c-.46.12-.4-.22-.75-.17-.17-.26-.48-.42-.66-.68a5.9,5.9,0,0,1-.37-1,9,9,0,0,1-.37-.85,13.19,13.19,0,0,1-.38-1.28,6.61,6.61,0,0,0-.18-.68,20.31,20.31,0,0,1-.47-3.91c0-.13-.24-.06-.19-.25v-.85c0-.14-.24-.07-.18-.26,0-2.26-1.71-3-1.41-5.52a6.7,6.7,0,0,1-.74-2c0-.28.11-.56.09-.77-.09-.81-1.13-1.36-.75-2.55-.31-.09-.13-.5-.19-.76s-.28-.61-.37-.94a45,45,0,0,1-1-6.37,5.16,5.16,0,0,1-.56-1.7,2.82,2.82,0,0,1-.65-1.19c-.12-.26-.28-.53-.38-.77s-.07-.66-.18-.93c0,0-.17,0-.19,0s0-.21,0-.26-.16-.18-.19-.25c-.11-.29-.08-.63-.18-.94,0,0-.17,0-.19-.08a4.08,4.08,0,0,1-.19-.77,3.87,3.87,0,0,1-.47-1.61,3.66,3.66,0,0,1-.56-2.12,6.13,6.13,0,0,1,.66-1s.69-.3.75-.34a2.09,2.09,0,0,1,.65-.34,5.83,5.83,0,0,1,2.62-.17,2.47,2.47,0,0,1,2.05-.26c0,.07.08.1.19.09v.51c.32,0,.11.41.37.42a20.83,20.83,0,0,1,1,3.83c.37.37.2.77.38,1.18,0,0,.16,0,.18,0s0,.21,0,.26a6.32,6.32,0,0,1,1.4,4.5,3.86,3.86,0,0,1,.38.94c.11.39,0,.24.19.42,0,0,0,.21,0,.26.18.47.43,1.14.56,1.53s.1.37.28.51,0,.21,0,.25c.2.41.36.85.56,1.28a2.13,2.13,0,0,0,1.21-.43,10.89,10.89,0,0,0-.09-3.23c-.22-.11-.28-.37-.47-.51a14.73,14.73,0,0,1-.56-3.06c-1.3-1.36-1.77-4.4-2.43-6.37-.12-.36-.07-.84-.19-1.19,0-.14-.15-.07-.18-.25a7,7,0,0,1-.19-1.53,4.06,4.06,0,0,1,.37-.94.86.86,0,0,1,.28-.42c.24-.24.31-.33.47-.51.6-.68,1.29-1.22,1.78-1.87a1.1,1.1,0,0,0,1,0c0-.47.08-1-.19-1.28a3.21,3.21,0,0,0-1.31.77c-.5-.12-.44.28-.93.17-.24.41-.83.48-1.22.68s-.74.61-1.31.59a3.9,3.9,0,0,1-1.4.85c-.5.25-1,.55-1.5.77-.07,0-.2,0-.28,0-.24.09-.51.25-.74.34s-.35.25-.56.34-.5.16-.75.25a6.53,6.53,0,0,1-1.59.34c-2.32.84-4.82,1.51-7,2.47-4,1.05-7.62,2.47-11.87,3.31a4,4,0,0,1-1,.34c-.55.18-1.45.39-1.87.51-1.06.3-2.3.35-3.46.59-.11.19-.17.41-.37.51-1.92.18-3.32.83-5.33.94a6.1,6.1,0,0,1-1.12.34c-.43.08-.38.11-.65.17-.65.14-1,.14-1.5.25a21.08,21.08,0,0,1-3.74.68,3.86,3.86,0,0,1-1.59.34c-.3.28-1,.24-1.49.34a20.88,20.88,0,0,1-3.93.77,4.22,4.22,0,0,1-1,.34c-1.84.4-3.72.78-5.71,1.1-.8.46-2.26.33-3.55.34-.14,0-.07.22-.28.17-2.54,0-4.33.71-6.91.68-.23.36-1.09.15-1.41.43-.09-.37-.91-.08-1.3-.17-.15,0-.08.21-.28.17H85.41c-.36.35-1.4.08-2.06.17-.15,0-.07.21-.28.17-1.44.06-2.41-.3-3.92-.17-.15.09-.23.24-.38.34-3.81,0-7.06.6-11,.51.13.59.51,1,.66,1.53,1.33-.23,2.12,1.13,3.36.76.56-.17.83-.77,1.12-.93a8,8,0,0,1,2.81-.68,5.1,5.1,0,0,1,3.74.76,11.86,11.86,0,0,0,1.12.85A7.64,7.64,0,0,1,82,118.61a10.67,10.67,0,0,1,1.22,1.19c.74,1,1,2.39,1.59,3.49.26,2,.69,3.78,1,5.69-1.17.76.36,2.4-.09,3.48-.08.2-.4.39-.65.6-1.19-.31-.77-2.08-2.06-2.3-.81.65-.08,2.71-1.4,2.89.65.71,1.3,1.43,2,2.13a4.6,4.6,0,0,1,2.24,1.78,11.76,11.76,0,0,1,1.59,1.19,9.55,9.55,0,0,1,1.59,1.19,4.44,4.44,0,0,1,1.68.94c.39.24.71.29.85.68.92.24,1.25,1,1.87,1.53,0-.52-.31-.69-.19-1.28-.34-.33-.24-.81-.38-1.19s-.69-1-.65-1.53c-.33-.15-.44-.51-.56-.85a3.23,3.23,0,0,1-.84-.85,5.5,5.5,0,0,1-1.59-4.08c-.31-.55-.36-1.21-.56-1.53s-.24-.55-.38-.76a9.37,9.37,0,0,0-.65-.85c-.14-.17-.44-.2-.56-.34s-.09-.37-.19-.51a4.21,4.21,0,0,1-.84-2.63c-.3-.1-.15-.6-.19-.94a3.68,3.68,0,0,1-.37-1.61,2.51,2.51,0,0,1-.37-1.28,6.08,6.08,0,0,1-.66-2.29,3.37,3.37,0,0,1-.37-1.7,2.4,2.4,0,0,1,.47-2.55c1.49.08,3.44-.24,4.39.34.93-.48,1.88-1,2.8-1.45,3.07.16,5.77-1.77,8.41-.42,0,1.56.8,3.09.38,4.5.73.92,2,2.1,1.4,3.66.23.68,1.12,2.26.09,2.55-1.26.35-1.44-1.39-1.87-2.21-1.35.19,0,1.43-.28,2.38-.35-.13-.18.23-.46.17-.87-.24-1.18-1-1.41-1.79-.76.09-1.42-.23-2,0-.21,1.42,1.12,2.46.09,3.4-1.86-.21-.91-3-2.9-3.06.23,2.4,1.39,4,2,6,2.22-.29,3.88-1.11,6-1.53,1.55.54,1.12,2.34,1.4,4,.12.71.55,1.45.75,2.21.07.28,0,.59.09.85s.15.08.19.25c.11.52.12,1.08.19,1.62-.39.16-.39.66-.94.68a6.64,6.64,0,0,0-3.64-.77,15.7,15.7,0,0,0,2.24,6.55c.9-.2,1.82-.47,2.8-.68a14.74,14.74,0,0,1,5.52-.43c-.15.39.32.72.56,1a10.24,10.24,0,0,1,.37,3.15,5,5,0,0,1,1.22,3.73c-.36,0-.21.44-.56.43-.17.9-.07,2-.75,2.46-1.53,0-2-.91-2.43-1.87-.59.09-.27,1-.75,1.19-.77,0-.93-.62-1.21-1.1a2.61,2.61,0,0,1-1.31.34c-.16-.11-.07-.45-.38-.43-.66.54-.54,1.78-1.21,2.3h-.66a3.76,3.76,0,0,1-.65-1.79c-.69.06-.67.75-1.12,1s-1.13-.1-1.31-.17-.31,0-.47-.17a3.91,3.91,0,0,0-2.61-.68,3.64,3.64,0,0,0-.75-1,45.77,45.77,0,0,0-2.15-8.41v.26c.84,1.88-.79,3.71-.47,5.69.08.5.65.91.75,1.44.14.74-.28,1.13,0,1.79a1.49,1.49,0,0,0-.28.51c.43.25.12,1.19.47,1.53-.63.37-.39,1.51-1,1.87.29,0,.41.07.37.34,5.7-.06,11-.46,16.45-.77.22-.33,1.07-.1,1.59-.17.15,0,.07-.21.28-.17,3.37-.16,6.15-.86,9.44-1.1.14,0,.07-.22.28-.17,4.72-.63,9-1.72,13.46-2.55a4.87,4.87,0,0,1,1-.34,2.54,2.54,0,0,0,.56-.17,14.57,14.57,0,0,1,1.77-.34,8.09,8.09,0,0,1,2.43-.6c1.31-.57,3-.78,4.3-1.35.38,0,.52-.16.94-.09-.1-.28-.43-.2-.56-.26-1-.42-.38-2-.84-2.88a.69.69,0,0,0-.28-.34c-.34.59-.29,1.55-1,1.78a2.46,2.46,0,0,0-.84-.42,4.51,4.51,0,0,1-.66-2.72c0-.14-.24-.07-.19-.26v-.93c0-.14-.24-.07-.18-.26v-.68c-.32-.27-.24-1-.38-1.36,0,0-.16,0-.18-.08a5.15,5.15,0,0,0-.28-.6,3.46,3.46,0,0,1-.94-3c0-.13.15-.1.19-.26.1-.38,0-.38.19-.59.46-.72.55-1.34,1.49-1.36,1.1,0,1.68,1.21,2.9,1.61a4.65,4.65,0,0,0,2.43,0c.1,0,.88-.39.93-.42a5.15,5.15,0,0,0,.84-1.11,1.7,1.7,0,0,1,.38-.34c.11-.24.06-.73.19-1,.05-.13.15-.07.18-.25a3.26,3.26,0,0,0-.47-2.21h-1c-.23-.06-1-.44-.94-.17-.63.32-.31,1.45-.19,1.87.24.78.32,1.24.1,1.61a1.59,1.59,0,0,1-.94.85,2.05,2.05,0,0,1-.93-2,2.25,2.25,0,0,0-1.31-1.19,1.67,1.67,0,0,1-.93-.85,10.05,10.05,0,0,1-.47-.93v-.77a5.18,5.18,0,0,1-2-.51c-.3,1.06-1,1.15-1.69.6a2.55,2.55,0,0,1-.93-1.53,8.75,8.75,0,0,1,.19-1.87c-.12-1.16-1.62-1.41-1.41-2.38-.6-.48-1-1.13-1.58-1.61a6.91,6.91,0,0,1-.75-1.87c-.38-2.15.4-4.61.93-6.63,0-.15,0-.38,0-.51s.16-.07.19-.26,0-.56,0-.76c.38-.28.1-1.05.19-1.62a3.5,3.5,0,0,1,1-1.78,5.38,5.38,0,0,0,.85-1.28c.12-.21.32-.31.37-.42s0-.2,0-.26.33-.1.37-.17,0-.24.1-.34a4.13,4.13,0,0,1,2.24-1.1,13.65,13.65,0,0,1,4.39,0c.21.25.71.4.84.51.47.37,1.1.51,1.41.93a1.13,1.13,0,0,1,.93.51c1,0,1.28.77,2.15.94.56.64,1.2.87,1.78,1.53a7,7,0,0,1,.93,1.53c.07.15.23.29.28.42a14.73,14.73,0,0,1,.37,3.06,2.08,2.08,0,0,1-.18,1.7c-.06.08,0,.22-.19.17a2.23,2.23,0,0,0-2-.51v3.49c-.3.26-.29.44-.66.51-1.32.22-1.36-1.76-2.15-2.21-.22-.17-.53.14-.93.08-1.54-.52-.55-3.35-2.52-3.48-1.15.64-1.52,2.37-1.13,3.91.31.66.74,1.2,1,1.87.77.23,1,1,1.59,1.44.26.22.66.3.94.51.5.39.83,1,1.4,1.36.07,0,.33.07.37.09.46.18,1.11.44,1.4.59a3,3,0,0,0,.66.26,9.72,9.72,0,0,0,1.21.51c0,.3.44.16.38.51.58.06.77.45,1.12.76a6.42,6.42,0,0,1,2.05,2.46c.53.3.74.94,1,1.45s.61.82.56,1.36c.42.27.39.82.56,1.27.07.18.21.4.28.6a5.11,5.11,0,0,1,.28.68c.37,1.24,0,2.72.19,4.08.12.84.57,1.6.66,2.38-.29.31-.26.9-1,.76a4.93,4.93,0,0,0-1.31-.85c-.11.58-.89.56-1,1.28s.67,1.49.66,2.21a3.1,3.1,0,0,1-.75,1.7,1.68,1.68,0,0,1-.47.17c-1,.06-1.16-1.12-1.78-1.62-.73.16-1.06.67-1.68.94-.49-.18-.65-.66-1-.94-.68.48-.25,2-.37,3-.43.18-.47.51-.93.51a2.54,2.54,0,0,1-.75-.34c-.51-.55-.66-1.87-1.31-2.13-.77.55-.25,1.75-.37,2.64-.06.39-.35.6-.38.93a46.5,46.5,0,0,1,4.58-1.1c1.43-.55,3.14-.83,4.58-1.36.3,0,.39-.16.75-.09,1.26-.5,2.74-.79,3.92-1.36,2.84-.7,5-2,7.39-3.14m-.47-4.59c.11-4.49-.54-8.29-.84-12.41h-1.31c-.78.39-.86,1.34-.75,2.38a18.57,18.57,0,0,0,.47,2c.08.34.1.75.19,1.1,0,.11.15.08.18.17s0,.3,0,.43c.23.74.62,1.74.75,2.29.2.87.63,2,.84,2.64a3.39,3.39,0,0,0,.38.93c.05.13-.11.44.09.43m-5.23-50.48a3.42,3.42,0,0,0-.38-1c0-.07,0-.18,0-.26-.44-1-1-1.79-1.4-2.71-.45-.17-.65-.58-1-.85s-.9-.37-1.12-.77c-1.38-.36-2.65-1.06-4.11-1.44-.82-.22-1.72-.37-2.62-.6a15.64,15.64,0,0,0-3.08-.68c-.13-.07-.1-.13-.28-.17-1.23-.28-2.47-.35-3.74-.59-.14,0-.1-.13-.28-.17-.46-.11-1-.06-1.5-.17-.14,0-.09-.14-.28-.17-.51-.1-1-.06-1.49-.17-.15,0-.09-.14-.28-.17-2.51-.41-5.2-.75-7.39-1.28-.2,0-.46,0-.65,0s-.09-.14-.28-.17c-1.2-.2-2.43-.32-3.55-.59-.14,0,0-.13-.1-.17s-.28,0-.37,0c-1.16-.37-2.29-.64-3.36-1a11.29,11.29,0,0,0-1.78-.6,3.54,3.54,0,0,0-1.12-.68,10.14,10.14,0,0,1-1.12-.68c-.16-.11-.21-.29-.38-.42s-.4-.13-.56-.26c-.46-.36-.87-.74-1.31-1-.14-.09-.14-.23-.28-.34a14.54,14.54,0,0,1-3.17-3.48,10.25,10.25,0,0,1-1-1.62,7.81,7.81,0,0,1-.19-1.36c-.07-.3-.33-1-.37-1.19-.25-1.14-.44-2-.66-3-1.37.08-2.3.56-3.74.59a14,14,0,0,1-1.77.51c-1.54.35-3.16.7-4.86.94-.08.23-.51.16-.84.17-.33.3-1.13.22-1.69.34,0,0-.1.14-.18.17-.42.1-.75.12-1,.17-1.2.2-2.5.62-3.55.33a7.41,7.41,0,0,1,4-1c.3.1.07-.28.37-.17,2.55-.1,4.22-1,6.54-1.28a31.93,31.93,0,0,1,4.12-1.1,3.86,3.86,0,0,1,1.49-.34c1.18-.6,4-.54,3.18-2.38-1.87.17-3.31.73-5.33.76-.15,0-.07.22-.28.17h-.75a4.89,4.89,0,0,1-1.31.34c-1.15.19-2.46.25-3.45.51-.71.19-1.47.9-2.06.34a50.93,50.93,0,0,1,5.14-1.36l.75-.17.75-.17.74-.17a27.56,27.56,0,0,1,5.14-.76c.09-.27.39-.33.28-.77-1.49,0-2.38.61-3.92.6a3.89,3.89,0,0,1-1,.34c-1.93.44-3.8.8-5.79,1.1-.08.21-.43.18-.75.17a24.29,24.29,0,0,1-3.83.85A8,8,0,0,1,97,57.6c-.13.07-.1.12-.28.17a20.63,20.63,0,0,1-2.43.34,5.42,5.42,0,0,1-1.31.34,45.29,45.29,0,0,1-5.14.59c-.31-.11-.08.27-.38.17a15.57,15.57,0,0,0-2.24.17c-.14.66.25.85.37,1.28,1.93.9,4.59,0,6.73-.17a16.69,16.69,0,0,1,2.81-.68,12.1,12.1,0,0,1,3-.6c.33-.3,1.27-.22,1.77-.34.15,0,.09-.13.28-.17.56-.1,1.14-.07,1.69-.17.35-.06,1-.3,1.31-.34a16.28,16.28,0,0,1,2.61-.42c.17-.28,1.2-.22,1.5-.09a5.59,5.59,0,0,1-2.15.77l-3.37.76c-.14,0-.32,0-.46,0s0,.12-.1.17-.28,0-.37,0c-.86.26-1.8.46-2.71.68a14.21,14.21,0,0,1-2.43.43c-.16.28-.5.1-.75.17s-.09.13-.19.17-.32,0-.46,0-.09.13-.19.17-.33,0-.47,0c-.9.21-1.77.47-2.61.67-.41.1-1,.13-1.22.43.06.74.68,1,1,1.44,4.66.54,7.41-1.8,12-1.36-.19.32-.7.34-1,.43a24.68,24.68,0,0,1-3.92.76,8,8,0,0,1-2.34.51,9.87,9.87,0,0,1-2,.51c-.71.15-1.44.32-2.15.43-.09,2.37.59,5,.37,7.31-.09,1-.49,1.82-.56,2.72-.52.47-.42,1.14-.65,1.7,0,0-.17,0-.19.08a1.35,1.35,0,0,0-.09.26,25.48,25.48,0,0,1-1.59,2.89c-.65,1-1.47,2-2.06,3.06-.41.16-.59.54-.84.84a26.41,26.41,0,0,1-2.52,2.55c-.59.55-1.18,1.08-1.78,1.62a6.18,6.18,0,0,1-2,1.53c-1,1.11-2.23,2.07-3.37,3.14l-1.68,1.62c-.59.55-1.39.9-1.87,1.44-.31.35-.46.84-.74,1.19-.53.63-1.45,1.31-1.87,1.87a15.24,15.24,0,0,1-1.59,1.62,5.47,5.47,0,0,1-1.22,1c-.35,1.17-1.21,2.16-1.4,3.57-.1.71.07,1.54,0,2.46,9,.25,19.07.37,27.29-.43.3.11.07-.27.38-.17.94.13,1.31-.27,2.24-.17.15,0,.07-.21.28-.17,5.33-.61,10-1.79,15.23-2.54a3.3,3.3,0,0,1,1.22-.34,45.78,45.78,0,0,1,4.58-.94c.07-.22.42-.18.75-.17a16.82,16.82,0,0,1,3.27-.85,5.33,5.33,0,0,1,1.77-.42,23.25,23.25,0,0,1,2.34-.68,17,17,0,0,1,3.27-.77,5.16,5.16,0,0,1,1.87-.51,8.91,8.91,0,0,1,2.9-.93,2.37,2.37,0,0,1,.84-.51c.35-.15.77-.22,1.12-.34a41.49,41.49,0,0,1,6.73-2,3.3,3.3,0,0,1,1.31-.51,7,7,0,0,0,1.4-.51,11.28,11.28,0,0,0,3-.94c1.36-.23,2.22-.93,3.64-1.1a6,6,0,0,1,1.59-.77c1-.4,2.05-.88,2.81-1.27l.18-.09c.1,0,.14-.15.19-.17.54-.27,1.2-.32,1.59-.76a8.91,8.91,0,0,1-1.78-2,6.17,6.17,0,0,0-.56-.68c-.1-.11-.19-.24-.28-.34-.48-.5-.73-.61-1.12-1a36.65,36.65,0,0,0-5.23-1.1c-.73-.06-1.37-.11-1.78-.17a32.41,32.41,0,0,0-7.48.34,35.39,35.39,0,0,1-6.07-.17c-.52,0-1.09,0-1.59,0-.19,0-.36-.15-.56-.17-.38,0-.81.06-1.21,0-.2,0-.39-.16-.57-.17-.43,0-.87,0-1.3,0-.14,0-.35-.15-.47-.17-1.09-.16-2.22-.1-3.27-.25s-2.46-.56-3.37-.68a7,7,0,0,1-.84-.17,13.49,13.49,0,0,0-1.31-.34c-1.26-.26-2-.56-3.08-.77-.28-.36-.83-.39-1.12-.51-.68-.28-1.35-1-2-1.1-.11,0,0-.15-.09-.17s-.37,0-.56-.09c-.39-.13-.69-.3-1.12-.42-.73-.22-1.34-.59-2.06-.77a5.94,5.94,0,0,0-1.21-1.19c-.64-1-1.7-1.74-2.34-2.63-.33-.46-.56-.84-.84-1.28a6.13,6.13,0,0,1-1-2.29c-.34-.09-.25-.44-.37-.68a20,20,0,0,1-1-2.21,5,5,0,0,1-1.87-.17,5.26,5.26,0,0,1-1.31-.77,3.19,3.19,0,0,1-.56-.76c-.28-.43-.74-.95-.56-1.36a2.7,2.7,0,0,1,1.12.17c.46-.15.79-.38,1.12-.51s.57-.08.85-.17a6.43,6.43,0,0,1,.93-.34c.92-.21,1.94-.39,2.9-.51.55-.07,1.17,0,1.77-.09.16,0,.3-.15.47-.17.37,0,.75,0,1.12,0,.12,0,.24-.15.38-.17.3,0,.68,0,1,0,.14,0,.23-.14.38-.17a11.58,11.58,0,0,1,3-.17,9.9,9.9,0,0,1,2,3.06c.39.17.46.45.66.77a6.53,6.53,0,0,0,1.3,1.61s0,.21,0,.26c.26.3.55.59.75.85s.18.39.28.51.43.17.56.34.06.38.19.51.47.3.65.51.09.21.19.34a6.94,6.94,0,0,0,.94.85c.44.39.78.85,1.21,1.19a6.14,6.14,0,0,0,1.31.76c.25.06.65.41.93.51.48.18,1.34.52,1.87.68.33.1.63.15.94.26.1,0,.09.14.18.17,1.53.44,3,.68,4.58,1.1,1.07.29,2.26.63,3.27.85l1.31.26c.46.08,1,0,1.41.17.14,0,.08.13.28.17a20.23,20.23,0,0,0,2.89.34,12.61,12.61,0,0,0,2.9.34c.16,0,.3.14.47.17.89.12,2,.16,3,.25a21.49,21.49,0,0,0,2.34.17,18.79,18.79,0,0,1,2.71-.17c.27,0,.5.3.84.17a2,2,0,0,0,1.12.51,7.69,7.69,0,0,0,1.59,1.28,4.75,4.75,0,0,0,1,1.52c.22.84.76,1.63,1,2.55.13.45.09.56.19.85a3,3,0,0,0,.19.43c.2.73,0,1.48.46,2,.41-.57,1.26-.79,1.87-1.11.23-.12.33-.47.66-.34.32-.61,1.3-.63,1.59-1.27m-56.08,96.2c0-.32.16-.55.09-.85-.4-2-3.73-1.65-3.74.17a15,15,0,0,0,3.56,2.21c.36-.45.08-1,.09-1.53M91.86,156a4.06,4.06,0,0,1-.56-1.78c-.53,0-.72-.37-1.22-.43a10.49,10.49,0,0,1-1.4-2c-.38-.79-.46-1.77-1.22-2.29.09,1-.18,1.85-.84,1.78-.83-.08-.69-1.74-1.31-2.2,0-.62-.42-.87-.46-1.45-1-.08-1.29-.87-1.69-1.53h-.84c-1.2-1.57-1.26-4.18-3.36-4.93a11.93,11.93,0,0,0,.75,1.79c.33.54.56,1.19.84,1.61s.59,1.1.84,1.45.32.51.47.76.31.37.46.6,0,.22.1.34a8.66,8.66,0,0,1,.46.84c.05.15,0,.37,0,.52s.16.07.19.16a4.18,4.18,0,0,0,.56,1.36c.31.37.92.58,1.22,1a1.9,1.9,0,0,1-.38,1.45c.26.32.2.45.38.59s0,.21,0,.26c.2.32.35.36.56.59a7.43,7.43,0,0,1,.46.68c-.12.4.31.29.19.68,2-.11,3.79.52,5.8.17m-17.2-27c2.44.39,3.68-1.46,3.46-3.48a4.76,4.76,0,0,0-1.4-.09c-.6-.31-.88-.9-1.31-1.36-1.28,0-1.6.87-2.62,1.11.44,1.44,1.33,2.46,1.87,3.82m1.87-38.5c.36-.27.83-.51,1-.93a26.77,26.77,0,0,1-4.21-1.28A29,29,0,0,1,70.73,87c-1.73-.94-3.47-1.77-5.32-2.55-.14-.33-.5-.45-.94-.51A4.72,4.72,0,0,0,63.16,83a36.13,36.13,0,0,1-4.11-2.81c-.4-.21-.72-.4-1-.59-.12-.09-.18-.28-.28-.34s-.59-.21-.84-.34c-.41-.23-.74-.51-1-.68s-.76-.4-1.12-.6a6.14,6.14,0,0,0-1.59-.76A10.33,10.33,0,0,0,51,75.44a13.3,13.3,0,0,0-2.15-1.27c-.11,0,0-.13-.09-.17-.71-.45-1.52-.87-2.24-1.36a9.12,9.12,0,0,0-3.18-1.53,10.4,10.4,0,0,0-3.65,0,18.15,18.15,0,0,0-2.61,1.1c-.35.24-.8.51-1,.68a5.8,5.8,0,0,1-.75.6,3.64,3.64,0,0,0-.65.25,5.42,5.42,0,0,0-1.5,2.38,16.19,16.19,0,0,0-.93,1.79c0,.09-.17,0-.19.08s-.09.44-.19.68c-.24.61-.41,1.29-.65,2-.07.17-.21.39-.28.59a3.67,3.67,0,0,0-.09.51c0,.07-.19.07-.19.09s0,.29,0,.42-.18.22-.19.26c-.11.4-.1.8-.19,1.18,0,.16-.16.22-.18.34-.11.56-.1,1.12-.19,1.7a58,58,0,0,0-.47,8.59c0,3.54.14,7.4.28,10.45.17,3.42-.09,7-.18,9.94a17.93,17.93,0,0,1,2.24-1.61,6.28,6.28,0,0,0,1.68-2.3s0-.12,0-.17.18-.06.19-.08c.09-.26.1-.68.19-1a20.52,20.52,0,0,0,.65-3.06,8.68,8.68,0,0,1,0-1c0-.17.17-.25.19-.43.07-.69-.08-1.4,0-2.12,0-.14.16-.3.18-.42.3-1.62-.36-3.53,0-5.19,0-.18.17-.26.19-.42A7.75,7.75,0,0,1,35.12,95c.69.88.42,2.62.47,4.08a4.94,4.94,0,0,1,.56,1.36c.44,2.73-.39,7.27-.28,9.77l1.12-.68c.42-.25.92-.38,1.22-.6a4,4,0,0,0,1-2c.12-.37,0-.65.18-1.11,0-.15.18-.19.19-.34a10.13,10.13,0,0,1,0-1.35c0-.16.17-.27.19-.43.3-2.93-.3-6.59,0-9.35,0-.11.17-.31.19-.42.11-.68-.27-1.8.65-2,.45.16.5.58.56.93a42.12,42.12,0,0,1,0,6,31.7,31.7,0,0,0,.19,5.78c.42-.34,1-.55,1.4-.93.13-.13.15-.35.28-.51s.55-.37.75-.6c.06-.08,0-.28.09-.34.17-.23.21-.3.37-.51a1.71,1.71,0,0,0,.28-.42,7.28,7.28,0,0,0,.38-.68c.07-.2.22-.41.28-.6,1-3.18-.22-7.32.19-11.13.07-.72.46-1.36.56-2,.15-1.14-.41-2.08-.19-3.06A.43.43,0,0,0,46,83.6c0-.12-.06-.32.09-.34a.3.3,0,0,1,.28.26c0,.1.15,0,.19.08s-.05.3,0,.42.15.08.18.26c.28,1.48-.1,3.27,0,5a61.41,61.41,0,0,1,0,9.78c.62,0,0,.4.38.42,1.16-.3,1.8-1.08,2.9-1.44a2.47,2.47,0,0,1,1.12-.94c.1-.48.57-.82.65-1.27,0-.15.17-.13.19-.17s-.05-.31,0-.51.17-.25.18-.34-.07-.48,0-.77.18-.27.19-.42a18.92,18.92,0,0,1,0-2.13c0-.14.17-.26.19-.42.22-2.16-.12-4.4,1-5.78.68.65.32,1.85.28,2.8-.13,2.63,0,5.75.09,8.25,2.08.43,3.2-.71,4.39-1.36.24-1.42,1.25-2.63,1.41-4.25.11-1.22-.08-2.25.74-2.81.81,2.59-.3,5.51-.93,7.82a6.41,6.41,0,0,0,4.39.68c.17-.92.6-1.9.75-2.89.07-.43-.14-.9.19-1.27-.28-.41-.23-1.13.37-1.19.88,1.77-.09,4-.37,5.69a1.36,1.36,0,0,1,.56.6A5.2,5.2,0,0,0,68,96.6a.75.75,0,0,1,.38-.68c.15-.74,0-1.87.74-1.87,1.14,0,.22,1.91.29,2.55a2.24,2.24,0,0,1,.65-.68c.53-.4.86-.7,1.31-1.1,1.35-1.22,2.8-2.31,4.11-3.49.34-.3.65-.57,1-.85m-7.29,42.58a4.69,4.69,0,0,0-.66-3.49c0-.16.43,0,.28-.34-.61-1.65-1.43-3.18-2.15-4.75s-1.54-3.14-2.24-4.76c-.09,0-.11-.07-.19-.09-.69.16-1.22,1-2.05,1.11-.41.07-.69-.09-1.22,0,.09.33-.32.21-.18.59-.43.17-.51.64-.75.94s-.57.63-.84.93a16.62,16.62,0,0,1-4.11,3.06,9,9,0,0,1-2.43,1.19,12.16,12.16,0,0,1-5.61,3.82c-1.66,3.68-4.56,6.23-7.67,8.59-.24,0-.1-.37-.46-.26.07.35-.31.29-.19.68a4.11,4.11,0,0,0-.93,1.11c-.25.32-.47.59-.66.85a13.18,13.18,0,0,1-2.34,2.38c-.25.9-2.42,1.73-1.4,3.06a2.69,2.69,0,0,1,.56.93c.2.88-.16,2.11,0,3.31.09.63.3,1.81.38,2.3,0,.32,0,.68,0,1,.07.71.28,1.43.37,2.21a30.19,30.19,0,0,1,0,4.76c-.1,1.89.14,3.85,0,5.44a19.28,19.28,0,0,1-.56,2.8c-.1.39-.13.45-.19.68s-.14.39-.18.6a1.57,1.57,0,0,1-.19.5,6.65,6.65,0,0,0-.37.85,19.59,19.59,0,0,0,2.52-1.78c.22-.18.45-.34.65-.51a10.41,10.41,0,0,0,1.12-1.19c.18-.19.48-.29.66-.51.06-.07.13-.26.19-.34a12.65,12.65,0,0,0,.65-1.1,4.46,4.46,0,0,1,.19-.43c0-.07.34-.19.37-.25s0-.25,0-.34.15-.09.19-.17c.78-1.81.31-4.57.65-6.63a9.39,9.39,0,0,0-.28-3.15c-.09-.52-.1-1.08-.18-1.53,0-.12-.15-.09-.19-.25s.05-.36,0-.51-.16-.07-.19-.26a5.64,5.64,0,0,0-.19-.85c-.05-.19,0-.43,0-.59s-.15-.08-.18-.26,0-.49,0-.76a12.46,12.46,0,0,1-.19-3.57,2.08,2.08,0,0,1,.56-1.27c.3.09.42.35.75.42,1,4.82,2.91,9.71,2.24,15.47a11.18,11.18,0,0,0,4.21-4.34v-.85c2.06-2.25,1.37-6.87,1.12-10.45,0-.13-.24-.07-.19-.25,0-1.06-.45-1.69-.37-2.81,0-.13-.24-.07-.19-.25a21.35,21.35,0,0,0-.56-4.93c.23-.3.34-.71.56-1s-.22-1,.19-1.11c.44.29.39.82.56,1.36.06.2.11.48.19.68s.16.08.18.17a11.21,11.21,0,0,0,.19,1.11c0,.13.14.08.19.25a11.12,11.12,0,0,1,.46,2.47,2.9,2.9,0,0,1,.38.93c.2.82.41,2.1.56,2.81a59.39,59.39,0,0,1,.65,6.62,3.76,3.76,0,0,0,.66-.68c.47-.48.92-.77,1.4-1.27.17-.18.29-.4.47-.6a3.14,3.14,0,0,0,.65-.76c0-.1.14,0,.19-.09a5.62,5.62,0,0,0,.65-1.19,5.53,5.53,0,0,0,.56-1c0-.15.17-.13.19-.17s-.07-.41,0-.6.16-.07.19-.25,0-.61,0-.94c.34-.16.21-1,0-1.19v-1.19c.11-.27-.31-.07-.19-.34V142c-.28-.08-.17-.53-.19-.85-.3-.1-.14-.5-.18-.76s-.3-.7-.38-1a16.17,16.17,0,0,1-.47-2.38,2.26,2.26,0,0,1-.37-1.28,5.06,5.06,0,0,1-.56-1.61c-.11-.62-.6-1.61-.65-2.3-.07-.85.31-1.17.46-1.7,0-.08.17-.05.19-.08.18-.45,0-.85.37-1.19.22,0,.28-.15.56-.09,1.17,5.38,4.17,9.08,4.58,15.13a2.48,2.48,0,0,0,1-.85h.38a4.49,4.49,0,0,1,1-1,10.61,10.61,0,0,0,1.41-1.44c.28-.37.42-.74.74-.94-.09-.47.32-.81.38-1.1a10.57,10.57,0,0,0,0-2.81c0-.13-.17-.07-.19-.25s0-.56,0-.85c0-.13-.15-.09-.19-.26-.09-.46-.14-.78-.18-1a4.78,4.78,0,0,0-.19-.76c-.15-.46-.25-1-.37-1.53a14,14,0,0,1-.47-3.23,2,2,0,0,1-.75-1.27c.56-.36,1.2-.17,2-.26a26,26,0,0,1,2.71,9.94c.35.08.77-.2,1.13-.42a3.65,3.65,0,0,0,1-1,5.87,5.87,0,0,0,.94-1.7M66.62,99.49c.1-.59.65-.77.84-1.27a4.32,4.32,0,0,1-3.64-.51c-1.41.87-4.36.56-5.33-.43a7.8,7.8,0,0,1-4.67.94c-.23-.27-.7-.22-1-.17-1.85,1.23-3.5,2.65-6.45,2.89a3.85,3.85,0,0,1-1,2.12s0,.21,0,.26-.2.15-.28.25a14.14,14.14,0,0,1-3.83,3.14,6.71,6.71,0,0,1-2.15,3.91c-1.37.94-3.29,1.37-4.21,2.72a3.12,3.12,0,0,0-.74.34,2.15,2.15,0,0,0-.66.43,15.66,15.66,0,0,0-.93,1.27c-.12.14-.36.21-.47.34s-.18.47-.37.68a6.18,6.18,0,0,1-.66.43c-.08.06-.55.51-.56.51s0,.25-.09.34c-.36.41-.92.83-.94,1.36,0,.71.92,1.49.66,2.46.32.11.13.56.18.85,0,.12.14.1.19.26a5.65,5.65,0,0,1,.19,1.36c.3.09.13.5.19.76a23.55,23.55,0,0,1,.84,4.16c0,.14.23.07.18.26v.76c.39.17,0,1,.38,1.19.37,2.9,1.09,6.55.56,9.69-.24,1.39-.84,2.57-1.12,3.74A13,13,0,0,0,33.44,143a20.31,20.31,0,0,1,2-1.44c.76-1,2.05-1.89,2.43-3.15,0-.09.16,0,.18-.08s0-.3,0-.43.15-.07.19-.25c.15-.85-.11-1.75,0-2.89-.25-.47-.38-1.38-.56-1.79a10.84,10.84,0,0,1-.84-3.06c-.31-.28-.28-.85-.38-1.27,0-.11-.14-.08-.18-.17s0-.3,0-.43-.14-.08-.19-.25c-.36-1.31-.5-3.19.28-3.74A8.35,8.35,0,0,1,38,128.3c.3.08.13.45.19.68s.15.08.19.17,0,.3,0,.42a8.15,8.15,0,0,0,.37.77c.11.27.15.48.19.59s-.05.3,0,.43.13.08.18.25a11.33,11.33,0,0,1,.47,3.15c0,.13.24.07.19.25v1.19c.56,0,.62-.45,1.21-.42a20,20,0,0,1,2.15-2c-.1-.31.24-.42.38-.59s0-.23.09-.34.32-.1.37-.17,0-.19,0-.26.16,0,.19-.08a28.43,28.43,0,0,1,1.59-2.55c0-5.83-2.15-9.61-2.62-15,.41-.08.53-.43.84-.59,1.08.79.85,2.71,1.13,3.74.1.38.06.91.18,1.27,0,.13.14.08.19.26.2.76.26,1.55.47,2.29,0,.13.14.08.18.26a3.74,3.74,0,0,0,.19.59c.24.82.6,2.06.75,2.64.24,1,.28,1.92.47,2.88,2.95-2,6.49-3.47,6-8.15,0-.33-.13-.7-.19-1-.61-3.05-2.26-5.64-2.24-9.18-.35-.15-.11-.68-.19-1s-.2-.21-.19-.43.16-.18.19-.25c.18-.46,0-.59.28-.77a.79.79,0,0,1,.47-.08,3.71,3.71,0,0,1,.65,1.61c0,.14.15.08.19.26a1.93,1.93,0,0,0,.19.59,36.46,36.46,0,0,1,1.21,5,4,4,0,0,1,.56,1.78,7.77,7.77,0,0,1,.56,1.36,12.3,12.3,0,0,1,.47,3c0,.13.24.06.19.25.11.49-.24,1.4.18,1.62,1-.41,1.57-1.24,2.62-1.62a12.72,12.72,0,0,1,1.59-1.61,6.69,6.69,0,0,0,.37-3c-.31-.09-.12-.5-.18-.76s-.15-.08-.19-.17,0-.3,0-.43-.13-.09-.19-.25a12.58,12.58,0,0,1-.84-3.66c0-.13-.24-.06-.19-.25v-.85c0-.14-.24-.07-.18-.26a26.71,26.71,0,0,0-1.12-5.77,1.56,1.56,0,0,1,1.68.25,18,18,0,0,1,.18,1.87c.06.39.29.78.38,1.19.21.94.39,2,.65,2.89,0,.13.15.08.19.25a4.36,4.36,0,0,0,.19.6,3.6,3.6,0,0,0,.18.59,15.41,15.41,0,0,1,.75,6.8c-.06.36-.48.88-.09,1.11a9.54,9.54,0,0,0,2.24-1.19,2.31,2.31,0,0,0-.65-1.28v-.42a3,3,0,0,1-.75-1.11,4.14,4.14,0,0,1-.47-1.44c-.18-.06-.31-.36-.37-.51a5.85,5.85,0,0,1-.19-.6,12.75,12.75,0,0,1,0-6.29c0-.14,0-.37,0-.51s.15,0,.19-.17a1.54,1.54,0,0,1,.18-.51s0-.12,0-.17.18,0,.19-.08,0-.36,0-.51a1.32,1.32,0,0,0,.19-.08c0-.06.08-.24.09-.26a8.56,8.56,0,0,1,.75-1.36c.44-.62.91-1.28,1.21-1.61s1.08-.59,1.13-1.19c.47-.25.67-.75,1.21-.94"/><path class="cls-1" d="M209.06,141.73c-1.21.16-1.61-1.14-2.43-1.62a34.53,34.53,0,0,1-1.4-3.82,27.7,27.7,0,0,1-1.59-4.51c-.23-.76-.68-1.82-.94-2.72s-.43-2-.65-3c0-.18-.14-.12-.19-.26-.12-.35-.06-.83-.19-1.19a5.72,5.72,0,0,1-.37-1.78c.44,0,.42-.3.93-.17v.59c1.73,6.68,3,13.74,6.83,18.53"/><path class="cls-1" d="M199.34,139.18c-1.17.77-1.89-.68-2.62-1.11,0-.51-.5-.51-.56-.93a11.38,11.38,0,0,1-2.06-2.38,11.32,11.32,0,0,1-.56-1.62c-.09-.25-.29-.48-.37-.76-.32-1.09-.41-2.29-.66-3.57,0-.18-.14-.12-.18-.26-.13-.38-.08-.88-.19-1.27-.06-.23-.1-.33-.19-.76,0-.24-.1-.27-.18-.68a21.42,21.42,0,0,1-.84-4.34c-.09-.21-.28-.31-.19-.68,1.07-.15,1.32.44,2.15.51.13.77.37,2,.56,2.81.27,1.22.22,2.62.47,3.73,0,.18.11.14.18.26.17,2.14,1,3.72,1.41,5.61.13,0,.11.14.18.25s.19.48.38.77.54.93.84,1.36a6,6,0,0,0,.75,1.1c.07.07.21.08.28.17a4.81,4.81,0,0,0,.56.6,10.74,10.74,0,0,1,.84,1.19"/><path class="cls-1" d="M192.89,75.87c.06.39.64.32.56.85-1-.07-1.66-1.08-2.24-1.7-.13-.13-.09-.25-.28-.51s-.18-.46-.38-.77A10.17,10.17,0,0,1,189.34,70c-.3-.18-.16-.76-.38-1,.45.31.49,1,.94,1.28v.42c.43.29.31,1.08.75,1.36a9.46,9.46,0,0,0,1.86,3.83Z"/><path class="cls-1" d="M190.93,103.83c.11,1.28,1,2.26,1.21,3.22-.58-.06-.7-.54-1.21-.68-.54-2.4-1.86-4.09-2-6.88a.75.75,0,0,1,.38.68,12.84,12.84,0,0,1,1.4,3.57c0,.07.09.07.19.09"/><path class="cls-1" d="M186,124c.6.76,2,2.23.75,3.14-2.55-2.64-3.23-7-3.27-11.9h.28c.59.52.26,1.78.37,2.81.26,2.3,1.26,4.07,1.87,6"/><path class="cls-1" d="M186.53,56.32c-.21,0-.13.16-.28.17-1.08-.33-1-2.12-1.68-3a7.75,7.75,0,0,0-1.12-1c.1-.36-.2-.34-.19-.6-2.67-3-7.69-3.89-13.27-4.25a1,1,0,0,1,.28-.51s.24,0,.28,0,0-.16,0-.17a2.09,2.09,0,0,0,.56,0s0-.16,0-.17a13.92,13.92,0,0,1,3.74.17,7.68,7.68,0,0,0,.75.17l.65.17.56.17c.81.25,2.25.74,3.18.94.49.54,1.37.68,2,1.1a9.94,9.94,0,0,1,.84.94,4.62,4.62,0,0,1,1.59,1.78c.32,0,.24.35.56.34.26.85,1,1.22,1,2.3a4.51,4.51,0,0,1,.56,1.44"/><path class="cls-1" d="M185.13,73.32v.85c-1,0-1.56-.7-2-1.28a3,3,0,0,1-.47-.76,12.42,12.42,0,0,1-.56-1.11,8,8,0,0,1-.56-1.19c-.08-.27,0-.59-.1-.85a18.32,18.32,0,0,1-.74-2.72h.28c.24.4.24,1,.65,1.28,0,.13,0,.29,0,.42s.16,0,.19.09c.18.41.23,1,.37,1.36,0,.07.17,0,.19.08a6.74,6.74,0,0,0,1.21,2.64,19.35,19.35,0,0,0,1.59,1.19"/><path class="cls-1" d="M183,102c.44.37,1.25.44.94,1.28-.41.27-.81,0-1.12-.17a2,2,0,0,1-.75-.43,10.11,10.11,0,0,1-.84-1.1c-.14-.16-.08-.18-.19-.43a16,16,0,0,1-1.22-3.31c0-.2,0-.41,0-.6s-.15-.12-.18-.25c-.08-.29.15-.69-.19-.85v-.85c0-.19-.18-.12-.19-.26-.06-1.65-.37-3.06-.56-4.59.54-.09.57.28.94.34,0,.91.39,1.46.37,2.38-.05.19.18.12.19.26a23.66,23.66,0,0,0,1.4,6.63,4.67,4.67,0,0,0,.75,1.1,4.59,4.59,0,0,0,.65.85"/><path class="cls-1" d="M176.44,68.47c.28.57,1.14,1.67.47,2.3-2.29-1.84-2.94-5.16-3.18-8.84.51-.1.48.29,1,.17.15.06,0,.41.28.34v.76a52,52,0,0,1,1.4,5.27"/><path class="cls-1" d="M176.63,119.72c-.67,0-.7-.56-.94-1s-.55-1.93-.84-2.55a28.52,28.52,0,0,1-.56-4.42c.21-.12.31-.34.75-.26.25.2.11.56.18.85s.18.22.19.34c.18,1.38-.08,2.73.19,4a13.84,13.84,0,0,0,.56,1.53,4.77,4.77,0,0,1,.47,1.53"/><path class="cls-1" d="M173.82,95.41c-.11,1.58,1.08,2,1,3.49-.4-.1-.46-.25-.75-.51s-.32-.15-.56-.6c0-.05,0-.19-.09-.25a7.46,7.46,0,0,1-.56-1.45c0-.09-.16-.06-.19-.17s0-.29,0-.42-.31-.67-.37-.94a17.16,17.16,0,0,1-.47-3.57c-.26-.22-.19-.74-.19-1.19.16,0,.18-.06.19-.17a21.32,21.32,0,0,1,1.4,4.08c.05.17.1.14.19.26a3,3,0,0,0,.37,1.44"/><path class="cls-1" d="M171.21,116.4c-.11.54.25.85.09,1.19-.85-.75-.81-2.33-1.22-3.48.6.56.72,1.55,1.13,2.29"/><path class="cls-1" d="M168.87,68.73c.33.65.95,1.16,1,1.78A3.45,3.45,0,0,1,168.12,68c-.12-.44-.06-1.18-.37-1.44,0-1.16-.73-1.67-.66-2.89.76,1.18.94,2.77,1.4,4.16,0,.09.18,0,.19.09s0,.29,0,.42.14,0,.19.09,0,.25,0,.34"/><path class="cls-1" d="M164.1,69.83A3.14,3.14,0,0,1,162.33,68a5,5,0,0,1-1.22-2c.22.06.39.16.38.43.43.17.45.61.65.93.58.91,1.35,1.69,2,2.55"/><path class="cls-1" d="M159.9,73.15c-.58.19-.93-.42-1.31-.77s-.93-.66-1-1.36c-.56-.4-.64-1.23-1.12-1.7,0-.15.11-.18.09-.34s.09,0,.1.09c.75.81,1.15,1.9,1.86,2.72a16.54,16.54,0,0,1,1.41,1.36"/><path class="cls-1" d="M152.61,72.64a19,19,0,0,1,2.61,2.46c-1.69-.13-2.2-1.33-2.8-2.46Z"/><path class="cls-1" d="M140.74,142.83c.45.85.64,2.56-.66,2.89a1.4,1.4,0,0,1-.46,1.45,1.85,1.85,0,0,1-1.59-.43c.07,1.21.87,3.5-.47,4-1.85-.08-.87-2.72-2.06-3.39-.8.48.12,2.53-1.12,2.63-.61,0-.55-.69-1-.85.12-.4-.31-.29-.18-.68a3.12,3.12,0,0,1-1.69.08c-.56-.62-.19-2-.09-2.8A7.37,7.37,0,0,0,131,145a3.35,3.35,0,0,0-1.41-3.31c-.16-4-2.59-6-2.61-10.12,0-.18-.18-.12-.19-.25a10.11,10.11,0,0,0-.75-3.66,7.38,7.38,0,0,1-.46-1,6.5,6.5,0,0,0-.75-1.52,4.6,4.6,0,0,0-.38-.77c-.22-.31-.39-1-.65-1.44a13.88,13.88,0,0,1-.56-1.36,23.43,23.43,0,0,1-.66-2.55,5.29,5.29,0,0,1-.18-.6c0-.17-.16-.12-.19-.25s0-.3,0-.43-.15-.07-.19-.17,0-.24,0-.34-.14-.07-.18-.17a5.71,5.71,0,0,0-.56-1.44c-.36-.47-.63-1.59-1-2.21.08-1.07-.28-1.8,0-2.55,0,0,.16,0,.19-.09.32-.74,1-.73,2.05-1,.12,0,.1-.13.28-.17a1.74,1.74,0,0,0,.66-.17.86.86,0,0,1,.65-.17,4.61,4.61,0,0,1,3.08-1.1c.21,0,.13.14.29.17s.49,0,.74.08a6.81,6.81,0,0,1,2.06,1.19,18.77,18.77,0,0,1,.84,4.59c0,.33.12.71.19,1.28A13.28,13.28,0,0,0,132,118c.08.21.27.36.37.59a7.1,7.1,0,0,0,.38.94,11.27,11.27,0,0,1,.84,2.89c0,.17.14.12.19.25.12.36.08.8.18,1.19a44.13,44.13,0,0,1,1.22,4.42,3.71,3.71,0,0,1,.56,1.44,26.67,26.67,0,0,1,1.4,2.89c0,.05.18.07.19.09.12.27.08.7.19,1a7.76,7.76,0,0,1,.37.85c.27,1.46.12,3,.47,4.59.5.88,1.39,2.08,2.05,3.14.1.16.29.34.38.51"/><path class="cls-1" d="M138.87,48.84a9.56,9.56,0,0,1,.18,4.76,6.22,6.22,0,0,1-.37.77,9.54,9.54,0,0,1-.84,1.78c0,.05-.23.1-.28.17a6.62,6.62,0,0,1-.94,1,7.27,7.27,0,0,1-1.21.94c-.53.33-1.15.82-1.87,1.19a6.74,6.74,0,0,1-4.39.42c-.06,0-.09-.14-.19-.17a10.35,10.35,0,0,1-1-.34,4.93,4.93,0,0,1-2.15-1.44c-.61-.81-1.27-1.95-2-2.81-.47-.58-1.15-.93-1.4-1.7-1-.77-1.59-2-2.71-2.72-.26-.12-.55,0-.94-.17-.1,0-.06-.15-.18-.17a13,13,0,0,0-3.18,0c-.2,0-.13.13-.28.17s-.44,0-.56,0-.08.14-.19.17a7.82,7.82,0,0,0-1.4.51c-.76.42-1.31,1.12-2.24,1.11a1.67,1.67,0,0,1,0-1.62s.24-.11.28-.17a38.5,38.5,0,0,1,4.48-4.84c.89-.1.88-1,1.78-1.11a4,4,0,0,1,1.87-1.27,14,14,0,0,1,3.36-1.62,2.2,2.2,0,0,0,1.22-.34,17.36,17.36,0,0,1,5.6-.17,24.64,24.64,0,0,1,2.81.77c.92.28,1.69.84,2.52,1,.63.66,1.4.81,2.06,1.61.13.16.2.49.37.68s.32.6.56.85a11.76,11.76,0,0,1,1.22,2.72M136.34,54a5.18,5.18,0,0,0,0-1.62c-.1-.48-.55-.83-.74-1.36a8.3,8.3,0,0,1-.28-2.12,1.49,1.49,0,0,1-.56-.94c-.65-.54-1.4-1.37-2-2,0,0-.23,0-.28,0a7.77,7.77,0,0,0-1.87-1.11c-.07,0-.06-.16-.09-.17s-.33,0-.47,0-.09-.12-.28-.17a18.8,18.8,0,0,0-7.94,0c-.68.33-1.4.49-2.06.77a10.75,10.75,0,0,1-2,.85c-.76.72-1.79,1.12-2.62,1.78-.18.15-.37.36-.56.51s-.39.34-.56.51a4.15,4.15,0,0,0-1,1.19c1.89-1.13,5.23-1.19,7.48-.34.49.52,1.23.59,1.77,1,.22.17.43.48.66.68.59.54,1,1.06,1.59,1.53,0,.26.22.5.37.68a40.33,40.33,0,0,0,3.55,4,5.85,5.85,0,0,0,3.65.59,5.71,5.71,0,0,0,4.2-4.33"/><path class="cls-1" d="M136.62,95c-.2.72-1.05,1-1.68,1.36-.34.18-.92.26-1.21.59-.93.18-1.81.4-2.71.6s-1.83.32-2.71.51-1.79.51-2.71.76c-1.89.51-3.86,1.1-5.8,1.62-.68.18-1.35.36-2,.51-.55.11-1.08.19-1.59.34a51.11,51.11,0,0,1-5.7,1.1c-.2,0-.14.14-.29.17s-.75-.14-.93.17c-5.71.81-11.38,1.87-17.1,2.55-.17,0-.23.14-.38.17s-.5-.06-.74,0-.27.15-.38.17c-.44.06-.92-.11-1.21.17-6.65.68-16,1.38-20-2-.51-.94.1-2.31.56-3.06a15.61,15.61,0,0,1,1.77-2.13c.5-.53,1.06-1.06,1.59-1.53.3-.27.63-.44.94-.68a15.17,15.17,0,0,1,1.4-1.1c.19-.13.58-.47.84-.68a34.93,34.93,0,0,0,3.27-3c.54-.58,1.16-1.12,1.78-1.78,1.31-1.42,3-2.67,4.29-4.25.67-.84,1.7-1.63,2.43-2.55.18-.22.31-.45.47-.68s.24-.47.47-.59c0-.47.16-.7.09-1.19.32,0,.33-.32.75-.26-.12-.31.25-.42.37-.59s.09-.48.38-.51c0-.85.56-1.19.84-1.79.56.11.56-.28,1.12-.17.17,0,0,.4.19.51s.17,0,.18,0a6.21,6.21,0,0,1,.19,1c.39,1.89-.16,4.25-.56,6.12-.07.31-.09.69-.19,1.19,0,.13-.17.21-.18.34a13.09,13.09,0,0,0,0,2.8c0,.16.13.17.18.34s0,.5,0,.68a8.44,8.44,0,0,0,1,2.38,6.57,6.57,0,0,0,.56,1c.07.08.15,0,.19.09s.42.5.75.76.48.47.65.6.24,0,.28,0a4.46,4.46,0,0,0,1.5.59s0,.15.09.17c.26.06.59.07.94.17s.38.07.84.17c.17,0,.14.15.28.17s.45-.05.65,0,.15.15.28.17.49,0,.75,0c.11,0,.24.15.37.17.51.07,1,0,1.59.09,1.35.17,2.7.55,4.3.68a56,56,0,0,0,8.79-.34c1.37-.14,2.83-.21,4-.34s2.41.07,3.17-.26c3.56-.22,6.72-.81,10-1.27.37-.32,1-.4,1.41-.68.62,0,1.46-.15,1.58.34"/><path class="cls-1" d="M134.29,51.73a7.79,7.79,0,0,1,0,2.64,5.7,5.7,0,0,1-.19.85s-.16,0-.19.08a4.77,4.77,0,0,1-1,1.53,5,5,0,0,1-1.78.34c-.58-.05-1-.45-1.5-.51a5.45,5.45,0,0,1-.84-2c.29-2.09,1.21-4.89.19-6.88a10,10,0,0,0-2-1.7,11.45,11.45,0,0,0-1.22-.09c0-.21-.44-.44-.28-.51a8.59,8.59,0,0,1,3.83.26c.08,0,.07.14.19.17s.27,0,.38,0,.18.29.28.34.33.09.46.17a7.06,7.06,0,0,1,2.43,2.29,7,7,0,0,1,.47,1.19s.16,0,.19.09-.07.37,0,.42c.23.19,0,.06.18.43a4.23,4.23,0,0,1,.38.93"/><path class="cls-1" d="M128.4,149a5.17,5.17,0,0,1,.56,2.89,1.81,1.81,0,0,1-1.77.17,17.84,17.84,0,0,0-1-2.72c-.91.07-1.16,1-2.15.68,0,.86.42,1.64,0,2.38-1.79.18-1.44-1.58-2.25-2.3-.42.07-.42.65-.74.85s-.72.08-1.22,0c-.17-.38-.25-.85-.75-.93-.3.83-.1,2.11-1,2.38-1.16-.14-1.26-1.24-2-1.79-.74.12-1.19.91-2,.85-.35,0-.53-.33-.93-.42a11.62,11.62,0,0,1-.47-2c0-.17-.14-.12-.19-.25-.19-.49-.16-1.24-.37-1.79-.06-.14-.16-.14-.19-.25-.33-1.31-.17-2.71-.47-4.08,0-.18-.11-.14-.18-.26a7.23,7.23,0,0,0-.38-1.61c0-.07-.18-.06-.18-.09s.05-.3,0-.42c-.11-.28-.34-.58-.47-.85a6,6,0,0,0-.66-1.19c-.19-.25-.23-.48-.46-.85-.09-.14-.3-.2-.38-.34-.24-.44-.36-1.2-.65-1.62,0-.3.07-.69-.19-.76a15.15,15.15,0,0,0-.19-1.87,5.41,5.41,0,0,1-.18-.68,5.67,5.67,0,0,0-.38-.85c-.19-.57-.25-1.14-.46-1.7,0-.09-.16-.07-.19-.17a4.28,4.28,0,0,0-.37-.94c-.14-.21-.2-.49-.38-.76s-.42-1-.65-1.53c0-.06-.18-.06-.19-.08s.06-.31,0-.43-.28-.33-.37-.51a20.75,20.75,0,0,1-1-2.72,3.53,3.53,0,0,1-.19-.68,4.24,4.24,0,0,1-.37-1.78c0-.19-.18-.12-.19-.26.16-1.26-1-3-.84-4.33a1.87,1.87,0,0,1,.47-1.19,2.83,2.83,0,0,1,.37-.09,5,5,0,0,1,.84-.42,3.4,3.4,0,0,0,2.15-.6c.28-.14.61-.21.84-.34s.17-.25.28-.34.24.05.28,0a1.38,1.38,0,0,1,.56-.34,4.43,4.43,0,0,1,3.46.51,16.1,16.1,0,0,1,1.69,4,5.67,5.67,0,0,1,.18.59c.05.23.09.29.19.68.06.23.08.29.19.68,0,.18.3.73.37,1,.26,1.13.38,2.34.65,3.49a4.6,4.6,0,0,1,.19.59c0,.17.15.12.19.26.11.37.07.85.19,1.27a26.34,26.34,0,0,0,.74,3.23c.09.21.15.3.28.59a3.13,3.13,0,0,1,.38.68c.16.71,0,1.23.18,1.79.67,1.21,1,2.73,1.59,4,.08,1.88.74,3.24,1,4.93.11.13.27.21.37.34a1,1,0,0,0-.18.85c2.7.39,4.37-.89,7.1-.76,1.75,1.58,1.61,5,2.24,7.73,0,.32-.29.3-.37.51"/><path class="cls-1" d="M127.75,22.24c-.34.55-.13,1.28-.19,1.87,0,.18-.15.17-.19.34s0,.47,0,.68-.15.14-.18.26c-.11.3,0,.72-.1,1a7.48,7.48,0,0,1-1.4,2.29,10.61,10.61,0,0,1-1.59,1.62A30.5,30.5,0,0,1,120.18,33s0,.14,0,.17-.23,0-.28,0-.2.19-.29.25c-1.16.78-2.32,1.58-3.45,2.3-.81.85-2,1.34-2.71,2.29h-.38a10.39,10.39,0,0,1-2.33,2c-.69,1.16-2.09,1.67-2.71,2.89a13.83,13.83,0,0,0-2.34,2.46c-.24.32-.33.77-.75.94,0,.75-.5,1.22-.65,2-.27,1.41.18,3.24-.19,4.25-.54.17-.54.07-1.12,0-.28-.49-.49-1.09-.84-1.62s-.84-1-1.22-1.53S100.3,48.34,100,48s-.22-.61-.38-.93-.27-.38-.37-.6c-.63-1.29-1.21-2.65-1.78-4-.73-1.74-1.73-3.43-2.43-5-.07-.18-.28-.41-.37-.68a6.86,6.86,0,0,1-.19-1.19c-.09-.57-.32-1.08-.37-1.53a21.79,21.79,0,0,1,1.59-11,20.41,20.41,0,0,1,3.64-5.52,10.51,10.51,0,0,1,2.25-2c.46-.28.84-.7,1.21-.93.14-.1.32-.09.47-.17.36-.22.66-.48,1-.68s.78-.39,1.21-.6a13.72,13.72,0,0,1,2.34-1c.09,0,0-.16.09-.17.21-.07.54,0,.75-.08a6.67,6.67,0,0,1,1.4-.34c.56,0,1.66.16,1.78-.17h2c0,.14,0,.15.19.17,1.52.2,3.1-.28,4.39.08a4.24,4.24,0,0,1,1.31.85s.23,0,.28,0c.3.15.43.3.66.43s.26.11.37.17a12.38,12.38,0,0,1,2.34,1.7,16.87,16.87,0,0,1,2.89,3.14,3.81,3.81,0,0,1,.85,1.95c.47.54.2,1.74.56,2.38m-2.34,3.57a11.14,11.14,0,0,0,.37-5.1c0-.22-.35-.35-.18-.59-.31-.51-.47-1-.75-1.53a7.42,7.42,0,0,1-.84-1.44,5.4,5.4,0,0,1-1.59-1.45H122a7.06,7.06,0,0,0-2.52-1.44,12.64,12.64,0,0,0-1.21-.43,15.48,15.48,0,0,0-2.15-.51,14.07,14.07,0,0,0-3.37,0c-.39.08-1.2.29-1.49.34-1,.16-1.55.36-2.34.43-.42.41-1.31.39-1.68.85-.81.08-1.14.6-1.87.76a20.61,20.61,0,0,0-3.09,2.13c-.35-.1-.26.2-.56.17a7.47,7.47,0,0,1-1.59,1.86,23.42,23.42,0,0,1-1.21,2c0,.08-.17.05-.19.09a7.81,7.81,0,0,0-.28.93c-.19.49-.59,1.39-.75,1.79s-.07.72-.18,1c0,.13-.16.07-.19.25s0,.47,0,.68-.17.07-.19.26a8.08,8.08,0,0,1,0,1.1c0,.14-.16.07-.18.26-.12,1.09.08,2.29,0,3.57,0,.13.23.06.18.25v1.36c0,.14.24.07.19.26v.85c.3.09.15.59.19.93a5,5,0,0,1,.37,1.19A9,9,0,0,0,99.15,40v.43c.32,0,.1.41.37.42.09.85.67,1.27.65,2.21a8.45,8.45,0,0,1,.66,1.7c.31.81.77,1.66,1.12,2.38.26.53.38.73.84.94a2,2,0,0,1,.38-1.19c.14-.29.06-.33.18-.51.28-.43.47-.94.75-1.28.11-.12.37-.2.47-.34s0-.25.09-.34a.93.93,0,0,1,.47-.34A2,2,0,0,1,106,43v-.34c.55-.54,1-1.11,1.59-1.62s1.12-1.07,1.68-1.61c.83-.23,1-1.11,1.87-1.27a12.34,12.34,0,0,1,3-2.21,10.19,10.19,0,0,1,2.15-1.62,37.92,37.92,0,0,0,4-3.06h.37a4,4,0,0,1,.94-.93c.11-.09.35-.09.46-.17a8.06,8.06,0,0,0,.85-.94c.28-.31.84-.73.93-1s.27-.26.37-.42c.3-.44.64-.91.85-1.28.12-.22,0-.59.37-.68"/><path class="cls-1" d="M116.44,17.82a9,9,0,0,1,.28,1.87,21.52,21.52,0,0,1-3,2.55,25.83,25.83,0,0,0-3.27,2.3h-.38a20.73,20.73,0,0,1-2.43,1.95c-.16.16-.22.43-.37.6s-.48.31-.66.51a3.51,3.51,0,0,0-.18.34c-.4.59-1.13,1.33-1.59,2a21.36,21.36,0,0,0-1.31,2.38s0,.22,0,.25-.18,0-.19,0c-.17.44-.22,1-.37,1.45a11.74,11.74,0,0,0-.66,2.38c0,.38,0,.79,0,1.19,0,.15-.15.25-.18.42a6.65,6.65,0,0,0,0,2c0,.18.14.12.18.25s0,.36,0,.51A10,10,0,0,1,102.6,42a36.64,36.64,0,0,1-.37,3.74c-.18.08-.29-.1-.37-.17-.32-.29-.32-.77-.56-1.45-.31-.85-.76-1.81-1.13-2.8-.06-.17-.29-.55-.37-.77s0-.24,0-.34a4.23,4.23,0,0,1-.37-.68c0-.1,0-.23,0-.33s-.18-.13-.19-.17c-.24-.78-.3-1.65-.47-2.38-.07-.33-.31-.67-.37-1,0-.18,0-.42,0-.6s-.17-.13-.19-.25.05-.46,0-.68a23.54,23.54,0,0,1-.37-6.38,17.81,17.81,0,0,1,1.77-5.61c.72-.44.87-1.29,1.41-1.87s1.16-.79,1.4-1.44c1-.22,1.1-1.26,2.15-1.44a4.83,4.83,0,0,1,2.24-1.45c0-.19.41-.08.37-.34.17,0,.47.09.38-.17,1.79-.36,3.25-1.15,5.33-.85a8.43,8.43,0,0,1,1.21.34c.06,0,0,.14.09.17.41.1.5.38.84.68a3.41,3.41,0,0,1,1.22,1.7l.19.42"/><path class="cls-1" d="M108.31,111.22c0,.33-.52.1-.75.17-.06-.34.51-.1.75-.17"/><path class="cls-1" d="M96.06,113.34a.59.59,0,0,1-.65.09c.16-.26.34-.1.65-.09"/><path class="cls-1" d="M90.64,43.91c.14.55.55,1,.38,1.62-1,.47-1.09-.43-1.59-.85-.19-.16-1.52-.89-2-1.19-.21-.14-.28,0-.65-.17-.1,0-.07-.15-.19-.17a9.88,9.88,0,0,0-2.43,0c-.17,0-.22.13-.37.17-.47.12-1,.08-1.4.17-.19,0-.14.13-.28.17s-.34,0-.56,0a12.74,12.74,0,0,1-3.37.51,9.64,9.64,0,0,1-1.49-.34,2,2,0,0,1-.57-.17c-.34-.18-1-.56-1.4-.77-.18-.08-.16-.29-.37-.51a2.53,2.53,0,0,1-.66-.76,6.23,6.23,0,0,1,.19-4.76c0-.07.19-.2.28-.34a7.72,7.72,0,0,1,1.87-1.87c.11-.07.34-.08.47-.17s.15-.19.28-.25a9.24,9.24,0,0,1,3.36-1c.15,0,.19,0,.19-.17.9.05,1.69-.07,2.43,0,.28,0,.79.15,1.31.25a8.19,8.19,0,0,1,1.21.34c.46.19.77.64,1.31.68a6.23,6.23,0,0,0,1.22,1.11,9.38,9.38,0,0,1,2,4.08c.38,1.42.48,3,.84,4.41m-1.31-1.27c0-.84-.24-1.48-.28-2.3a2.44,2.44,0,0,1-.37-1.27c-.29-.48-.49-1-.75-1.53a8.65,8.65,0,0,0-.84-1.44c-.14-.16-.46-.34-.65-.51a5,5,0,0,0-.94-.68,3.24,3.24,0,0,1-.84-.6,24.4,24.4,0,0,0-3.74-.59c-.5.47-1.15.4-1.87.59a5.33,5.33,0,0,0-.65.34,1,1,0,0,0-.47.26c-.11.07-.26.1-.37.17a5.07,5.07,0,0,0-2.62,3.82c.3.09.15.6.19.93.34.27.31.73.56,1,1.17,1.41,3.9,1.08,6.54,1,.15,0,.07-.21.28-.17,2.57-.17,5.43-.37,6.82.94"/><path class="cls-1" d="M88.4,52.58c.14,1.19,2.86,1.31,1.68,2.64-1.48,0-2.49-.84-3.74-.94a8.46,8.46,0,0,0-2.71.43c-.28.07-.65.1-.84.17a7.92,7.92,0,0,0-1,.68c-.19.11-.39.14-.56.25a16.82,16.82,0,0,0-2.33,1.79,17.48,17.48,0,0,0-2.72,3.74,21.92,21.92,0,0,1-4.39,5.43,5.39,5.39,0,0,1-.93.68,11.33,11.33,0,0,1-1,.6,6.41,6.41,0,0,0-1.22.34c-.2.12-.46.49-.56.51a4.71,4.71,0,0,0-1.21-.17c-.45,0-.61.27-1,.42-2.18.29-3.4-.58-4.77-1.19a4.68,4.68,0,0,1-2-1.78c0-.07-.17-.05-.19-.09s0-.24,0-.34-.18-.07-.18-.08c-.09-.26.16-.6-.19-.77a18.17,18.17,0,0,1,0-5.26,20.27,20.27,0,0,1,1.78-4.93c.3.1.07-.28.37-.17,0-.79.73-.93.84-1.62.75-.54,1.22-1.23,2-1.87a8.39,8.39,0,0,0,1.41-1.19c1.54-.66,2.74-1.71,4.58-2.12.46-.1,1.2,0,1.49-.26.46.06.92-.07,1.4,0,.17,0,.35.16.47.17,3.1.28,5.55-.13,7.85.51.16.05.27.12.47.17a3,3,0,0,1,.75.26c.19.1.24,0,.56.17.07,0,0,.15.09.17a9.05,9.05,0,0,1,1.68.59,5,5,0,0,0,.56.34,9.67,9.67,0,0,1,1.22.77c.93.61,1.38,1.29,2.43,1.95m-1.68.09c-.47-.29-.77-.77-1.22-1-.28-.15-.54-.29-.75-.43s-.16-.26-.28-.34-.28,0-.37,0-.14-.31-.19-.34-.52-.14-.75-.25-.44-.25-.65-.34c-.5-.23-1.37-.49-1.78-.68s-.41-.08-.74-.17c-.15,0-.09-.13-.28-.17a30.4,30.4,0,0,0-3.37-.43,24.67,24.67,0,0,0-7.1.43A19.05,19.05,0,0,0,62,53.26c-.9,2.5-2.09,5.09-1.59,8.58a1.64,1.64,0,0,1,.38,1c.35.08.24.48.37.68s.23.11.28.17.1.22.19.34a13.25,13.25,0,0,0,2,1.87,5.4,5.4,0,0,1,1,.34c.09,0,.06.16.09.17a8.55,8.55,0,0,0,4.49-.17c.12-.4.64-.39.93-.59a8,8,0,0,0,1.59-1.53c.23-.35.61-.69.66-1.11.3.11.07-.27.37-.17.36-1.11,1.23-1.77,1.59-2.88.41-.14.55-.52.65-.94.63-.36.79-1.15,1.5-1.44,0-.45.41-.48.47-.85,1-.49,1.48-1.54,2.71-1.87.28-.54,1.32-.75,1.77-1a8.21,8.21,0,0,1,2.9-.77c.15,0,.07-.21.28-.17a6.72,6.72,0,0,0,2.06-.25"/><path class="cls-1" d="M88.87,80.37c.19,0,.17.12.18.26-.08,0-.09-.09-.18-.09Z"/><path class="cls-1" d="M87.18,40.09a3.15,3.15,0,0,1-1.49-.43c-.1,0-.11-.29-.19-.34s-.29.06-.37,0S85,39,84.94,39s-.24,0-.28,0a5.17,5.17,0,0,0-1.4-.77c-.1,0-.29.05-.38,0s0-.14-.09-.17c-1.42-.3-2.51.36-4,.6-.21,0-.13.16-.28.16-.73.11-1-.18-1.59-.25A1.89,1.89,0,0,1,76.53,37c.38-.78,1.24-1.13,1.59-2,1.2-.24,2.26-.61,3.55-.77,2.83,1,5.24,2.43,5.51,5.78"/><path class="cls-1" d="M69.71,56.75c3.72.61,4.73-2.48,8.41-2.21-.22.58-.82.58-1.31.85-1.38.75-2.12,2.09-3.27,3.06a15.43,15.43,0,0,1-2.25,2.71,6.3,6.3,0,0,1-2.8,2.21c-.07.14-.3.13-.28.34-.94.17-1.88.77-3.36.51-3.07-.53-2.9-6.74-1-8.41a6.81,6.81,0,0,1,2.8-.34,3.44,3.44,0,0,1,1.22.43,2.07,2.07,0,0,1,.37.08c.07.05.12.31.19.34s.54.09.74.17a5.07,5.07,0,0,0,.57.26"/><path class="cls-1" d="M67.46,133c.71-1.41-.42-3.48-.65-4.93h.56c.69,1.58,1.88,5.28-.37,6.12-.14-.55.26-.78.46-1.19"/><path class="cls-1" d="M66.81,95.75a.5.5,0,0,1-.75.51c-.07-.45.34-.48.75-.51"/><path class="cls-1" d="M63.07,93.71h.28a4.64,4.64,0,0,1-.65,2c-.27,0-.24-.24-.38-.34a7.51,7.51,0,0,1,.75-1.62"/><path class="cls-1" d="M62,129.4c.24,3.32,1.77,8-.28,10.54-1-.14-.85.7-1.49.85-.43-.3-.08-1.29-.19-1.87.08-.33-.33-.21-.19-.59,2.53-2,.8-7.05,1.12-10.45.11,0,.17,0,.19.08.44.33.43,1.09.84,1.44"/><path class="cls-1" d="M59.24,115.81a7,7,0,0,1,.19,2c0,.19-.16.12-.19.26a7.29,7.29,0,0,1-.19,1.36s-.16,0-.19.08c-.12.42-.44,1.22-.93,1.19.32-1.63,1.2-3,.93-4.93,0-.18-.14-.11-.18-.25-.12-.35,0-.62-.19-.94a2.6,2.6,0,0,1-.19-.76,3.74,3.74,0,0,1-.18-1.62h.28a15.36,15.36,0,0,1,.84,3.66"/><path class="cls-1" d="M58.21,89.72c.14.09.23.24.37.34-.08,1.32-1.27,2.31-.74,3.65-.4.63-.63,1.42-1.78,1.36a1.13,1.13,0,0,1-.19-.34c-.09-.21-.25-.34,0-.59.05,0,.23,0,.28,0s.21-.49.38-.6.65-.09.75-.25c.08-1.39.71-2.3.93-3.57"/><path class="cls-1" d="M54.28,141.81c0,.49.1,1.11-.18,1.36-.4-.18-.33-.78-.66-1,.23-2.64-1-4.73-1.12-7.31.53.2.38,1,.75,1.36a15.11,15.11,0,0,0,1,4.85c0,.3-.08.69.18.76"/><path class="cls-1" d="M54.1,146.06c.33-.08.13.33.18.51-.44.37-.38,1.18-1.12,1.28.08-.82.77-1.07.94-1.79"/><path class="cls-1" d="M52.32,119.8c.22,2-.1,4.5-1.4,5.1-.09-1,.65-1.76.84-2.63.24-1.12-.27-2.18-.19-3.57v-.26h.19c.39.24.5.83.56,1.36"/><path class="cls-1" d="M50.45,91.08c.47.3.28,1,.28,1.53a10.85,10.85,0,0,1-.46,3.82c-.34,0-.76.38-.94.26,1.44-.9.85-3.65,1.12-5.61"/><path class="cls-1" d="M47.74,75.87c0,.29.38.21.38.51a4.62,4.62,0,0,1-2.81-.77,2.45,2.45,0,0,0-.56-.34c-.1,0-.29,0-.37,0s0-.14-.1-.17a7.85,7.85,0,0,1-.84,0c-.8-.23-1-.9-2-.76-1.49.18-2.18,1.37-3.37,2A3.9,3.9,0,0,1,36.62,78c-.09.71-.77.89-.84,1.62-.3-.11-.07.27-.37.17a1.22,1.22,0,0,1-.57.93,5.6,5.6,0,0,1-.46,1.36,1.09,1.09,0,0,0-.19.43c0,.21-.1.16-.19.51,0,.2-.09.23-.18.59,0,.17-.16.12-.19.25s0,.3,0,.43a7.22,7.22,0,0,0-.19,1.1c0,.18-.17.13-.18.26-.2,1.74.34,3.52-.57,4.84-.32-.35-.4-.93-.84-1.19A23.67,23.67,0,0,1,31.67,86c0-.19.14-.12.18-.26.1-.32-.05-.75,0-1.1,0-.18.16-.12.19-.26a3.87,3.87,0,0,0,0-.59A9.12,9.12,0,0,1,32.51,82c.08-.26.3-.54.37-.77a1.26,1.26,0,0,1,.19-.51c.15-.24.19-.57.37-.85a12.67,12.67,0,0,0,1-2.21c.3.1.07-.27.37-.17.07-.72.78-.88.85-1.61,1-.61,1.41-1.77,2.61-2.21A4.48,4.48,0,0,1,42,72.81a4.31,4.31,0,0,1,.84.17s0,.14.09.17c.26.06.16.08.38.17.41.18.6.12.84.34,1.07.94,1.82,2.21,3.64,2.21"/><path class="cls-1" d="M47.09,151.16a10.91,10.91,0,0,1-.19,4.08,4.74,4.74,0,0,1-2,3.06,20.91,20.91,0,0,0,1.87-7.14Z"/><path class="cls-1" d="M44.38,127.11c.09,1.75,0,3.33-.75,4.33-.28-.57.13-1.22.19-1.78,0-.4,0-.85,0-1.28a7.65,7.65,0,0,0,.18-1.86c0-.19-.13-.13-.18-.26s0-.3,0-.42-.16-.14-.19-.26c-.23-.91-.31-1.92-.47-2.8,0-.18-.14-.12-.18-.26s.05-.34,0-.51-.28-.26-.19-.68c.39.27.26.72.37,1.11a15.69,15.69,0,0,1,1,4.42c.06.08.21.08.19.25"/><path class="cls-1" d="M44.28,95.16c0,.71.26,1.65-.09,2.21a5.78,5.78,0,0,1-.28-2.55c.21,0,0,.49.37.34"/><path class="cls-1" d="M42.6,101.87A3.21,3.21,0,0,1,43.72,100a3.07,3.07,0,0,1-1.12,1.87"/><path class="cls-1" d="M38.77,155.41a25.2,25.2,0,0,1,.09,9.52,10.77,10.77,0,0,1-.84,2.21,4,4,0,0,1-1.77,2c-.6-.28-.19-1.49,0-1.87,0-.05,0-.23,0-.26s.17,0,.18,0c.1-.21.09-.49.19-.68s.16,0,.19-.08c.2-.68.6-1.38.84-2.3.06-.23.12-.43.19-.68s.07-.72.18-1.27c0-.14.17-.29.19-.43,0-.38-.07-.79,0-1.19,0-.11.17-.28.19-.42.14-1.37-.11-2.8,0-4.42,0-.11.16-.14.18-.26s.17,0,.19.09"/><path class="cls-1" d="M38.58,99.41a20,20,0,0,1,.19,5.26,3.53,3.53,0,0,1-.37.85c-.07.14-.09.44-.38.43a4.68,4.68,0,0,1-.18,1.78c-.39,0-.5.35-.85.17-.21-.68.39-1.33.85-1.7a.53.53,0,0,1,.37-.59c-.17-.27.15-.4.19-.6.22-1.14-.6-2.08-.38-3.39.91-1,0-2.66,0-3.91.4-.13,0,.47.38.34v1.1c-.06.19.18.12.18.26"/><path class="cls-1" d="M36.25,136.88A2.37,2.37,0,0,1,35,139.94c-.05-1.84,1.32-3.17.66-5-.09-.31.42-.07.37-.34-.33-2.14-.88-4.07-1-6.38.11,0,.17,0,.19.09.18,2.91,1.84,5.33,1,8.58"/><path class="cls-1" d="M32.79,104.85a9.71,9.71,0,0,1-.19,4.92c-.24.72-.57,2.29-1.59,2.3a1.52,1.52,0,0,1,.47-1A2.4,2.4,0,0,1,32,109.6c-.11-.74.37-1.42.47-2.21s-.19-1.92.28-2.54"/></svg>