<?xml version="1.0" encoding="utf-8"?>
<!-- Generator: Adobe Illustrator 22.0.1, SVG Export Plug-In . SVG Version: 6.00 Build 0)  -->
<svg version="1.1" id="Layer_1" xmlns="http://www.w3.org/2000/svg" xmlns:xlink="http://www.w3.org/1999/xlink" x="0px" y="0px"
	 viewBox="0 0 91 95.6" style="enable-background:new 0 0 91 95.6;" xml:space="preserve">
<style type="text/css">
	.st0{opacity:0.85;fill:#FFFFFF;}
	.st1{fill:#E6E6E6;}
	.st2{fill:url(#SVGID_1_);}
	.st3{fill:#FFFFFF;}
	.st4{fill:none;stroke:#BAE19E;stroke-width:4;stroke-miterlimit:10;}
	.st5{fill:url(#SVGID_2_);}
	.st6{fill:#FF0000;}
	.st7{fill:none;}
	.st8{fill:#3080B5;}
	.st9{fill:#5CAE52;}
	.st10{fill:#3CB3B8;}
	.st11{fill:#C23027;}
	.st12{fill:#485497;}
	.st13{fill:#59200C;}
	.st14{fill:#DA0F71;}
	.st15{fill:#231F20;}
	.st16{fill:#6E2775;}
	.st17{fill:#310035;}
	.st18{fill:url(#SVGID_3_);}
	.st19{fill:url(#SVGID_4_);}
	.st20{fill:url(#SVGID_5_);}
	.st21{fill:url(#SVGID_6_);}
	.st22{fill:url(#SVGID_7_);}
	.st23{fill:url(#SVGID_8_);}
	.st24{fill:url(#SVGID_9_);}
	.st25{fill:url(#SVGID_10_);}
	.st26{fill:url(#SVGID_11_);}
	.st27{fill:url(#SVGID_12_);}
	.st28{fill:url(#SVGID_13_);}
	.st29{fill:url(#SVGID_14_);}
	.st30{fill:url(#SVGID_15_);}
	.st31{fill:url(#SVGID_16_);}
	.st32{fill:url(#SVGID_17_);}
	.st33{fill:url(#SVGID_18_);}
	.st34{fill:url(#SVGID_19_);}
	.st35{fill:url(#SVGID_20_);}
	.st36{fill:url(#SVGID_21_);}
	.st37{fill:url(#SVGID_22_);}
	.st38{fill:url(#SVGID_23_);}
	.st39{fill:url(#SVGID_24_);}
	.st40{fill:url(#SVGID_25_);}
	.st41{fill:url(#SVGID_26_);}
	.st42{fill:url(#SVGID_27_);}
	.st43{fill:url(#SVGID_28_);}
	.st44{fill:url(#SVGID_29_);}
	.st45{fill:url(#SVGID_30_);}
	.st46{fill:url(#SVGID_31_);}
	.st47{fill:url(#SVGID_32_);}
	.st48{fill:url(#SVGID_33_);}
	.st49{fill:url(#SVGID_34_);}
	.st50{fill:url(#SVGID_35_);}
	.st51{fill:url(#SVGID_36_);}
	.st52{fill:url(#SVGID_37_);}
	.st53{fill:url(#SVGID_38_);}
	.st54{fill:url(#SVGID_39_);}
	.st55{fill:url(#SVGID_40_);}
	.st56{fill:url(#SVGID_41_);}
	.st57{fill:url(#SVGID_42_);}
	.st58{fill:url(#SVGID_43_);}
	.st59{fill:url(#SVGID_44_);}
	.st60{fill:url(#SVGID_45_);}
	.st61{fill:url(#SVGID_46_);}
	.st62{fill:url(#SVGID_47_);}
	.st63{fill:url(#SVGID_48_);}
	.st64{fill:url(#SVGID_49_);}
	.st65{fill:url(#SVGID_50_);}
	.st66{fill:url(#SVGID_51_);}
	.st67{fill:url(#SVGID_52_);}
	.st68{fill:url(#SVGID_53_);}
	.st69{fill:url(#SVGID_54_);}
	.st70{fill:url(#SVGID_55_);}
	.st71{fill:url(#SVGID_56_);}
	.st72{fill:url(#SVGID_57_);}
	.st73{fill:url(#SVGID_58_);}
	.st74{fill:url(#SVGID_59_);}
	.st75{fill:url(#SVGID_60_);}
	.st76{fill:url(#SVGID_61_);}
	.st77{fill:url(#SVGID_62_);}
	.st78{fill:url(#SVGID_63_);}
	.st79{fill:url(#SVGID_64_);}
	.st80{fill:url(#SVGID_65_);}
	.st81{fill:url(#SVGID_66_);}
	.st82{fill:url(#SVGID_67_);}
	.st83{fill:url(#SVGID_68_);}
	.st84{fill:url(#SVGID_69_);}
	.st85{fill:url(#SVGID_70_);}
	.st86{fill:url(#SVGID_71_);}
	.st87{fill:url(#SVGID_72_);}
	.st88{fill:url(#SVGID_73_);}
	.st89{fill:url(#SVGID_74_);}
	.st90{fill:url(#SVGID_75_);}
	.st91{fill:url(#SVGID_76_);}
	.st92{fill:url(#SVGID_77_);}
	.st93{fill:url(#SVGID_78_);}
	.st94{fill:url(#SVGID_79_);}
	.st95{fill:url(#SVGID_80_);}
	.st96{fill:url(#SVGID_81_);}
	.st97{fill:url(#SVGID_82_);}
	.st98{fill:url(#SVGID_83_);}
	.st99{fill:url(#SVGID_84_);}
	.st100{fill:url(#SVGID_85_);}
	.st101{fill:url(#SVGID_86_);}
	.st102{fill:url(#SVGID_87_);}
	.st103{fill:url(#SVGID_88_);}
	.st104{fill:url(#SVGID_89_);}
	.st105{fill:url(#SVGID_90_);}
	.st106{fill:url(#SVGID_91_);}
	.st107{fill:url(#SVGID_92_);}
	.st108{fill:url(#SVGID_93_);}
	.st109{fill:url(#SVGID_94_);}
	.st110{fill:url(#SVGID_95_);}
	.st111{fill:url(#SVGID_96_);}
	.st112{fill:url(#SVGID_97_);}
	.st113{fill:url(#SVGID_98_);}
	.st114{fill:url(#SVGID_99_);}
	.st115{fill:url(#SVGID_100_);}
	.st116{fill:url(#SVGID_101_);}
	.st117{fill:url(#SVGID_102_);}
	.st118{fill:url(#SVGID_103_);}
	.st119{fill:#E5675E;}
	.st120{fill:url(#SVGID_104_);}
	.st121{fill:url(#SVGID_105_);}
	.st122{fill:url(#SVGID_106_);}
	.st123{fill:url(#SVGID_107_);}
	.st124{fill:url(#SVGID_108_);}
	.st125{fill:url(#SVGID_109_);}
	.st126{fill:url(#SVGID_110_);}
	.st127{fill:url(#SVGID_111_);}
	.st128{fill:url(#SVGID_112_);}
	.st129{fill:url(#SVGID_113_);}
	.st130{fill:url(#SVGID_114_);}
	.st131{fill:url(#SVGID_115_);}
	.st132{fill:url(#SVGID_116_);}
	.st133{fill:url(#SVGID_117_);}
	.st134{fill:url(#SVGID_118_);}
	.st135{fill:url(#SVGID_119_);}
	.st136{fill:url(#SVGID_120_);}
	.st137{fill:url(#SVGID_121_);}
	.st138{fill:url(#SVGID_122_);}
	.st139{fill:url(#SVGID_123_);}
	.st140{fill:url(#SVGID_124_);}
	.st141{fill:url(#SVGID_125_);}
	.st142{fill:url(#SVGID_126_);}
	.st143{fill:url(#SVGID_127_);}
	.st144{fill:url(#SVGID_128_);}
	.st145{fill:url(#SVGID_129_);}
	.st146{fill:url(#SVGID_130_);}
	.st147{fill:url(#SVGID_131_);}
	.st148{fill:url(#SVGID_132_);}
	.st149{fill:url(#SVGID_133_);}
	.st150{fill:url(#SVGID_134_);}
	.st151{fill:url(#SVGID_135_);}
	.st152{fill:url(#SVGID_136_);}
	.st153{fill:url(#SVGID_137_);}
	.st154{fill:url(#SVGID_138_);}
	.st155{fill:url(#SVGID_139_);}
	.st156{fill:url(#SVGID_140_);}
	.st157{fill:url(#SVGID_141_);}
	.st158{fill:url(#SVGID_142_);}
	.st159{fill:url(#SVGID_143_);}
	.st160{fill:url(#SVGID_144_);}
	.st161{fill:url(#SVGID_145_);}
	.st162{fill:url(#SVGID_146_);}
	.st163{fill:url(#SVGID_147_);}
	.st164{fill:url(#SVGID_148_);}
	.st165{fill:url(#SVGID_149_);}
	.st166{fill:url(#SVGID_150_);}
	.st167{fill:url(#SVGID_151_);}
	.st168{fill:url(#SVGID_152_);}
	.st169{fill:url(#SVGID_153_);}
	.st170{fill:url(#SVGID_154_);}
	.st171{fill:url(#SVGID_155_);}
	.st172{fill:url(#SVGID_156_);}
	.st173{fill:url(#SVGID_157_);}
	.st174{fill:url(#SVGID_158_);}
	.st175{fill:url(#SVGID_159_);}
	.st176{fill:url(#SVGID_160_);}
	.st177{fill:url(#SVGID_161_);}
	.st178{fill:url(#SVGID_162_);}
	.st179{fill:url(#SVGID_163_);}
	.st180{fill:url(#SVGID_164_);}
	.st181{fill:url(#SVGID_165_);}
	.st182{fill:url(#SVGID_166_);}
	.st183{fill:url(#SVGID_167_);}
	.st184{fill:url(#SVGID_168_);}
	.st185{fill:url(#SVGID_169_);}
	.st186{fill:url(#SVGID_170_);}
	.st187{fill:url(#SVGID_171_);}
	.st188{fill:url(#SVGID_172_);}
	.st189{fill:url(#SVGID_173_);}
	.st190{fill:url(#SVGID_174_);}
	.st191{fill:url(#SVGID_175_);}
	.st192{fill:url(#SVGID_176_);}
	.st193{fill:url(#SVGID_177_);}
	.st194{fill:url(#SVGID_178_);}
	.st195{fill:url(#SVGID_179_);}
	.st196{fill:url(#SVGID_180_);}
	.st197{fill:url(#SVGID_181_);}
	.st198{fill:url(#SVGID_182_);}
	.st199{fill:url(#SVGID_183_);}
	.st200{fill:url(#SVGID_184_);}
	.st201{fill:url(#SVGID_185_);}
	.st202{fill:url(#SVGID_186_);}
	.st203{fill:url(#SVGID_187_);}
	.st204{fill:url(#SVGID_188_);}
	.st205{fill:url(#SVGID_189_);}
	.st206{fill:url(#SVGID_190_);}
	.st207{fill:url(#SVGID_191_);}
	.st208{fill:url(#SVGID_192_);}
	.st209{fill:url(#SVGID_193_);}
	.st210{fill:url(#SVGID_194_);}
	.st211{fill:url(#SVGID_195_);}
	.st212{fill:url(#SVGID_196_);}
	.st213{fill:url(#SVGID_197_);}
	.st214{fill:url(#SVGID_198_);}
	.st215{fill:url(#SVGID_199_);}
	.st216{fill:url(#SVGID_200_);}
	.st217{fill:url(#SVGID_201_);}
	.st218{fill:url(#SVGID_202_);}
	.st219{fill:url(#SVGID_203_);}
	.st220{fill:url(#SVGID_204_);}
	.st221{fill:url(#SVGID_205_);}
	.st222{fill:url(#SVGID_206_);}
	.st223{fill:url(#SVGID_207_);}
	.st224{fill:url(#SVGID_208_);}
	.st225{fill:url(#SVGID_209_);}
	.st226{fill:url(#SVGID_210_);}
	.st227{fill:url(#SVGID_211_);}
	.st228{fill:url(#SVGID_212_);}
	.st229{fill:url(#SVGID_213_);}
	.st230{fill:url(#SVGID_214_);}
	.st231{fill:url(#SVGID_215_);}
	.st232{fill:url(#SVGID_216_);}
	.st233{fill:url(#SVGID_217_);}
	.st234{fill:url(#SVGID_218_);}
	.st235{fill:url(#SVGID_219_);}
	.st236{fill:url(#SVGID_220_);}
	.st237{fill:url(#SVGID_221_);}
	.st238{fill:url(#SVGID_222_);}
	.st239{fill:url(#SVGID_223_);}
	.st240{fill:url(#SVGID_224_);}
	.st241{fill:url(#SVGID_225_);}
	.st242{fill:url(#SVGID_226_);}
	.st243{fill:url(#SVGID_227_);}
	.st244{fill:url(#SVGID_228_);}
	.st245{fill:url(#SVGID_229_);}
	.st246{fill:url(#SVGID_230_);}
	.st247{fill:url(#SVGID_231_);}
	.st248{fill:url(#SVGID_232_);}
	.st249{fill:url(#SVGID_233_);}
	.st250{fill:url(#SVGID_234_);}
	.st251{fill:url(#SVGID_235_);}
	.st252{fill:url(#SVGID_236_);}
	.st253{fill:url(#SVGID_237_);}
	.st254{fill:url(#SVGID_238_);}
	.st255{fill:url(#SVGID_239_);}
	.st256{fill:url(#SVGID_240_);}
	.st257{fill:url(#SVGID_241_);}
	.st258{fill:url(#SVGID_242_);}
	.st259{fill:url(#SVGID_243_);}
	.st260{fill:url(#SVGID_244_);}
	.st261{fill:url(#SVGID_245_);}
	.st262{fill:url(#SVGID_246_);}
	.st263{fill:url(#SVGID_247_);}
	.st264{fill:url(#SVGID_248_);}
	.st265{fill:url(#SVGID_249_);}
	.st266{fill:url(#SVGID_250_);}
	.st267{fill:url(#SVGID_251_);}
	.st268{fill:url(#SVGID_252_);}
	.st269{fill:url(#SVGID_253_);}
	.st270{fill:url(#SVGID_254_);}
	.st271{fill:url(#SVGID_255_);}
	.st272{fill:url(#SVGID_256_);}
	.st273{fill:url(#SVGID_257_);}
	.st274{fill:url(#SVGID_258_);}
	.st275{fill:url(#SVGID_259_);}
	.st276{fill:url(#SVGID_260_);}
	.st277{fill:url(#SVGID_261_);}
	.st278{fill:url(#SVGID_262_);}
	.st279{fill:url(#SVGID_263_);}
	.st280{fill:url(#SVGID_264_);}
	.st281{fill:url(#SVGID_265_);}
	.st282{fill:url(#SVGID_266_);}
	.st283{fill:url(#SVGID_267_);}
	.st284{fill:url(#SVGID_268_);}
	.st285{fill:url(#SVGID_269_);}
	.st286{fill:url(#SVGID_270_);}
	.st287{fill:url(#SVGID_271_);}
	.st288{fill:url(#SVGID_272_);}
	.st289{fill:url(#SVGID_273_);}
	.st290{fill:url(#SVGID_274_);}
	.st291{fill:url(#SVGID_275_);}
	.st292{fill:url(#SVGID_276_);}
	.st293{fill:url(#SVGID_277_);}
	.st294{fill:url(#SVGID_278_);}
	.st295{fill:url(#SVGID_279_);}
	.st296{fill:url(#SVGID_280_);}
	.st297{fill:url(#SVGID_281_);}
	.st298{fill:url(#SVGID_282_);}
	.st299{fill:url(#SVGID_283_);}
	.st300{fill:#198E9F;}
	.st301{fill:url(#SVGID_284_);}
	.st302{fill:url(#SVGID_285_);}
	.st303{fill:url(#SVGID_286_);}
	.st304{fill:url(#SVGID_287_);}
	.st305{fill:url(#SVGID_288_);}
	.st306{fill:url(#SVGID_289_);}
	.st307{fill:url(#SVGID_290_);}
	.st308{fill:url(#SVGID_291_);}
	.st309{fill:url(#SVGID_292_);}
	.st310{fill:url(#SVGID_293_);}
	.st311{fill:url(#SVGID_294_);}
	.st312{fill:url(#SVGID_295_);}
	.st313{fill:url(#SVGID_296_);}
	.st314{fill:url(#SVGID_297_);}
	.st315{fill:url(#SVGID_298_);}
	.st316{fill:url(#SVGID_299_);}
	.st317{fill:url(#SVGID_300_);}
	.st318{fill:url(#SVGID_301_);}
	.st319{fill:url(#SVGID_302_);}
	.st320{fill:url(#SVGID_303_);}
	.st321{fill:url(#SVGID_304_);}
	.st322{fill:url(#SVGID_305_);}
	.st323{fill:url(#SVGID_306_);}
	.st324{fill:url(#SVGID_307_);}
	.st325{fill:url(#SVGID_308_);}
	.st326{fill:url(#SVGID_309_);}
	.st327{fill:url(#SVGID_310_);}
	.st328{fill:url(#SVGID_311_);}
	.st329{fill:url(#SVGID_312_);}
	.st330{fill:url(#SVGID_313_);}
	.st331{fill:url(#SVGID_314_);}
	.st332{fill:url(#SVGID_315_);}
	.st333{fill:url(#SVGID_316_);}
	.st334{fill:url(#SVGID_317_);}
	.st335{fill:url(#SVGID_318_);}
	.st336{fill:url(#SVGID_319_);}
	.st337{fill:url(#SVGID_320_);}
	.st338{fill:url(#SVGID_321_);}
	.st339{fill:url(#SVGID_322_);}
	.st340{fill:url(#SVGID_323_);}
	.st341{fill:url(#SVGID_324_);}
	.st342{fill:url(#SVGID_325_);}
	.st343{fill:url(#SVGID_326_);}
	.st344{fill:url(#SVGID_327_);}
	.st345{fill:url(#SVGID_328_);}
	.st346{fill:url(#SVGID_329_);}
	.st347{fill:url(#SVGID_330_);}
	.st348{fill:url(#SVGID_331_);}
	.st349{fill:url(#SVGID_332_);}
	.st350{fill:url(#SVGID_333_);}
	.st351{fill:url(#SVGID_334_);}
	.st352{fill:url(#SVGID_335_);}
	.st353{fill:url(#SVGID_336_);}
	.st354{fill:url(#SVGID_337_);}
	.st355{fill:url(#SVGID_338_);}
	.st356{fill:url(#SVGID_339_);}
	.st357{fill:url(#SVGID_340_);}
	.st358{fill:url(#SVGID_341_);}
	.st359{fill:url(#SVGID_342_);}
	.st360{fill:url(#SVGID_343_);}
	.st361{fill:url(#SVGID_344_);}
	.st362{fill:url(#SVGID_345_);}
	.st363{fill:url(#SVGID_346_);}
	.st364{fill:url(#SVGID_347_);}
	.st365{fill:url(#SVGID_348_);}
	.st366{fill:url(#SVGID_349_);}
	.st367{fill:url(#SVGID_350_);}
	.st368{fill:url(#SVGID_351_);}
	.st369{fill:url(#SVGID_352_);}
	.st370{fill:url(#SVGID_353_);}
	.st371{fill:url(#SVGID_354_);}
	.st372{fill:url(#SVGID_355_);}
	.st373{fill:url(#SVGID_356_);}
	.st374{fill:url(#SVGID_357_);}
	.st375{fill:url(#SVGID_358_);}
	.st376{fill:url(#SVGID_359_);}
	.st377{fill:url(#SVGID_360_);}
	.st378{fill:url(#SVGID_361_);}
	.st379{fill:url(#SVGID_362_);}
	.st380{fill:url(#SVGID_363_);}
	.st381{fill:url(#SVGID_364_);}
	.st382{fill:url(#SVGID_365_);}
	.st383{fill:url(#SVGID_366_);}
	.st384{fill:url(#SVGID_367_);}
	.st385{fill:url(#SVGID_368_);}
	.st386{fill:url(#SVGID_369_);}
	.st387{fill:url(#SVGID_370_);}
	.st388{fill:url(#SVGID_371_);}
	.st389{fill:url(#SVGID_372_);}
	.st390{fill:url(#SVGID_373_);}
	.st391{fill:url(#SVGID_374_);}
	.st392{fill:url(#SVGID_375_);}
	.st393{fill:url(#SVGID_376_);}
	.st394{fill:url(#SVGID_377_);}
	.st395{fill:url(#SVGID_378_);}
	.st396{fill:url(#SVGID_379_);}
	.st397{fill:url(#SVGID_380_);}
	.st398{fill:url(#SVGID_381_);}
	.st399{fill:url(#SVGID_382_);}
	.st400{fill:url(#SVGID_383_);}
	.st401{fill:url(#SVGID_384_);}
	.st402{fill:url(#SVGID_385_);}
	.st403{fill:url(#SVGID_386_);}
	.st404{fill:url(#SVGID_387_);}
	.st405{fill:url(#SVGID_388_);}
	.st406{fill:url(#SVGID_389_);}
	.st407{fill:url(#SVGID_390_);}
	.st408{fill:url(#SVGID_391_);}
	.st409{fill:url(#SVGID_392_);}
	.st410{fill:url(#SVGID_393_);}
	.st411{fill:url(#SVGID_394_);}
	.st412{fill:url(#SVGID_395_);}
	.st413{fill:url(#SVGID_396_);}
	.st414{fill:url(#SVGID_397_);}
	.st415{fill:url(#SVGID_398_);}
	.st416{fill:url(#SVGID_399_);}
	.st417{fill:url(#SVGID_400_);}
	.st418{fill:url(#SVGID_401_);}
	.st419{fill:url(#SVGID_402_);}
	.st420{fill:url(#SVGID_403_);}
	.st421{fill:url(#SVGID_404_);}
	.st422{fill:url(#SVGID_405_);}
	.st423{fill:url(#SVGID_406_);}
	.st424{fill:url(#SVGID_407_);}
	.st425{fill:url(#SVGID_408_);}
	.st426{fill:url(#SVGID_409_);}
	.st427{fill:url(#SVGID_410_);}
	.st428{fill:url(#SVGID_411_);}
	.st429{fill:url(#SVGID_412_);}
	.st430{fill:url(#SVGID_413_);}
	.st431{fill:url(#SVGID_414_);}
	.st432{fill:url(#SVGID_415_);}
	.st433{fill:url(#SVGID_416_);}
	.st434{fill:url(#SVGID_417_);}
	.st435{fill:url(#SVGID_418_);}
	.st436{fill:url(#SVGID_419_);}
	.st437{fill:url(#SVGID_420_);}
	.st438{fill:url(#SVGID_421_);}
	.st439{fill:url(#SVGID_422_);}
	.st440{fill:url(#SVGID_423_);}
	.st441{fill:url(#SVGID_424_);}
	.st442{fill:url(#SVGID_425_);}
	.st443{fill:url(#SVGID_426_);}
	.st444{fill:url(#SVGID_427_);}
	.st445{fill:url(#SVGID_428_);}
	.st446{fill:url(#SVGID_429_);}
	.st447{fill:url(#SVGID_430_);}
	.st448{fill:url(#SVGID_431_);}
	.st449{fill:url(#SVGID_432_);}
	.st450{fill:url(#SVGID_433_);}
	.st451{fill:url(#SVGID_434_);}
	.st452{fill:url(#SVGID_435_);}
	.st453{fill:url(#SVGID_436_);}
	.st454{fill:url(#SVGID_437_);}
	.st455{fill:url(#SVGID_438_);}
	.st456{fill:url(#SVGID_439_);}
	.st457{fill:url(#SVGID_440_);}
	.st458{fill:url(#SVGID_441_);}
	.st459{fill:url(#SVGID_442_);}
	.st460{fill:url(#SVGID_443_);}
	.st461{fill:url(#SVGID_444_);}
	.st462{fill:url(#SVGID_445_);}
	.st463{fill:url(#SVGID_446_);}
	.st464{fill:url(#SVGID_447_);}
	.st465{fill:url(#SVGID_448_);}
	.st466{fill:url(#SVGID_449_);}
	.st467{fill:url(#SVGID_450_);}
	.st468{fill:url(#SVGID_451_);}
	.st469{fill:url(#SVGID_452_);}
	.st470{fill:url(#SVGID_453_);}
	.st471{fill:url(#SVGID_454_);}
	.st472{fill:url(#SVGID_455_);}
	.st473{fill:url(#SVGID_456_);}
	.st474{fill:url(#SVGID_457_);}
	.st475{fill:url(#SVGID_458_);}
	.st476{fill:url(#SVGID_459_);}
	.st477{fill:url(#SVGID_460_);}
	.st478{fill:url(#SVGID_461_);}
	.st479{fill:url(#SVGID_462_);}
	.st480{fill:url(#SVGID_463_);}
	.st481{fill:url(#SVGID_464_);}
	.st482{fill:url(#SVGID_465_);}
	.st483{fill:url(#SVGID_466_);}
	.st484{fill:url(#SVGID_467_);}
	.st485{fill:url(#SVGID_468_);}
	.st486{fill:url(#SVGID_469_);}
	.st487{fill:url(#SVGID_470_);}
	.st488{fill:url(#SVGID_471_);}
	.st489{fill:url(#SVGID_472_);}
	.st490{fill:url(#SVGID_473_);}
	.st491{fill:url(#SVGID_474_);}
	.st492{fill:url(#SVGID_475_);}
	.st493{fill:url(#SVGID_476_);}
	.st494{fill:url(#SVGID_477_);}
	.st495{fill:url(#SVGID_478_);}
	.st496{fill:url(#SVGID_479_);}
	.st497{fill:url(#SVGID_480_);}
	.st498{fill:url(#SVGID_481_);}
	.st499{fill:url(#SVGID_482_);}
	.st500{fill:url(#SVGID_483_);}
	.st501{fill:url(#SVGID_484_);}
	.st502{fill:url(#SVGID_485_);}
	.st503{fill:url(#SVGID_486_);}
	.st504{fill:url(#SVGID_487_);}
	.st505{fill:url(#SVGID_488_);}
	.st506{fill:url(#SVGID_489_);}
	.st507{fill:url(#SVGID_490_);}
	.st508{fill:url(#SVGID_491_);}
	.st509{fill:url(#SVGID_492_);}
	.st510{fill:url(#SVGID_493_);}
	.st511{fill:url(#SVGID_494_);}
	.st512{fill:url(#SVGID_495_);}
	.st513{fill:url(#SVGID_496_);}
	.st514{fill:url(#SVGID_497_);}
	.st515{fill:url(#SVGID_498_);}
	.st516{fill:url(#SVGID_499_);}
	.st517{fill:url(#SVGID_500_);}
	.st518{fill:url(#SVGID_501_);}
	.st519{fill:url(#SVGID_502_);}
	.st520{fill:url(#SVGID_503_);}
	.st521{fill:url(#SVGID_504_);}
	.st522{fill:url(#SVGID_505_);}
	.st523{fill:url(#SVGID_506_);}
	.st524{fill:url(#SVGID_507_);}
	.st525{fill:url(#SVGID_508_);}
	.st526{fill:url(#SVGID_509_);}
	.st527{fill:url(#SVGID_510_);}
	.st528{fill:url(#SVGID_511_);}
	.st529{fill:url(#SVGID_512_);}
	.st530{fill:url(#SVGID_513_);}
	.st531{fill:url(#SVGID_514_);}
	.st532{fill:url(#SVGID_515_);}
	.st533{fill:url(#SVGID_516_);}
	.st534{fill:url(#SVGID_517_);}
	.st535{fill:url(#SVGID_518_);}
	.st536{fill:url(#SVGID_519_);}
	.st537{fill:url(#SVGID_520_);}
	.st538{fill:url(#SVGID_521_);}
	.st539{fill:url(#SVGID_522_);}
	.st540{fill:url(#SVGID_523_);}
	.st541{fill:url(#SVGID_524_);}
	.st542{fill:url(#SVGID_525_);}
	.st543{fill:url(#SVGID_526_);}
	.st544{fill:url(#SVGID_527_);}
	.st545{fill:url(#SVGID_528_);}
	.st546{fill:url(#SVGID_529_);}
	.st547{fill:url(#SVGID_530_);}
	.st548{fill:url(#SVGID_531_);}
	.st549{fill:url(#SVGID_532_);}
	.st550{fill:url(#SVGID_533_);}
	.st551{fill:url(#SVGID_534_);}
	.st552{fill:url(#SVGID_535_);}
	.st553{fill:url(#SVGID_536_);}
	.st554{fill:url(#SVGID_537_);}
	.st555{fill:url(#SVGID_538_);}
	.st556{fill:url(#SVGID_539_);}
	.st557{fill:#B35291;}
	.st558{fill:none;stroke:#000000;stroke-miterlimit:10;}
	.st559{fill:#75B343;stroke:#4F4C93;stroke-miterlimit:10;}
	.st560{fill:#75B343;}
	.st561{fill:url(#SVGID_540_);}
	.st562{fill:url(#SVGID_541_);}
	.st563{fill:url(#SVGID_542_);}
	.st564{fill:url(#SVGID_543_);}
	.st565{fill:url(#SVGID_544_);}
	.st566{fill:url(#SVGID_545_);}
	.st567{fill:url(#SVGID_546_);}
	.st568{fill:url(#SVGID_547_);}
	.st569{fill:url(#SVGID_548_);}
	.st570{fill:url(#SVGID_549_);}
	.st571{fill:url(#SVGID_550_);}
	.st572{fill:url(#SVGID_551_);}
	.st573{fill:url(#SVGID_552_);}
	.st574{fill:url(#SVGID_553_);}
	.st575{fill:url(#SVGID_554_);}
	.st576{fill:url(#SVGID_555_);}
	.st577{fill:url(#SVGID_556_);}
	.st578{fill:#EFA43B;}
	.st579{fill:none;stroke:#FFFFFF;stroke-width:0;stroke-linecap:round;stroke-linejoin:round;}
	.st580{fill:#FF00FF;}
	.st581{fill-rule:evenodd;clip-rule:evenodd;fill:#FFFFFF;}
	.st582{fill-rule:evenodd;clip-rule:evenodd;}
	.st583{fill-rule:evenodd;clip-rule:evenodd;fill:none;}
	.st584{fill:#0F964A;}
	.st585{fill:#C22027;}
	.st586{fill:#FFFFFF;stroke:#FFFFFF;stroke-width:3;stroke-miterlimit:10;}
	.st587{fill:#E01C24;}
	.st588{fill:none;stroke:#7ABD43;stroke-miterlimit:10;}
	.st589{fill-rule:evenodd;clip-rule:evenodd;fill:none;stroke:#7ABD43;stroke-miterlimit:10;}
	.st590{fill:#7ABD43;}
	.st591{fill:#8D8D8D;}
	.st592{fill:#7AC443;}
	.st593{fill-rule:evenodd;clip-rule:evenodd;fill:#7ABD43;}
	.st594{fill:#BAE19E;}
	.st595{fill:#A7A7A7;}
	.st596{fill:#BAE19E;stroke:#7ABD43;stroke-miterlimit:10;}
	.st597{fill:#4D4D4D;}
	.st598{opacity:0.8;fill:#BAE19E;}
	.st599{fill:#666666;}
	.st600{fill:url(#SVGID_557_);}
	.st601{fill:url(#SVGID_558_);}
	.st602{fill:#808080;}
	.st603{fill:url(#SVGID_559_);}
	.st604{fill:url(#SVGID_560_);}
	.st605{fill:#C0C0C0;}
	.st606{fill:url(#SVGID_561_);}
</style>
<g>
	<path class="st3" d="M91,71.3v0.1h0c-0.4,0.4-1.5,0.1-2-0.1c0,0-0.1,0-0.2,0c0,0,0-0.1,0-0.1c-0.8-0.3-2.1-0.7-2.6-1.1
		c-0.2-0.2-0.4-0.5-0.7-0.6c-1.4-0.1-2.7-0.4-3.8-0.8c-0.2-0.1-0.4-0.1-0.5-0.2c-0.2-0.1-0.3-0.3-0.5-0.3c-0.1-0.1-0.2-0.2-0.3-0.4
		c-0.1-0.1-0.1-0.2-0.1-0.2c-0.1-0.1-0.2-0.1-0.3-0.2c-0.2-0.1-0.6-0.2-0.8-0.4c0-0.2-0.1-0.2-0.2-0.3c-0.1-0.5-0.4-0.9-0.5-1.5
		c-1.1-0.7-2.4-1.2-3-2.4c-0.1-0.2-0.1-0.4-0.2-0.6c-0.2-0.5-0.4-1-0.6-1.6c-0.7-0.2-1.3-0.6-1.9-0.8c-0.3-0.1-0.6-0.3-0.9-0.4
		c-0.3-0.2-0.5-0.3-0.8-0.6c-0.1-0.1,0-0.1-0.1-0.2c0-0.1-0.1-0.1-0.2-0.1c-0.1-0.1-0.2-0.2-0.3-0.3c-0.1-0.1-0.3-0.3-0.5-0.3
		c-0.4-0.1-0.8-0.5-1.1-0.6c-0.3-0.4-0.7-0.6-0.9-1.1c-0.1-0.3,0-0.6-0.2-0.8c-0.2,0-0.3-0.1-0.5,0c0.1,2.4,0.4,4.6,0.6,7
		c0.1,0.2,0.1,0.5,0.2,0.8c0,0.2,0.1,0.5,0.1,0.8c0,0.3-0.1,0.6-0.1,0.9c0,0.4,0.1,0.9,0.2,1.4c0.1,0.9,0.2,1.8,0.3,2.7
		c0,0.5,0,1,0.1,1.4c0,0.1,0.1,0.2,0.1,0.4c0,0.2,0,0.5,0,0.7c0,0.1,0.1,0.2,0.1,0.4c0,0.2,0,0.4,0,0.6c0,0.2,0.1,0.3,0.1,0.5
		c0.1,1.3,0.1,2.8,0.3,4.1c0,0.4,0.1,0.9,0.2,1.3c0,0.5,0,1,0,1.5c0,0.1,0.1,0.3,0.1,0.4c0,0.3,0,0.6,0,0.8c0,0.1,0.1,0.3,0.1,0.4
		c0,0.3,0,0.6,0,0.9c0,0.2,0.1,0.4,0.1,0.6c0,0.3-0.1,0.6-0.2,1c0.1,0.1,0.2-0.1,0.2,0.2c0,0.2-0.1,0.3-0.2,0.4c0.2,0.3,0,0.7,0,1
		c0,0.1,0,0.3,0,0.4c0,0-0.1,0-0.1,0.1c-0.1,0.2,0,0.5-0.1,0.8c-0.1,0.2-0.1,0.4-0.3,0.6c-0.2,0.2-0.4,0.6-0.6,0.9
		c-0.2,0.1-0.4,0.2-0.4,0.4c-0.2,0.1-0.4,0.2-0.6,0.3c-0.1,0.1-0.2,0.2-0.3,0.2c-0.1,0-0.2,0.1-0.3,0.1c-0.1,0.1-0.3,0.1-0.4,0.2
		c-0.2,0.1-0.2,0.3-0.4,0.4c-0.4,0.1-0.8,0.3-1.1,0.4c-0.4,0.1-0.7,0.2-1.1,0.4c-1.9,0.3-3.7,0.9-5.6,1.2c-0.3,0-0.5,0-0.8,0.1
		c0,0-0.1,0.1-0.1,0.1c-1.5,0.3-3.2,0.6-4.8,0.9c-0.9,0.2-1.9,0.3-2.8,0.6c-0.9,0.3-1.9,0.3-2.9,0.5c-0.5,0.1-0.9,0.2-1.4,0.3
		c-1,0.2-2,0.2-3,0.4c-0.4,0.1-0.7,0.1-1.1,0.1c-0.1,0-0.2,0.1-0.3,0.1c-0.4,0-0.8,0-1.2,0c-0.3,0-0.6-0.2-0.8,0h-0.2
		c0-0.3-0.1,0.1-0.3,0c-0.2-0.1-0.4-0.2-0.7-0.3c-0.1,0-0.2,0-0.2,0c0,0,0-0.1-0.1-0.1c-0.1,0-0.2,0-0.2,0c-0.1,0-0.3-0.1-0.5-0.2
		c-0.2,0-0.4-0.1-0.6-0.2c-0.2-0.1-0.4-0.1-0.4-0.1c0,0-0.1-0.1-0.1-0.1c-0.1-0.1-0.3-0.1-0.4-0.2c-0.1-0.1-0.2-0.3-0.4-0.4
		c-0.1-0.1-0.2-0.1-0.2-0.2c0,0,0-0.1,0-0.1c-0.1-0.1-0.3-0.2-0.4-0.4c-0.1-0.1-0.1-0.3-0.2-0.4c-0.2-0.3-0.5-0.6-0.7-0.9
		c-0.1-0.1-0.2-0.2-0.4-0.4c-0.2-1-0.7-1.6-1.1-2.5c-0.7-1.2-1.2-2.6-1.9-3.9c0-0.9-0.5-1.5-0.8-2.3c-0.1,0.2,0.1,0.4,0.1,0.6
		c0.1,0.2,0.1,0.4,0.2,0.5c-0.1,0.1-0.1,0-0.2-0.1c0-0.1,0-0.1-0.1-0.2c0-0.1,0-0.1-0.1-0.2c-0.1-0.2-0.3-0.7-0.3-1
		c0.1,0.1,0.2,0.2,0.2,0.4c0-0.3-0.1-0.7-0.3-0.9c-0.1-0.2-0.2-0.4-0.4-0.7c-0.2-0.5-0.4-0.9-0.6-1.4c-0.1-0.2-0.2-0.5-0.3-0.7
		c0-0.1-0.1-0.1-0.2-0.2c-0.1-0.3-0.1-0.7-0.4-0.9v-0.2c-0.4-0.9-0.8-1.8-1.1-2.7c-0.1,0,0-0.2-0.2-0.2v-0.2
		c-0.2-0.4-0.4-0.9-0.6-1.4c-0.2-0.6-0.5-1.2-0.8-1.8c0-0.1,0-0.1-0.1-0.2c-0.1-0.1-0.2-0.4-0.3-0.6c-0.3-0.6-0.4-1.1-0.7-1.7
		c-0.1-0.3-0.3-0.5-0.4-0.8c-0.2-0.3-0.5-0.6-0.5-1.1c-0.2-0.4-0.3-1-0.7-1.3c0.1-0.2-0.1-0.2-0.1-0.4c-0.4,1-1.3,1.4-2.2,1.9
		c0,0.6-0.2,1.1-0.4,1.5c-0.1,0.3-0.3,0.5-0.4,0.8c-0.2,0.2-0.4,0.4-0.6,0.6c-0.2,0.2-0.4,0.4-0.6,0.5c-0.5,0.4-1,0.7-1.5,1.1
		c-0.1,0-0.1,0.1-0.2,0.1c-0.2,1.8-1.6,2.5-2.5,3.7c-0.2,0.3-0.4,0.7-0.8,0.9c0,0.1-0.2,0.1-0.2,0.3c-0.2,0-0.1,0.1-0.3,0.1
		c0,0.1,0,0.1-0.1,0.3c-0.2,0.3-0.3,0.8-0.5,1.1c0,0.1,0,0.3-0.2,0.3c-0.5,1.5-1.9,2.1-2.8,3.1c-0.1,0.3-0.2,0.5-0.4,0.7
		c-0.1,0.6-0.4,1.2-0.7,1.7c-0.1,0.3-0.4,0.7-0.8,0.9c-0.7,0.6-1.2,1.6-2.2,1.9c-0.4,0.4-1.1,0.5-1.5,0.9H2.4c0-0.5,0.2-0.9,0.4-1.2
		c0.1-0.2,0.3-0.8,0.4-1.1c0-0.1,0-0.2,0-0.2c0,0,0.1,0,0.1-0.1c0-0.1,0-0.2,0-0.3c0-0.1,0.1-0.1,0.1-0.1c0-0.1,0-0.3,0-0.4
		c0-0.1,0.1-0.1,0.1-0.1c0-0.2,0-0.3,0-0.5c0-0.1,0.1-0.1,0.1-0.1c0-0.3,0-0.6,0-0.9c0-0.1,0.1-0.1,0.1-0.1c0.2-0.8-0.1-1.8,0-2.7
		c0.1-0.1-0.1,0-0.1-0.2v-2.3c0-0.1-0.1-0.1-0.1-0.1c0-0.5,0.1-1.2-0.1-1.6c0-0.9-0.2-1.6-0.4-2.3c-0.7,0.2-0.8,1-1.7,1
		c0-0.1,0-0.1-0.1-0.1c0-0.7,0.4-1.1,0.7-1.6C2,71,2,70.8,2.1,70.6c0.6-1.7,0.6-4,0.6-6.3c0.1-0.1-0.1,0-0.1-0.2
		c-0.1-2.5-0.7-4.4-1-6.7c-0.6,0.1-0.9,0.6-1.4,0.8c-0.7-0.6-0.1-1.1,0.2-1.8c0-0.1,0-0.3,0.1-0.4c0,0,0.1,0,0.1,0c0,0,0-0.1,0-0.1
		c0.1-0.3,0.3-1.1,0.4-1.5C1,54.1,1,53.8,1,53.3c0-0.1,0.1-0.1,0.1-0.1c0-0.3,0-0.6,0-0.9c0-0.1,0.1-0.1,0.1-0.2
		c0.1-0.5,0-1.1,0-1.6v-1.6c0-0.1-0.1-0.1-0.1-0.1C1.2,47.5,0.9,46.2,1,45c0-0.1,0.1-0.1,0.1-0.1c0.1-0.3,0-0.8,0-1.2
		c0-0.4,0-0.9,0-1.2c0-0.1-0.1-0.2-0.1-0.3c-0.1-0.3,0-0.7,0-1C1,41,1.1,41,1.1,40.9c0-0.2,0-0.4,0-0.5c0-0.1,0.1-0.1,0.1-0.1
		c0-0.1,0-0.2,0-0.4c0-0.1,0.1-0.1,0.1-0.1c0-0.1,0-0.2,0-0.3c0-0.1,0.1-0.1,0.1-0.1c0.1-0.4,0.1-0.8,0.2-1.2c0.1-0.5,0.3-1,0.4-1.4
		c0,0,0-0.1,0-0.1c0,0,0.1,0,0.1,0c0.1-0.2,0.1-0.5,0.2-0.8c0.1-0.4,0.3-0.7,0.4-1.1c0.1-0.1,0.2-0.3,0.2-0.4
		c0.1-0.1,0.2-0.3,0.2-0.4c0.2-0.1,0.3-0.3,0.4-0.6c0.2,0,0.1-0.2,0.2-0.3c0.1-0.1,0.2-0.1,0.3-0.2C4,32.7,4,32.6,4,32.6
		c0.1-0.1,0.2-0.2,0.3-0.3c0.2-0.2,0.3-0.2,0.5-0.4c0.1-0.1,0.3-0.3,0.5-0.4c0.2-0.1,0.4-0.1,0.5-0.3c0.3-0.2,0.9-0.5,1.5-0.5
		c0.1,0,0.1-0.1,0.1-0.1h0.4c0.1,0.1,0-0.1,0.2-0.1c0.4,0,0.9,0,1.2,0.1c0.1,0,0.1,0.1,0.1,0.1c0.2,0,0.4,0,0.5,0
		c0.2,0,0.5,0.2,0.8,0.3c0,0,0,0.1,0,0.1c0,0,0.1,0,0.2,0c0.1,0,0,0,0.2,0.1c0,0,0.3,0.2,0.4,0.3c0.5,0,0.7,0.4,1.1,0.5
		c0.6,0.7,1.6,0.9,2.4,1.5c0.2,0.2,0.5,0.4,0.8,0.5c0.4,0.5,1.1,0.8,1.6,1.3c0.5,0.2,0.9,0.4,1.2,0.8c0.5,0.1,0.8,0.4,1.2,0.6
		c0.4,0.2,0.8,0.4,1.1,0.7c0.2,0.1,0.3,0,0.5,0.1c0.1,0,0.3,0.1,0.6,0.1c0.4,0.1,0.7,0.4,1.1,0.5c-0.1,0.1,0.1,0,0.1,0.2
		c0.4,0.1,0.6,0.2,1.1,0.3c0.1,0,0.1,0.1,0.2,0.1c1,0.1,2.2-0.1,3.3-0.1c0.1-0.2,0.3-0.3,0.4-0.5c0.1-0.3,0.3-0.5,0.5-0.7v-0.2
		c0.4-0.3,0.5-0.9,0.9-1.2c0.2-0.5,0.4-0.9,0.6-1.4c0.1-0.1,0.1-0.3,0.2-0.4c0-0.6,0.3-1.2,0.4-1.8c0.1-1.3-0.3-2.6-0.3-3.9
		c-0.4-0.4-0.8-0.7-0.9-1.4c-0.4,0.2-1,0.1-1.4,0c-0.1-0.5-0.4-0.7-0.4-1.4c0.6-0.4,1.1-0.9,1.9-1.1c0.7-0.4,1.7-0.5,2.5-0.8
		c0.1,0,0.2,0,0.4-0.1c0,0,0-0.1,0.1-0.1c0.1,0,0.2,0,0.2,0c0,0,0-0.1,0.1-0.1c0.1,0,0.2,0,0.2,0c0,0,0-0.1,0.1-0.1
		c0.1,0,0.2,0,0.2,0c0,0,0-0.1,0.1-0.1c0.4-0.1,0.8-0.1,1.1-0.2c0.2,0,0.3-0.1,0.5-0.2c0.1,0,0.2,0,0.3,0c0.2,0,0.3-0.1,0.5-0.2
		c0.1,0,0.2,0,0.3,0c0.1,0,0.3-0.1,0.5-0.2c0.7,0,1.1-0.2,1.8-0.2c0.1,0,0.1-0.1,0.1-0.1c0.2,0,0.5,0,0.6-0.1h0.6
		c0.1,0,0.1-0.1,0.1-0.1c1,0,2.1-0.1,2.9,0.1c0.2,0.6,0.8,1.3,0.4,2c-0.3,0.1-0.6,0.4-0.8,0.6c0,1.8,0.5,3.3,1.4,4.3
		c0.2,0.3,0.4,0.5,0.7,0.8c0.2,0.2,0.3,0.3,0.5,0.5c0.2,0.2,0.4,0.3,0.6,0.4c0.3,0.2,0.5,0.5,0.9,0.7c0,0,0.1,0.1,0.2,0.1
		c0.1,0.1,0.3,0.2,0.5,0.3c0,0,0.1,0,0.1,0c0.1,0,0.1,0,0.2,0.1c0.2,0.1,0.9,0.4,1.2,0.4c0.3,0,0.6-0.3,1-0.3
		c0.5-0.4,1.1-0.5,1.6-0.9c0.4-0.3,0.9-0.8,1.3-1.1c0.3-0.3,0.6-0.5,0.8-0.8c0.1-0.1,0.2-0.2,0.3-0.4c0.3-0.1,0.3-0.4,0.5-0.5
		c0.1-0.2,0.3-0.5,0.4-0.7c0.1-0.1,0.1-0.1,0.2-0.3c0,0,0.1,0,0.1,0c0.2-0.3,0.4-0.7,0.6-1c0.1-0.1,0.2-0.2,0.3-0.3
		c0.1-0.2,0.2-0.3,0.3-0.4c0.1-0.1,0.2-0.2,0.3-0.3c0.1-0.2,0.2-0.4,0.4-0.6c0.1-0.1,0.2-0.1,0.2-0.2c0.1-0.1,0.1-0.2,0.2-0.2
		c-0.1-0.2,0.1-0.2,0.2-0.3c0.1-0.1,0.1-0.2,0.1-0.3c0.2-0.4,0.5-0.7,0.8-1.1c0.1-0.2,0.3-0.3,0.4-0.5c0.1-0.1,0.1-0.2,0.1-0.3
		c0.2-0.2,0.5-0.3,0.6-0.7c0.6-0.6,1.2-1.2,1.8-1.8c0.3,0,0.4-0.3,0.6-0.4c0.2-0.2,0.4-0.3,0.5-0.5h0.1c0.6-0.5,1.3-1,2.1-1.4
		c0.2-0.2,0.5-0.3,0.7-0.4c0.2,0,0.2,0.1,0.3,0.1c1.9-0.6,4.6-1,7-0.7c0.2,0,0.4,0.1,0.6,0.1c0.1,0,0.1,0,0.4,0.1
		c0.1,0,0.1,0,0.4,0.1c0.1,0,0.1,0.1,0.1,0.1c0.4,0.1,0.8,0.2,1.1,0.4c0.1,0.1,0.4,0.2,0.6,0.3c0.3,0.2,0.6,0.4,0.8,0.8
		c0.4,0.3,0.5,0.7,0.9,1c0.6,1,1.3,1.9,1.5,3.2c0.1,0,0.1,0.1,0.1,0.2c0,0.1,0,0.2,0.1,0.4c0,0,0.1,0,0.1,0.1c0,0.2,0.1,0.4,0.1,0.6
		c0.2,0.7,0.3,1.4,0.4,2.3c-0.1,0.1,0.1,0,0.1,0.2c-0.1,0.5,0.1,0.8,0.1,1.3c0,0.1,0.1,0.1,0.1,0.1c0.2,1.6,0.4,3.1,0.8,4.4
		c0.1,0.4,0.2,0.8,0.4,1.1c0.1,0.2,0.2,0.3,0.3,0.5c0,0,0,0.1,0,0.1c0,0.1,0,0,0.1,0.2c0.1,0.2,0.3,0.6,0.3,0.9
		c0.1,0,0.1,0.1,0.1,0.1c0,0,0,0.1,0,0.1c0,0,0.1,0,0.1,0c0.1,0.1,0,0.3,0.1,0.5c0,0,0.1,0,0.1,0.1c0.1,0.2,0.1,0.4,0.2,0.7
		c0.1,0.2,0.1,0.6,0.3,0.8c0.2,0.3,0.6,0.2,0.6,0.6c-0.5,0.3-1.4,0.3-2.2,0.3c0,0.2-0.1,0.7,0.1,0.9c-0.1,0.4,0.1,0.6,0.1,1
		c0,0.1,0.1,0.1,0.1,0.1v0.4c0,0.1,0.1,0.1,0.1,0.1c0,0.6,0.3,1.3,0.4,1.9c0,0.3,0,0.6,0.1,0.8c0.1,1,0.5,1.6,0.7,2.5
		c0.2,0.3,0.2,0.7,0.4,0.9c0.1,0.4,0.3,0.9,0.5,1.3c0,0,0,0.1,0,0.1c0.1,0.1,0.3,0.4,0.4,0.6c0.1,0.2,0.1,0.5,0.2,0.7
		c0.1,0.3,0.3,0.5,0.4,0.8c0.2,0.4,0.3,0.8,0.5,1.2c0,0,0,0.1,0,0.1c0,0,0.1,0,0.1,0c0,0,0,0.1,0,0.1c0,0,0.1,0,0.1,0
		c0.1,0.1,0,0.3,0.1,0.4c0,0,0.1,0.1,0.1,0.1c0.2,0.4,0.5,0.8,0.7,1.2c0,0.3,0,0.3,0,0.6c-0.2,0-0.2,0.2-0.4,0.2
		c-0.1,0.4,0.1,0.6,0.1,1.1c0.2,0.1,0,0.6,0.2,0.7c0,0.6,0.1,1.2,0.3,1.8c0.1,0.5,0.1,1.1,0.2,1.4c0.1,0.5,0.2,1.1,0.3,1.6
		c0,0.1,0.1,0.1,0.1,0.1c0.1,0.2,0,0.4,0.1,0.7c0,0.2,0.1,0.4,0.2,0.5c0.1,0.4,0.1,0.7,0.2,1.1c0.1,0.4,0.3,0.9,0.4,1.3
		c0.1,0.3,0.2,0.6,0.3,0.9c0,0.1,0.1,0.3,0.2,0.5c0,0.1,0.1,0.2,0.2,0.4c0.1,0.3,0.1,0.7,0.2,1.1c0.2,0.6,0.5,1.2,0.8,1.9
		c0.1,0.3,0.3,0.6,0.4,0.9c0.2,0.4,0.3,0.8,0.5,1.1C90.8,70.7,90.9,71,91,71.3 M87.4,69.1c0.6,0,0.8,0.4,1.5,0.3
		c-0.2-0.7-0.5-1.4-0.8-2c-0.3-0.8-0.5-1.6-0.8-2.3c-0.3-1.3-0.8-2.4-1.1-3.8c-0.2-0.3-0.2-0.7-0.3-1c0-0.1-0.1,0-0.1-0.1
		c-0.2-0.7-0.3-1.4-0.4-2.3c-0.2-0.3-0.1-0.8-0.3-1.1c-0.1-1.1-0.3-2-0.4-3.1c-0.5-0.2-1.1-0.3-1.7-0.4c-0.1-0.2-0.4-0.2-0.6-0.3
		c0,0.2-0.1,0.1-0.1,0.1c-0.1,0,0,0.1,0,0.1c-0.2,0.1-0.4,0.2-0.7,0.3c-1.3,0.2-3.1-0.4-3.8-1v-0.3c-0.2-0.2-0.4-0.6-0.7-0.8
		c-1,0.5-2-0.3-2.8-0.5c-0.6-0.7-1.1-1.6-1.7-2.3c-0.2,0.2-0.5,0.2-0.8,0.3c-0.1-0.2-0.3,0-0.4-0.1c0,0,0-0.1,0-0.1c0,0-0.1,0-0.1,0
		c-0.1,0-0.1-0.1-0.2-0.1c0,0-0.1,0-0.1,0c-0.1-0.1-0.2-0.3-0.4-0.3c0-0.2-0.2-0.1-0.2-0.4c-0.2,0-0.3-0.3-0.5-0.3
		c-0.2,0-0.3,0.1-0.4,0.1c-0.5,0.1-1.1-0.1-1.4-0.3c-0.2-0.1-0.4-0.2-0.5-0.3c-0.2-0.1-0.4-0.2-0.5-0.4c-0.1-0.1-0.3-0.3-0.4-0.3
		c0.2,2.7,0.5,5.4,0.8,8.2c0.2,0.1,0.3,0.2,0.5,0.3c-0.1-1.5-0.6-3-0.2-4.5c0.4,0.2,0.6,0.8,0.6,1.4c0,0.1,0.1,0,0.1,0.1
		c0.1,1.1,0.3,2.2,0.5,3.3c0.3,0.8,0.6,1.6,1.5,1.8c-0.2-1.8-0.9-3.3-0.7-5.4c0.2,0,0.2,0.1,0.5,0.1c0.3,0.6,0.3,1.6,0.5,2.3
		c0.1,1.1,0.3,2.1,0.5,3.1c0.2,0,0.2,0.2,0.3,0.4c0.3,0.2,0.5,0.5,0.7,0.8c0.1,0.1,0.3,0.2,0.4,0.3c0.1,0.1,0.3,0.3,0.4,0.4
		c0.2,0.1,0.5,0.1,0.7,0.4c0.3,0,0.5,0.1,0.7,0.1C74.2,58.5,74,57.8,74,57c0-0.1-0.1,0-0.1-0.1c0-1-0.5-1.9-0.2-2.8
		c0.1,0.3,0,0.8,0.2,1c0-0.6-0.2-1.3,0.2-1.5c0.5,0.3,0.2,1.1,0.3,1.8c0.1,0.6,0.1,1.3,0.2,1.9c0.1,1,0.8,1.7,0.8,2.7
		c0.1,0.2,0.2,0.4,0.3,0.7c0.8,0.8,1.3,1.8,2.3,2.4c0-2.2-0.5-4.6-0.6-6.8c0.1-0.1,0.3,0,0.4,0.1c0.1,0.3,0.2,0.8,0.1,1.2
		c0.2,0.3,0.3,0.7,0.4,1.1c0.1,0.7,0.2,1.5,0.3,2.3c0,0.1,0.1,0,0.1,0.1c0,0.4,0.2,0.7,0.2,1.1c0.1,0.2,0.2,0.4,0.2,0.7
		c0.1,0.3,0.3,0.6,0.3,1c0.1,0.1,0.2,0.3,0.2,0.4c0.1,0.2,0.2,0.4,0.3,0.6c0.1,0.2,0.2,0.5,0.2,0.7c0.3,0.3,0.4,0.6,0.6,0.9
		c0.3,0.4,0.8,0.6,1.1,1c0.3,0.1,0.7,0.3,0.9,0.4c0.2,0.1,0.4,0.2,0.6,0.3c0.6,0,0.9,0.3,1.5,0.3c-0.1-0.4-0.2-0.7-0.4-0.9
		c-0.4-1.3-0.9-2.4-1.1-3.8c-0.2-0.3-0.2-0.6-0.3-0.9c0-0.1-0.1-0.3-0.1-0.3c-0.1-0.5-0.2-1-0.3-1.5c0-0.1-0.1,0-0.1-0.1
		c-0.3-1.2-0.4-2.5-0.2-3.9c0.2-0.2,0.3-0.5,0.5-0.5c0.2,1.1,0.3,2.2,0.4,3.5c0,0.1,0.1,0,0.1,0.1c0,0.6,0.2,0.9,0.3,1.5
		c0.2,0.4,0.3,0.9,0.4,1.4c0.1,0.2,0.2,0.3,0.2,0.6c0.1,0.1,0.2,0.3,0.2,0.4c0.2,0.5,0.4,1,0.6,1.4c0.3,0.9,0.5,1.9,1,2.6
		c0.1-0.1,0.1,0.1,0.2,0.2c0.2,0.1,0.4,0.2,0.5,0.3c0,0,0.1,0.1,0.1,0.1c0.1,0.1,0.3,0.1,0.4,0.2C87.2,69,87.2,69.1,87.4,69.1
		 M84,52.4c0.4,0.2,0.6,0.2,1,0.3c-1.7-2.2-2.7-5.2-3.8-8.1c-0.1-0.1-0.2-0.1-0.3-0.2c-0.3-2.5-0.8-4.9-1-7.5
		c-0.4-0.3-0.9-0.5-1.1-1.1c-2.1,0.2-3.5-0.6-4.5-1.6c-1.2,0.3-2.3-0.2-2.9-0.8c-0.8-0.1-2,0.3-2.3-0.2c0,0-0.1,0-0.1,0
		c-0.1-0.1-0.3-0.2-0.4-0.3c-0.1-0.1-0.1-0.1-0.2-0.1c0,0-0.1,0-0.2-0.1c-0.1-0.1-0.1-0.2-0.2-0.3c-0.1,0-0.2,0-0.3-0.1
		c-0.1-0.1-0.1-0.2-0.2-0.2c0,0,0-0.1,0,0c-0.3,0.3-0.9,0.3-1.4,0.4c-0.3,0.7-1,1.2-2,1.2c-0.5,0.7-1.6,1.2-2.9,0.9
		c0,0.2-0.1,0.3-0.1,0.5c0.5,0.3,1,0.6,1.6,0.8C62.8,36,63,36,63.1,36c0.1,0.1,0.3,0.1,0.4,0.2c0,0,0,0.1,0.1,0.2c0.1,0,0.1,0,0.2,0
		c0.3,0.2,0.4,0.5,0.8,0.7v0.2c0.4,0.2,0.4,0.8,0.8,1.1c0.1,0.5,0.5,1,0.7,1.5c0,0.1,0,0.2,0,0.4c0,0.1,0.1,0,0.1,0.1
		c0.2,1,0.2,2.1,0.4,3.2c0.1,0,0.2,0.1,0.3,0.1c0,0.5,0.5,0.7,0.7,1.1c0,0.1,0,0.2,0.1,0.3c0,0,0.2,0.2,0,0.2
		c-0.5-0.2-0.8-0.6-0.9-1.2c-0.2,0.1,0-0.2-0.2-0.1c0,0.4,0.1,0.8,0.1,1.2c0.8,0.6,1.4,1.5,2.8,1.5c-0.5-1.3-1.1-2.4-1.2-4
		c-0.1,0-0.1-0.3-0.1-0.5c-0.1-0.2-0.1-0.6-0.2-0.9c-0.2-1.2-0.6-2.2-0.7-3.5c0.1,0,0.1-0.2,0.2-0.3c0.1,0.1,0,0.4,0.2,0.4
		c0.1,0,0.3-0.2,0.4,0c0,0.1-0.2,0.1-0.1,0.2c0.6,2.1,1.2,4.2,1.6,6.5c0.1,0.2,0.2,0.4,0.2,0.6c0.1,0.2,0.2,0.3,0.2,0.6
		c0.1,0.1,0.2,0.3,0.2,0.4c0.1,0.1,0.2,0.3,0.2,0.5c0.1,0,0.2,0.1,0.2,0.3c0.3,0.2,0.6,0.5,0.9,0.8c0.4,0.1,0.7,0.2,1.2,0.2
		c-0.4-1.3-0.6-2.8-0.8-4.5c-0.2-0.1-0.1-0.4-0.1-0.6c0-0.1-0.1,0-0.1-0.1c0-1.1-0.4-1.9-0.5-3c-0.2-0.2-0.3-1,0.1-1.1
		c0.1,0.3,0.3,0.4,0.4,0.6c0.2,1.8,0.8,3.2,0.9,5.1c0,0.1,0.1,0,0.1,0.1c0,0.5,0.2,0.8,0.2,1.3c0,0.1,0.1,0,0.1,0.1
		c0.2,0.5,0.3,1,0.4,1.5c0.2,0.1,0.2,0.4,0.3,0.5c0.1,0.2,0.2,0.4,0.3,0.5c0.2,0.2,0.3,0.4,0.4,0.6c0.2,0.2,0.5,0.5,0.7,0.6
		c0,0,0.1,0.1,0.1,0.1c0.2,0.2,0.5,0.2,0.7,0.4c0.2,0,0.4,0,0.4,0.2c0.3-0.1,0.6,0.2,0.7,0c-0.5-1.5-0.9-2.9-1.1-4.6
		c-0.1-0.2-0.2-0.5-0.2-0.8c-0.1-0.1-0.1-0.5-0.2-0.6c-0.1-0.2,0-0.5-0.1-0.7c-0.1-0.5-0.3-1.2-0.3-1.8c0-0.1-0.1,0-0.1-0.1
		c-0.1-0.4-0.2-0.7-0.2-1.1c0.2,0,0.1-0.2,0.3-0.2c0.2,0.6,0.6,1,0.7,1.7c0.2,0.1,0.1,0.3,0.2,0.5c0,0,0.1,0,0.1,0
		c0.1,0.2,0.1,0.4,0.2,0.6c0.1,0.4,0.2,0.9,0.3,1.4c0.1,0.1,0.1,0.3,0.2,0.4c0.2,0.8,0.4,1.5,0.6,2.4c0.1,0,0.1,0.2,0.1,0.3
		c0.1,0.1,0.1,0.4,0.2,0.6c0,0,0.1,0,0.1,0.1c0,0.1,0,0.3,0.1,0.4c0.1,0.2,0.3,0.6,0.3,0.9c0.1,0.1,0.2,0.3,0.3,0.4
		c0.1,0.1,0.1,0.2,0.1,0.3c0.1,0.2,0.3,0.4,0.4,0.7c0.3,0.2,0.5,0.5,0.8,0.8c0.9,0.2,1.6,0.7,2.7,0.7c-0.4-0.5-0.7-1-1-1.5
		c-0.1-0.1-0.1-0.2-0.1-0.4c0-0.1-0.1-0.1-0.2-0.1c-0.1-0.1,0-0.2-0.1-0.3c-0.3-0.4-0.5-0.9-0.8-1.3c-0.1-0.2,0-0.1-0.1-0.2
		c0,0,0-0.1,0-0.1c-0.2-0.4-0.4-0.9-0.4-1.3c-0.1-0.3-0.2-0.6-0.3-1.1c-0.2-0.5-0.2-1.3-0.4-1.9c-0.1-0.3-0.2-0.8-0.1-1.2
		c0-0.1-0.1,0-0.1-0.1v-0.6c-0.2-0.1,0-0.6-0.1-0.8c0-0.1-0.1,0-0.1-0.1c0-0.7-0.1-1.4-0.1-1.9c0.7,0.6,0.7,1.9,0.8,2.8
		c0.1,0.5,0.1,0.8,0.2,1.2c0,0.1,0.1,0,0.1,0.1c0.1,0.4,0.2,0.9,0.4,1.2c0.2,1.1,0.8,1.9,1,3.1c0.1,0.1,0.1,0.4,0.3,0.6
		c0.2,1,0.7,1.7,1.1,2.5c0.2,0.1,0.3,0.2,0.3,0.4c0.1,0,0.2,0.2,0.3,0.2c0.1,0.3,0.3,0.5,0.5,0.6c0,0,0.1,0,0.2,0c0,0,0,0.1,0.1,0.2
		C83.6,52.3,83.8,52.3,84,52.4 M81.7,36.4c0.1,0,0.3,0,0.4,0c-0.2-0.4-0.5-0.8-0.6-1.3c-0.2-0.2-0.3-0.4-0.3-0.7
		c-0.2-0.1-0.1-0.3-0.2-0.4c0-0.1-0.2-0.3-0.1-0.5c-0.2-0.3-0.2-0.9-0.4-1.2c0-0.5-0.3-0.7-0.3-1.2c-0.1,0-0.1-0.2-0.1-0.3
		c0-0.1-0.1,0-0.1-0.1c0-0.1,0-0.2,0-0.2c0-0.1-0.1,0-0.1-0.1c0-0.1-0.1-0.2-0.1-0.3c-0.2-0.6-0.3-1.1-0.4-1.8
		c-0.2-0.5-0.2-1.1-0.4-1.7c0-0.1-0.1-0.1-0.1-0.2c-0.1-0.9-0.2-1.8-0.3-2.7c0-0.1-0.1,0-0.1-0.1v-0.4c-0.2-0.3-0.2-0.8-0.4-1
		c0-0.4-0.3-0.6-0.3-1c-0.2-0.1-0.2-0.4-0.3-0.6c-0.1-0.3-0.4-0.5-0.5-0.8c-0.1-0.1-0.3-0.1-0.3-0.4c-0.4-0.2-0.4-0.7-0.8-0.8
		c-0.6-0.7-1.5-1.1-2.6-1.1c0-0.1-0.2-0.2-0.3-0.2c-0.1,0-0.1-0.1-0.1-0.1c-0.2-0.1-0.4,0-0.6-0.1c-0.1,0,0-0.1-0.1-0.1
		c-0.4-0.1-1.5,0-2,0c-0.1,0,0,0.1-0.1,0.1c-0.2,0-0.5,0-0.7,0c-0.1,0,0,0.1-0.1,0.1h-0.4c-0.1,0.1-0.5,0.1-0.6,0.2
		c-0.6,0.1-1.2,0.3-1.8,0.4c-0.3,0.1-0.6,0.3-0.8,0.4c-0.1,0-0.1,0.1-0.2,0.1c-0.3,0.1-0.4,0.3-0.7,0.3c-0.3,0.4-0.8,0.6-1.1,1h-0.2
		c-0.2,0.4-0.6,0.5-1,0.8c0.1,0.2,0.1,0.1,0,0.4c-0.2,0-0.2,0.1-0.4,0c-0.6,0.5-1.2,1.2-1.8,1.7c-0.1,0.4-0.4,0.5-0.7,0.8v0.2
		c-0.5,0.3-0.7,0.9-1.2,1.2c0.1,0.2-0.1,0.1-0.1,0.4c-0.2,0.2-0.3,0.4-0.4,0.6c-0.5,0.7-1,1.3-1.5,1.9c-0.1,0-0.1,0.2-0.3,0.2
		c0,0.2-0.2,0.4-0.4,0.4c0,0.3-0.3,0.2-0.2,0.5c-0.4,0.3-0.6,0.7-0.8,1.1c-0.2,0.4-0.5,0.8-0.7,1.3c-0.1,0.1-0.2,0.2-0.3,0.4
		c-0.3,0.2-0.4,0.7-0.8,0.9v0.2c-0.3,0.2-0.6,0.5-0.9,0.8c2.8,0.4,5.5,1,8,1.6c0.2-0.2,0.4-0.3,0.5-0.6c-0.3-0.3-0.8-0.8-1.1-1.3
		c0,0,0-0.1,0-0.1c-0.1-0.1-0.1-0.1-0.2-0.1c-0.2-0.3-0.3-0.7,0-0.9c0.3,0.1,0.3,0.5,0.4,0.8c0.5,0.3,0.8,1.2,1.5,1.3
		c0.3,0.1,0.7,0,0.9,0c0.1,0,0.3-0.1,0.4-0.2c0.2-0.1,0.5-0.1,0.6-0.3c-0.4-0.4-0.6-0.9-1.1-1.2v-0.2c-0.1,0-0.1-0.1-0.2-0.1
		c-0.2-0.5-0.7-1-0.9-1.5c0-0.1,0-0.3-0.1-0.4c0-0.1-0.2-0.5,0-0.6c0.4,0.4,0.6,1,0.8,1.7c0.1,0,0.2,0.1,0.2,0.3
		c0.5,0.4,0.9,1.1,1.3,1.5c0.2,0.2,0.4,0.4,0.8,0.4c0.2-0.1,0.2-0.2,0.4-0.2c0.3-0.1,0.4-0.3,0.6-0.4c0.2-0.1,0.3-0.1,0.4-0.3
		c-0.1-0.2-0.3-0.3-0.4-0.4c-0.3-0.5-0.6-0.8-0.8-1.3c0-0.1-0.1-0.1,0-0.2c-0.1,0-0.1-0.1-0.2-0.2c-0.2-0.4-0.5-1.1-0.7-1.5
		c-0.1-0.3-0.3-0.6-0.2-0.9c0.2,0.1,0.3,0.3,0.4,0.5c0,0.1,0.1,0,0.1,0c0.1,0.1,0.1,0.3,0.2,0.4c0,0.1,0.2,0.2,0.2,0.4
		c0.2,0.5,0.4,0.9,0.7,1.4c0.2,0.4,0.5,0.5,0.8,0.9c0.4,0.2,0.9,0.5,1.6,0.4c-0.1-0.7-0.5-1.2-0.6-2c-0.2-0.1-0.1-0.5-0.2-0.7
		c0-0.1-0.1,0-0.1-0.1c-0.1-0.5-0.2-1-0.3-1.5c-0.1-0.7-0.1-1.4,0.1-1.9h0.3c0.1,0.2,0.2,0.5,0.2,0.6c0,0.2,0.1,0.3,0.1,0.5
		c0.1,0.4,0.1,0.7,0.2,1.1c0.1,0.4,0.1,0.7,0.2,1c0.1,0.4,0.1,0.9,0.2,1.2c0,0.1,0.1,0,0.1,0.1c0,0.1,0,0.2,0,0.2c0,0,0.1,0,0.1,0
		c0,0.2,0,0.1,0.1,0.2c0,0,0,0.1,0,0.1c0.1,0.1,0.2,0.3,0.3,0.4c0.1,0.3,0.3,0.5,0.4,0.6c0.2,0.2,0.2,0.2,0.4,0.3
		c0.1,0,0.1,0.2,0.2,0.2c0.5,0.2,1.5,0.2,1.9,0c-0.3-1.5-0.9-2.7-1.1-4.4c-0.2-0.1-0.1-0.3-0.1-0.4c0-0.1-0.1-0.1-0.1-0.1
		c0-0.1,0-0.2,0-0.3c0-0.1-0.1,0-0.1-0.1c-0.1-0.4-0.1-0.8-0.2-1.2c0.1-0.1,0.2-0.2,0.4-0.2c0.1,1.3,0.5,2.3,0.7,3.6
		c0.2,0.4,0.3,0.9,0.4,1.4c0.2,0.2,0.2,0.5,0.3,0.8c0,0,0.1,0,0.1,0c0,0.1,0,0.1,0.1,0.1c0,0,0,0.1,0,0.1c0,0,0.1,0,0.1,0
		c0,0,0,0.1,0,0.1c0.2,0.3,0.4,0.5,0.5,0.9c0.2,0.2,0.3,0.4,0.5,0.5c0.1,0.1,0.1,0,0.2,0c0,0,0,0.1,0,0.1c0.2,0.1,0.5,0,0.7,0.1
		c0.1,0,0.3,0.2,0.4,0.1c0,0.1,0.2,0.1,0.4,0.1c-0.6-1.7-1.2-3.4-1.4-5.4c-0.2-0.4-0.3-0.9-0.3-1.4c0.1-0.1,0.2-0.3,0.3-0.4
		c0,0.1,0.1,0.1,0.1,0.2c0.1,0.3,0.1,0.6,0.2,0.9c0,0.1,0.1,0,0.1,0.1c0.1,0.4,0.1,0.9,0.2,1.3c0,0.1,0.1,0,0.1,0.1
		c0,0.2,0,0.2,0.1,0.4c0,0.1,0.1,0.3,0.1,0.4c0.2,0.6,0.3,1.4,0.5,2c0,0.1,0.1,0,0.1,0.1c0.1,0.2,0,0.1,0.1,0.2c0,0,0,0.1,0,0.1
		c0.1,0.2,0.2,0.5,0.3,0.6c0.2,0.4,0.2,0.6,0.5,0.8c0,0,0,0.1,0,0.1c0.2,0.1,0.4,0.2,0.6,0.3c0.3,0.2,0.6,0.5,0.9,0.6
		c0.2,0.1,0.4,0.2,0.5,0.2c0.1,0,0.2,0,0.4,0.1c0,0,0,0.1,0.1,0.1c0.2,0.1,0.4,0.1,0.7,0.1c-0.4-0.6-0.8-1.4-1.1-2.1
		c-0.1-0.2-0.2-0.5-0.3-0.7c-0.2-0.5-0.4-1.1-0.5-1.6c-0.1-0.5-0.3-1.1-0.4-1.5c-0.1-0.4-0.2-1.1,0.1-1.4c0.3,0.1,0.3,0.4,0.5,0.7
		c0.1,1.1,0.4,1.8,0.6,2.8c0.1,0.1,0.2,0.3,0.2,0.4c0.1,0.3,0.1,0.5,0.2,0.8c0.1,0.3,0.3,0.6,0.4,0.8c0.1,0.1,0,0.1,0.1,0.2
		c0.2,0.2,0.3,0.5,0.4,0.8c0.2,0.2,0.4,0.4,0.6,0.6c0.1,0.1,0.1,0.2,0.2,0.3c0.1,0.1,0.2,0,0.3,0.1c0,0,0.1,0.1,0.1,0.2
		c0.2,0.2,0.4,0.2,0.5,0.5c0.2,0,0.4,0.2,0.6,0.3c0,0,0.1,0.1,0.1,0.1c0.2,0.1,0.5,0.1,0.7,0.2C81.6,36.3,81.6,36.4,81.7,36.4
		 M68.9,79.8c0.1-1.5-0.2-2.6-0.2-4c-0.2-0.2-0.1-0.7-0.1-1.1c0-0.4-0.1-1.1-0.2-1.4c0-0.2,0-0.4,0-0.6c0-0.1,0-0.4-0.2-0.4h0
		c-0.7,0.3-1.4,0.6-2.1,0.8c-0.1,0.1-0.1,0.2-0.2,0.3c-0.2-0.1-0.4,0.1-0.6,0.2c-0.2,0.1-0.4,0.1-0.6,0.1c-0.2,0.1-0.4,0.1-0.5,0.2
		c-1.1,0.1-1.7,0.8-2.8,1C61.3,75,61,75,60.8,75.1c-0.2,0.1-0.6,0.2-0.8,0.3c-0.4,0.1-0.8,0.2-1.2,0.3c-0.2,0-0.3,0.1-0.5,0.1
		c-0.1,0-0.1,0.1-0.1,0.1c-0.2,0.1-0.5,0-0.8,0.1c0,0-0.1,0.1-0.1,0.1c-0.1,0-0.2,0-0.2,0c-0.5,0.1-1,0.3-1.6,0.3
		c-0.2,0.1-0.5,0.2-0.7,0.2c-0.8,0.2-1.5,0.4-2.4,0.5c-0.2,0.1-0.6,0.2-0.9,0.2c0,0.1-0.3,0.1-0.5,0.1c-0.3,0.2-0.7,0.2-1.1,0.3
		c-0.2,0-0.3,0.1-0.5,0.2c-0.2,0.1-0.4,0.1-0.5,0.2c-1,0.2-2,0.6-3.3,0.6c-0.1,0-0.1,0.2-0.2,0.1H45c-1.2,0.3-2.2,0.7-3.7,0.7
		c-0.1,0-0.1,0.2-0.2,0.1c-0.5-0.1-0.8,0.2-1.3,0.1c-0.2,0.2-0.5,0.1-0.8,0.1c-0.2,0.2-0.6,0.1-0.9,0.1c-1.9,0.2-4.1,0.3-6.2,0.2
		c0.5,2.2,1.9,3.5,2.5,5.6c0.6,0.5,1,1.3,1.4,2c0.2-1.7,0.2-3.6,0.4-5.3c0.2-0.4,0.9-0.5,1.6-0.5c0.7-0.1,1.5-0.2,2-0.1
		c0.4,0,1.1,0.1,1.2,0.5c0.1,0.2-0.2,1-0.2,1.4c-0.1,1-0.3,1.9-0.4,2.9c-0.1,0.5-0.1,1-0.2,1.4c-0.1,0.3-0.7,0.4-0.9,0.4
		c0.1,0.8,0,1.6,0.1,2.4c0.4,0.2,0.8,0.4,1.3,0.5c0.3,0.1,0.5,0,0.8,0.1c0.5,0.1,1,0.4,1.7,0.3c0.4-0.2,0.8-0.1,1.2-0.2
		c0.1,0,0.1-0.1,0.2-0.1c0.5-0.1,0.9,0,1.4-0.1c1.1-0.1,2.1-0.4,2.9-0.7c0.4,0.2,0.9,0,1.2,0c0.3,0,0.3,0,0.5-0.1
		c0.4-0.1,0.8-0.3,1.2-0.4c0.5-0.1,1.2,0,1.5-0.1c-0.1-1.1-0.5-2.5-0.8-3.7c-0.8,0-1.3-0.4-1.9-0.6C49.3,85,48.2,84.5,47,84
		c0.1,1,0.3,1.9,0.5,2.8c-0.2,0.4-0.7,0.6-1.2,0.8c0,0.5,0.4,1.1,0,1.3c-0.3-0.1-0.4-0.2-0.6-0.1c-0.4,0-0.5,0.4-0.8,0.5
		c-0.7,0.1-0.5-0.8-0.7-1.3c-0.8,0-0.8-0.3-0.9-1c-0.1-1.2-0.3-2.5-0.4-3.6c0-0.3-0.2-1.2-0.1-1.5c0.1-0.4,0.8-0.6,1.3-0.8
		c0.6-0.2,1.2-0.3,1.6-0.4c1-0.1,1.4,0.3,2.1,0.7c0.9,0.4,1.7,0.8,2.5,1.2c0.4,0.2,0.8,0.4,1.2,0.5c-0.1-0.5-0.2-0.9-0.3-1.5
		c-0.1-0.4-0.3-1.2-0.2-1.5c0.1-0.4,0.7-0.6,1.2-0.8c0.9-0.3,2.1-0.7,2.8-0.1c0.2,1.2,0.3,3,0.5,4.3c0,0.4,0.2,1.2,0.1,1.5
		c-0.1,0.3-0.5,0.4-0.6,0.6c0.1,0.2,0.1,0.4,0.1,0.6c-0.4,0.3-0.5,1.3-0.3,1.8h-0.4c-0.2-0.5-0.3-1.2-0.4-1.7c0-0.1,0-0.5-0.3-0.4
		c-0.2,0-0.1,0.2-0.1,0.4c0,0.1,0.1,0.3,0.1,0.4c0.2,0.9,0.4,1.9,0.6,2.7c0.6-0.2,1.4-0.2,2.3-0.2c0.3-0.2,0.8-0.1,1.1-0.2
		c0.1,0,0.1-0.1,0.2-0.1c0.2,0,0.3-0.1,0.4-0.1c1-0.2,1.9-0.5,2.9-0.7c-0.3-1-0.7-1.8-1-2.8c-0.5-0.1-0.5-0.7-0.7-1.1
		c-0.5,0-0.8,0.1-1.2,0c-0.4-1.3-0.7-2.8-1.1-4.2c-0.1-0.4-0.4-1.1-0.4-1.5c0.1-0.5,1-0.8,1.5-1c0.6-0.3,1.3-0.6,1.8-0.7
		c0.5-0.1,1-0.1,1.3,0.1c0.2,1,0.3,2.1,0.5,3c0.6-1.1,1.1-2.2,1.7-3.3c0.2-0.4,0.3-0.8,0.6-1.1c0.5-0.7,1.4-0.8,2.4-1.1
		c0.5-0.1,1.8-0.5,1.9,0c0.1,0.3-0.4,0.8-0.5,1.1c-0.7,1.1-1.3,2.1-1.9,3.2C67.1,79.2,68,79.4,68.9,79.8 M68.8,81
		c0.1,0,0.1-0.5,0-0.6c-0.6,0.5-1.3,0.8-2,1.2c0.2,0.6,0.4,1.2,0.6,1.8c-0.2,0.2-0.2,0.8-0.1,1c-0.2,0-0.4,0.1-0.7,0.1
		c-0.3-0.8-0.6-1.6-0.9-2.5c-1.5,0-2.6-0.8-3.8-0.9c0,0.5,0.4,1.3,0.3,1.8c-0.1,0.3-0.5,0.4-0.8,0.6c0.1,0.4,0.3,0.7,0.4,1.2
		c-0.2,0.2-0.4,0.4-0.7,0.4c0.2,0.7,0.5,1.2,0.7,1.9c-0.2,0.3-0.3,0.6-0.2,1.1c0.5-0.1,0.9-0.3,1.5-0.3c0.2-0.1,0.4-0.2,0.6-0.2
		c0.2-0.2,0.5-0.2,0.8-0.3c0.2-0.1,0.4-0.3,0.7-0.3c0.1-0.2,0.3-0.3,0.5-0.4c0.2-0.3,0.5-0.4,0.8-0.7c0.2-0.2,0.3-0.6,0.7-0.8
		c0.1-0.3,0.3-0.5,0.4-0.7c0.1-0.2,0.3-0.5,0.4-0.7c0.2-0.4,0.3-0.8,0.4-1.2c0-0.1,0.1-0.3,0.2-0.4c0-0.2,0-0.4,0.1-0.6
		c0-0.1,0.1,0,0.1-0.1C68.8,81.3,68.8,81.1,68.8,81 M67.9,68.1c0.1-0.4,0-0.8-0.1-1.1c-0.1,0.4-0.6,0.4-0.9,0.2
		c0.4,0.5-0.4,1.1-0.7,0.6c0.2,0.6,0.1,1.4-0.8,1.2c-0.1-0.2-0.2-0.4-0.2-0.8c-0.2,0.1-0.2-0.1-0.4-0.1c-0.1-0.1-0.2-0.2-0.3-0.4
		c-0.1-0.1-0.1-0.4-0.2-0.5c0-0.1-0.1-0.3-0.2-0.4c-0.1-0.2-0.1-0.5-0.2-0.7c0-0.2-0.1-0.2-0.1-0.4c-0.1-0.6-0.2-1.3-0.2-2
		c0-0.1-0.1,0-0.1-0.1v-0.4c0-0.1-0.1,0-0.1-0.1c0-1.2-0.8-1.5-0.7-2.9c-0.1-0.3-0.3-0.7-0.4-1c0-0.1,0.1-0.3,0-0.4
		c0-0.4-0.5-0.7-0.4-1.3c-0.1,0-0.1-0.3-0.1-0.4c0-0.2-0.1-0.3-0.2-0.5c-0.2-1-0.4-2.3-0.5-3.3c-0.1-0.3-0.2-0.5-0.3-0.9
		c-0.2-0.1-0.2-0.4-0.3-0.6c-0.1-0.1-0.1-0.3-0.2-0.4c-0.1-0.1,0-0.3-0.1-0.5c0,0-0.1,0-0.1,0c0,0,0-0.1,0-0.1
		c0-0.1-0.1-0.1-0.1-0.1c-0.1-0.1,0-0.3-0.1-0.5c0,0-0.1,0-0.1,0c-0.1-0.2,0-0.3-0.1-0.4c-0.1-0.3-0.2-0.5-0.2-0.8
		c-0.1-0.4-0.3-0.7-0.3-1.1c0-0.1,0.3-0.5,0.3-0.5c0,0,0.3-0.2,0.4-0.2c0.1-0.1,0.2-0.1,0.3-0.2c0.4-0.2,0.9-0.1,1.2-0.1
		c0.2-0.2,0.7-0.3,1-0.1c0,0,0,0.1,0.1,0v0.3c0.2,0,0,0.2,0.2,0.2c0.2,0.7,0.4,1.2,0.5,2c0.2,0.2,0.1,0.4,0.2,0.6c0,0,0.1,0,0.1,0
		c0,0,0,0.1,0,0.1c0.4,0.6,0.8,1.3,0.7,2.3c0.1,0.1,0.2,0.4,0.2,0.5c0.1,0.2,0,0.1,0.1,0.2c0,0,0,0.1,0,0.1c0.1,0.2,0.2,0.6,0.3,0.8
		c0.1,0.2,0,0.2,0.1,0.3c0,0,0,0.1,0,0.1c0.1,0.2,0.2,0.4,0.3,0.7c0.3,0,0.4-0.1,0.6-0.2c0.1-0.6,0-1.1,0-1.7
		c-0.1-0.1-0.1-0.2-0.2-0.3c-0.1-0.5-0.2-1-0.3-1.6c-0.6-0.7-0.8-2.3-1.1-3.3c-0.1-0.2,0-0.4-0.1-0.6c0-0.1-0.1,0-0.1-0.1
		c0-0.2-0.1-0.6-0.1-0.8c0-0.2,0.2-0.4,0.2-0.5c0.1-0.1,0-0.1,0.1-0.2c0.1-0.1,0.1-0.2,0.2-0.3c0.3-0.3,0.6-0.6,0.8-1
		c0.2,0.1,0.3,0.1,0.5,0c0-0.2,0-0.5-0.1-0.7c-0.2,0.1-0.5,0.2-0.6,0.4C65,44,65,44.2,64.8,44.2c-0.1,0.2-0.4,0.2-0.6,0.4
		c-0.2,0.1-0.4,0.3-0.6,0.3c-0.2,0.2-0.4,0.3-0.7,0.4c-0.2,0.1-0.5,0.3-0.7,0.4c0,0-0.1,0-0.1,0c-0.1,0-0.2,0.1-0.4,0.2
		c-0.1,0-0.2,0.1-0.3,0.2c-0.1,0-0.2,0.1-0.4,0.1c-0.2,0.1-0.5,0.2-0.8,0.2c-1.1,0.4-2.3,0.8-3.3,1.3c-1.9,0.5-3.6,1.3-5.6,1.7
		c-0.2,0.1-0.3,0.1-0.5,0.2c-0.3,0.1-0.7,0.2-0.9,0.3c-0.5,0.2-1.1,0.2-1.6,0.3c-0.1,0.1-0.1,0.2-0.2,0.3c-0.9,0.1-1.6,0.4-2.5,0.5
		c-0.2,0.1-0.4,0.2-0.5,0.2c-0.2,0-0.2,0.1-0.3,0.1c-0.3,0.1-0.5,0.1-0.7,0.1c-0.6,0.1-1.2,0.3-1.8,0.4c-0.2,0.1-0.5,0.2-0.8,0.2
		c-0.1,0.1-0.5,0.1-0.7,0.2c-0.6,0.1-1.2,0.4-1.9,0.4c-0.1,0.1-0.3,0.1-0.5,0.2c-0.9,0.2-1.8,0.4-2.7,0.6c-0.4,0.2-1.1,0.2-1.7,0.2
		c-0.1,0,0,0.1-0.1,0.1c-1.2,0-2,0.4-3.3,0.4c-0.1,0.2-0.5,0.1-0.7,0.2c0-0.2-0.4,0-0.6-0.1c-0.1,0,0,0.1-0.1,0.1h-0.6
		c-0.2,0.2-0.7,0-1,0.1c-0.1,0,0,0.1-0.1,0.1c-0.7,0-1.1-0.2-1.9-0.1c-0.1,0-0.1,0.1-0.2,0.2c-1.8,0-3.3,0.3-5.2,0.3
		c0.1,0.3,0.2,0.5,0.3,0.8c0.6-0.1,1,0.6,1.6,0.4c0.3-0.1,0.4-0.4,0.5-0.5c0.3-0.2,0.9-0.3,1.3-0.4c0.9-0.1,1.3,0.1,1.8,0.4
		c0.2,0.1,0.4,0.4,0.5,0.4c0.2,0.1,0.5,0.4,0.7,0.6c0.2,0.2,0.4,0.4,0.6,0.6c0.3,0.5,0.5,1.2,0.8,1.8c0.1,1,0.3,2,0.5,3
		c-0.6,0.4,0.2,1.2,0,1.8c0,0.1-0.2,0.2-0.3,0.3c-0.6-0.2-0.4-1.1-1-1.2c-0.4,0.3,0,1.4-0.7,1.5c0.3,0.4,0.6,0.7,0.9,1.1
		c0.5,0.2,0.8,0.5,1.1,0.9c0.3,0.2,0.5,0.4,0.8,0.6c0.3,0.2,0.5,0.4,0.8,0.6c0.3,0.1,0.6,0.3,0.8,0.5c0.2,0.1,0.3,0.2,0.4,0.4
		c0.4,0.1,0.6,0.5,0.9,0.8c0-0.3-0.1-0.4-0.1-0.7c-0.2-0.2-0.1-0.4-0.2-0.6c-0.1-0.2-0.3-0.5-0.3-0.8c-0.2-0.1-0.2-0.3-0.3-0.4
		c-0.2-0.1-0.3-0.3-0.4-0.4c-0.4-0.5-0.8-1.1-0.8-2.1c-0.1-0.3-0.2-0.6-0.3-0.8c-0.1-0.1-0.1-0.3-0.2-0.4c-0.1-0.1-0.2-0.3-0.3-0.4
		c-0.1-0.1-0.2-0.1-0.3-0.2c0-0.1,0-0.2-0.1-0.3c-0.2-0.4-0.4-0.8-0.4-1.4c-0.1,0-0.1-0.3-0.1-0.5c-0.1-0.2-0.2-0.5-0.2-0.8
		c-0.1-0.2-0.2-0.4-0.2-0.7c-0.2-0.3-0.3-0.7-0.3-1.2c-0.1-0.2-0.2-0.5-0.2-0.9c-0.2-0.4,0-1.1,0.2-1.3c0.7,0,1.6-0.1,2.1,0.2
		c0.4-0.3,0.9-0.5,1.3-0.8c1.4,0.1,2.7-0.9,4-0.2c0,0.8,0.4,1.6,0.2,2.3c0.3,0.5,0.9,1.1,0.7,1.9c0.1,0.4,0.5,1.2,0,1.3
		c-0.6,0.2-0.7-0.7-0.9-1.1c-0.6,0.1,0,0.7-0.1,1.2c-0.2-0.1-0.1,0.1-0.2,0.1c-0.4-0.1-0.6-0.5-0.7-0.9c-0.4,0-0.7-0.1-1,0
		c-0.1,0.7,0.5,1.3,0,1.8c-0.9-0.1-0.4-1.5-1.4-1.6c0.1,1.2,0.7,2.1,0.9,3.1c1.1-0.2,1.8-0.6,2.8-0.8c0.7,0.3,0.5,1.2,0.7,2.1
		c0.1,0.4,0.3,0.8,0.4,1.1c0,0.1,0,0.3,0,0.4c0,0.1,0.1,0,0.1,0.1c0.1,0.3,0.1,0.6,0.1,0.8c-0.2,0.1-0.2,0.3-0.4,0.4
		c-0.4-0.3-1.1-0.5-1.7-0.4c0.1,1.4,0.6,2.4,1.1,3.4c0.4-0.1,0.9-0.2,1.3-0.4c0.8-0.2,1.8-0.4,2.6-0.2c-0.1,0.2,0.2,0.4,0.3,0.5
		c0.1,0.6,0.2,1,0.2,1.6c0.3,0.5,0.7,1.2,0.6,1.9c-0.2,0-0.1,0.2-0.3,0.2c-0.1,0.5,0,1.1-0.4,1.3c-0.7,0-0.9-0.5-1.1-1
		c-0.3,0-0.1,0.5-0.4,0.6c-0.4,0-0.4-0.3-0.6-0.6c-0.2,0.1-0.3,0.2-0.6,0.2c-0.1-0.1,0-0.2-0.2-0.2c-0.3,0.3-0.3,0.9-0.6,1.2H37
		c-0.2-0.2-0.2-0.6-0.3-0.9c-0.3,0-0.3,0.4-0.5,0.5c-0.2,0.1-0.5-0.1-0.6-0.1c-0.1-0.1-0.1,0-0.2-0.1C35,74,34.5,73.9,34,73.9
		c-0.1-0.2-0.2-0.4-0.4-0.5c-0.3-1.5-0.5-3.1-1-4.4v0.1c0.4,1-0.4,1.9-0.2,3c0,0.3,0.3,0.5,0.4,0.8c0.1,0.4-0.1,0.6,0,0.9
		c0,0.1-0.1,0.2-0.1,0.3c0.2,0.1,0.1,0.6,0.2,0.8c-0.3,0.2-0.2,0.8-0.5,1c0.1,0,0.2,0,0.2,0.2c2.7,0,5.2-0.2,7.8-0.4
		c0.1-0.2,0.5-0.1,0.8-0.1c0.1,0,0-0.1,0.1-0.1c1.6-0.1,2.9-0.4,4.5-0.6c0.1,0,0-0.1,0.1-0.1c2.2-0.3,4.2-0.9,6.4-1.3
		c0.2-0.1,0.4-0.2,0.5-0.2c0.2,0,0.2-0.1,0.3-0.1c0.3-0.1,0.6-0.1,0.8-0.2c0.3-0.1,0.7-0.3,1.1-0.3c0.6-0.3,1.4-0.4,2-0.7
		c0.2,0,0.2-0.1,0.4,0c0-0.1-0.2-0.1-0.3-0.1c-0.5-0.2-0.2-1.1-0.4-1.5c0-0.1-0.1-0.1-0.1-0.2c-0.2,0.3-0.1,0.8-0.5,0.9
		c-0.1-0.1-0.3-0.2-0.4-0.2c-0.2-0.4-0.3-0.8-0.3-1.4c0-0.1-0.1,0-0.1-0.1v-0.5c0-0.1-0.1,0-0.1-0.1v-0.4c-0.2-0.1-0.1-0.5-0.2-0.7
		c0,0-0.1,0-0.1,0c-0.1-0.2-0.1-0.2-0.1-0.3c-0.2-0.4-0.6-0.8-0.4-1.5c0-0.1,0.1,0,0.1-0.1c0-0.2,0-0.2,0.1-0.3
		c0.2-0.4,0.3-0.7,0.7-0.7c0.5,0,0.8,0.6,1.4,0.8c0.3,0.1,0.9,0.1,1.1,0c0,0,0.4-0.2,0.4-0.2c0.1-0.1,0.3-0.4,0.4-0.6
		c0.1-0.1,0.2-0.2,0.2-0.2c0.1-0.1,0-0.4,0.1-0.5c0-0.1,0.1,0,0.1-0.1c0.1-0.5,0-0.7-0.2-1.1h-0.5c-0.1,0-0.5-0.2-0.4-0.1
		c-0.3,0.2-0.1,0.8-0.1,1c0.1,0.4,0.2,0.6,0,0.8c-0.1,0.2-0.2,0.4-0.4,0.4c-0.3-0.2-0.5-0.5-0.4-1.1c-0.2-0.3-0.3-0.5-0.6-0.6
		c-0.2-0.1-0.4-0.2-0.4-0.4c-0.1-0.2-0.1-0.3-0.2-0.5v-0.4c-0.3,0-0.6-0.2-0.9-0.3c-0.1,0.5-0.5,0.6-0.8,0.3
		c-0.2-0.2-0.4-0.5-0.4-0.8c-0.1-0.4,0.1-0.8,0.1-1c-0.1-0.6-0.8-0.7-0.7-1.2c-0.3-0.2-0.5-0.6-0.8-0.8c-0.1-0.3-0.3-0.6-0.4-1
		c-0.2-1.1,0.2-2.4,0.4-3.4c0-0.1,0-0.2,0-0.3c0-0.1,0.1,0,0.1-0.1c0-0.2,0-0.3,0-0.4c0.2-0.1,0-0.5,0.1-0.8c0-0.4,0.3-0.7,0.5-0.9
		c0.2-0.2,0.3-0.4,0.4-0.7c0.1-0.1,0.2-0.2,0.2-0.2c0,0,0-0.1,0-0.1c0,0,0.2-0.1,0.2-0.1c0-0.1,0-0.1,0-0.2c0.2-0.3,0.7-0.5,1.1-0.6
		c0.6-0.1,1.3-0.1,2.1,0c0.1,0.1,0.3,0.2,0.4,0.3c0.2,0.2,0.5,0.3,0.7,0.5c0.2,0,0.4,0.1,0.4,0.3c0.5,0,0.6,0.4,1,0.5
		c0.3,0.3,0.6,0.5,0.8,0.8c0.2,0.3,0.3,0.5,0.4,0.8c0,0.1,0.1,0.2,0.1,0.2c0.2,0.4,0.1,1,0.2,1.6c0.1,0.4,0.1,0.6-0.1,0.9
		c0,0,0,0.1-0.1,0.1c-0.2-0.2-0.5-0.3-0.9-0.3v1.8c-0.1,0.1-0.1,0.2-0.3,0.3c-0.6,0.1-0.6-0.9-1-1.1c-0.1-0.1-0.3,0.1-0.4,0
		c-0.7-0.3-0.3-1.7-1.2-1.8c-0.5,0.3-0.7,1.2-0.5,2c0.1,0.3,0.3,0.6,0.5,1c0.4,0.1,0.5,0.5,0.8,0.8c0.1,0.1,0.3,0.2,0.4,0.3
		c0.2,0.2,0.4,0.5,0.7,0.7c0,0,0.2,0,0.2,0c0.2,0.1,0.5,0.2,0.7,0.3c0.1,0.1,0.2,0.1,0.3,0.1c0.2,0.1,0.4,0.2,0.6,0.3
		c0,0.2,0.2,0.1,0.2,0.3c0.3,0,0.4,0.2,0.5,0.4c0.4,0.4,0.8,0.8,1,1.3c0.3,0.2,0.3,0.5,0.5,0.8c0.1,0.2,0.3,0.4,0.3,0.7
		c0.2,0.1,0.2,0.4,0.3,0.7c0,0.1,0.1,0.2,0.1,0.3c0,0.1,0.1,0.2,0.1,0.4c0.2,0.6,0,1.4,0.1,2.1c0.1,0.4,0.3,0.8,0.3,1.2
		c-0.1,0.2-0.1,0.5-0.5,0.4c-0.2-0.2-0.4-0.3-0.6-0.4c-0.1,0.3-0.4,0.3-0.5,0.7c-0.1,0.3,0.3,0.8,0.3,1.1c0,0.3-0.2,0.8-0.4,0.9
		c0,0-0.2,0.1-0.2,0.1c-0.5,0-0.5-0.6-0.8-0.8c-0.3,0.1-0.5,0.3-0.8,0.5c-0.2-0.1-0.3-0.3-0.5-0.5c-0.3,0.2-0.1,1-0.2,1.5
		c-0.2,0.1-0.2,0.3-0.4,0.3c-0.1,0-0.3-0.2-0.4-0.2c-0.2-0.3-0.3-1-0.6-1.1c-0.4,0.3-0.1,0.9-0.2,1.4c0,0.2-0.2,0.3-0.2,0.5
		c0.8-0.2,1.3-0.5,2.2-0.6c0.7-0.3,1.5-0.4,2.2-0.7c0.1,0,0.2-0.1,0.4,0c0.6-0.3,1.3-0.4,1.9-0.7C65.7,69.3,66.7,68.7,67.9,68.1
		 M67.6,65.7c0.1-2.3-0.3-4.3-0.4-6.4h-0.6c-0.4,0.2-0.4,0.7-0.4,1.2c0,0.3,0.2,0.8,0.2,1.1c0,0.2,0,0.4,0.1,0.6
		c0,0.1,0.1,0,0.1,0.1c0,0.1,0,0.2,0,0.2c0.1,0.4,0.3,0.9,0.4,1.2c0.1,0.5,0.3,1,0.4,1.4c0.1,0.2,0.1,0.4,0.2,0.5
		C67.6,65.5,67.5,65.7,67.6,65.7 M65.2,39.5c0-0.2-0.1-0.5-0.2-0.5c0,0,0-0.1,0-0.1c-0.2-0.5-0.5-0.9-0.7-1.4
		c-0.2-0.1-0.3-0.3-0.5-0.4c-0.2-0.1-0.4-0.2-0.5-0.4c-0.7-0.2-1.3-0.5-1.9-0.8c-0.4-0.1-0.8-0.2-1.2-0.3c-0.5-0.1-0.9-0.3-1.5-0.4
		c-0.1,0,0-0.1-0.1-0.1c-0.6-0.1-1.2-0.2-1.8-0.3c-0.1,0,0-0.1-0.1-0.1c-0.2-0.1-0.5,0-0.7-0.1c-0.1,0,0-0.1-0.1-0.1
		c-0.2-0.1-0.5,0-0.7-0.1c-0.1,0,0-0.1-0.1-0.1c-1.2-0.2-2.5-0.4-3.5-0.7c-0.1,0-0.2,0-0.3,0c-0.1,0,0-0.1-0.1-0.1
		c-0.6-0.1-1.1-0.2-1.7-0.3c-0.1,0,0-0.1,0-0.1c0,0-0.1,0-0.2,0c-0.5-0.2-1.1-0.3-1.6-0.5c-0.3-0.1-0.5-0.3-0.8-0.3
		c-0.1-0.2-0.3-0.2-0.5-0.4c-0.2-0.1-0.4-0.2-0.5-0.4c-0.1-0.1-0.1-0.2-0.2-0.2c-0.1-0.1-0.2-0.1-0.3-0.1c-0.2-0.2-0.4-0.4-0.6-0.5
		c-0.1,0-0.1-0.1-0.1-0.2c-0.6-0.5-1.1-1.1-1.5-1.8c-0.2-0.3-0.4-0.6-0.5-0.8c-0.1-0.2,0-0.5-0.1-0.7c0-0.2-0.2-0.5-0.2-0.6
		c-0.1-0.6-0.2-1-0.3-1.6c-0.6,0-1.1,0.3-1.8,0.3c-0.3,0.1-0.5,0.2-0.8,0.3c-0.7,0.2-1.5,0.4-2.3,0.5c0,0.1-0.2,0.1-0.4,0.1
		c-0.2,0.2-0.5,0.1-0.8,0.2c0,0-0.1,0.1-0.1,0.1c-0.2,0.1-0.4,0.1-0.5,0.1c-0.6,0.1-1.2,0.3-1.7,0.2c0.5-0.3,1.1-0.5,1.9-0.5
		c0.1,0.1,0-0.1,0.2-0.1c1.2,0,2-0.5,3.1-0.7c0.6-0.3,1.3-0.4,1.9-0.6c0.2-0.1,0.4-0.2,0.7-0.2c0.6-0.3,1.9-0.3,1.5-1.2
		c-0.9,0.1-1.6,0.4-2.5,0.4c-0.1,0,0,0.1-0.1,0.1h-0.4c-0.1,0.1-0.4,0.1-0.6,0.2c-0.5,0.1-1.2,0.1-1.6,0.3c-0.3,0.1-0.7,0.5-1,0.2
		c0.7-0.3,1.7-0.5,2.4-0.7c0.1,0,0.2-0.1,0.4-0.1c0.1,0,0.2-0.1,0.4-0.1c0.1,0,0.2-0.1,0.4-0.1c0.8-0.2,1.6-0.4,2.4-0.4
		c0-0.1,0.2-0.2,0.1-0.4c-0.7,0-1.1,0.3-1.9,0.3c-0.1,0.1-0.3,0.1-0.5,0.2c-0.9,0.2-1.8,0.4-2.7,0.6c0,0.1-0.2,0.1-0.4,0.1
		c-0.6,0.2-1.2,0.3-1.8,0.4c-0.4,0.1-0.7,0.3-1.1,0.2c-0.1,0,0,0.1-0.1,0.1c-0.4,0.1-0.7,0.1-1.1,0.2c-0.1,0.1-0.4,0.1-0.6,0.2
		c-0.8,0.1-1.6,0.3-2.4,0.3c-0.1-0.1,0,0.1-0.2,0.1c-0.4-0.1-0.7,0.1-1.1,0.1c-0.1,0.3,0.1,0.4,0.2,0.7c0.9,0.5,2.2,0,3.2-0.1
		c0.4-0.2,0.9-0.2,1.3-0.4c0.4-0.1,0.9-0.3,1.4-0.3c0.2-0.2,0.6-0.1,0.8-0.2c0.1,0,0-0.1,0.1-0.1c0.3-0.1,0.5,0,0.8-0.1
		c0.2,0,0.5-0.2,0.6-0.2c0.5-0.1,0.8-0.2,1.2-0.2c0.1-0.1,0.6-0.1,0.7,0c-0.3,0.2-0.6,0.3-1,0.4c-0.5,0.1-1.2,0.3-1.6,0.4
		c-0.1,0-0.2,0-0.2,0c-0.1,0,0,0.1,0,0.1c0,0-0.1,0-0.2,0c-0.4,0.1-0.8,0.2-1.3,0.4c-0.4,0.1-0.8,0.2-1.1,0.2
		c-0.1,0.1-0.2,0.1-0.4,0.1c-0.1,0,0,0.1-0.1,0.1c-0.1,0-0.2,0-0.2,0c-0.1,0,0,0.1-0.1,0.1c-0.1,0-0.2,0-0.2,0
		c-0.4,0.1-0.8,0.2-1.2,0.4c-0.2,0-0.4,0.1-0.6,0.2c0,0.4,0.3,0.5,0.5,0.8c2.2,0.3,3.5-0.9,5.6-0.7c-0.1,0.2-0.3,0.2-0.5,0.2
		c-0.6,0.2-1.2,0.3-1.9,0.4c-0.3,0.1-0.7,0.2-1.1,0.3C33.3,28,33,28,32.7,28.1c-0.3,0.1-0.7,0.2-1,0.2c0,1.2,0.3,2.6,0.2,3.8
		c0,0.5-0.2,0.9-0.3,1.4c-0.2,0.2-0.2,0.6-0.3,0.9c0,0-0.1,0-0.1,0c0,0,0,0.1,0,0.1c-0.2,0.5-0.5,1-0.8,1.5c-0.3,0.5-0.7,1-1,1.6
		c-0.2,0.1-0.3,0.3-0.4,0.4c-0.4,0.5-0.8,0.9-1.2,1.3c-0.3,0.3-0.6,0.6-0.8,0.8c-0.3,0.3-0.5,0.6-0.9,0.8c-0.5,0.6-1.1,1.1-1.6,1.6
		c-0.3,0.3-0.5,0.6-0.8,0.8c-0.3,0.3-0.7,0.5-0.9,0.8c-0.1,0.2-0.2,0.4-0.4,0.6c-0.2,0.3-0.7,0.7-0.9,1c-0.2,0.3-0.5,0.6-0.8,0.8
		c-0.2,0.2-0.3,0.4-0.6,0.5c-0.2,0.6-0.6,1.1-0.7,1.9c0,0.4,0,0.8,0,1.3c4.2,0.1,9,0.2,12.9-0.2c0.1,0.1,0-0.1,0.2-0.1
		c0.4,0.1,0.6-0.1,1.1-0.1c0.1,0,0-0.1,0.1-0.1c2.5-0.3,4.7-0.9,7.2-1.3c0.2-0.1,0.4-0.1,0.6-0.2c0.7-0.2,1.4-0.4,2.2-0.5
		c0-0.1,0.2-0.1,0.4-0.1c0.5-0.2,1-0.3,1.5-0.4c0.3-0.1,0.5-0.2,0.8-0.2c0.4-0.2,0.7-0.2,1.1-0.4c0.5-0.2,1-0.3,1.5-0.4
		c0.3-0.1,0.5-0.3,0.9-0.3c0.4-0.2,0.8-0.4,1.4-0.5c0.1-0.1,0.3-0.2,0.4-0.3c0.2-0.1,0.4-0.1,0.5-0.2c1-0.4,2-0.8,3.2-1.1
		c0.1-0.2,0.4-0.2,0.6-0.3c0.2-0.1,0.5-0.1,0.7-0.3c0.5-0.1,1-0.3,1.4-0.5c0.6-0.1,1-0.5,1.7-0.6c0.2-0.2,0.5-0.3,0.8-0.4
		c0.5-0.2,1-0.5,1.3-0.7c0,0,0.1,0,0.1,0c0,0,0.1-0.1,0.1-0.1c0.3-0.1,0.6-0.2,0.8-0.4c-0.3-0.3-0.6-0.6-0.8-1
		c-0.1-0.2-0.1-0.2-0.3-0.4c0-0.1-0.1-0.1-0.1-0.2c-0.2-0.3-0.3-0.3-0.5-0.5c-0.8-0.2-1.6-0.5-2.5-0.6c-0.3,0-0.6-0.1-0.8-0.1
		c-1.2-0.2-2.6,0.1-3.5,0.2c-0.9,0.1-1.9,0-2.9-0.1c-0.2,0-0.5,0-0.8,0c-0.1,0-0.2-0.1-0.3-0.1c-0.2,0-0.4,0-0.6,0
		c-0.1,0-0.2-0.1-0.3-0.1c-0.2,0-0.4,0-0.6,0c-0.1,0-0.2-0.1-0.2-0.1c-0.5-0.1-1-0.1-1.5-0.1c-0.5-0.1-1.2-0.3-1.6-0.4
		c-0.2,0-0.3,0-0.4-0.1c-0.2-0.1-0.4-0.1-0.6-0.2c-0.6-0.1-1-0.3-1.5-0.4c-0.1-0.2-0.4-0.2-0.5-0.3c-0.3-0.1-0.6-0.5-0.9-0.6
		c-0.1,0,0-0.1,0-0.1c-0.1,0-0.2,0-0.3,0c-0.2-0.1-0.3-0.2-0.5-0.2c-0.3-0.1-0.6-0.3-1-0.4c-0.1-0.3-0.4-0.4-0.6-0.6
		c-0.3-0.5-0.8-0.9-1.1-1.4c-0.2-0.2-0.3-0.4-0.4-0.7c-0.2-0.3-0.4-0.7-0.5-1.2c-0.2,0-0.1-0.2-0.2-0.4c-0.2-0.4-0.4-0.8-0.5-1.1
		c-0.4,0-0.7,0-0.9-0.1c-0.2-0.1-0.5-0.3-0.6-0.4c-0.1-0.1-0.2-0.2-0.3-0.4c-0.1-0.2-0.4-0.5-0.3-0.7c0.2,0,0.4,0,0.5,0.1
		c0.2-0.1,0.4-0.2,0.5-0.3c0.2-0.1,0.3,0,0.4-0.1c0.1,0,0.3-0.1,0.4-0.2c0.4-0.1,0.9-0.2,1.4-0.3c0.3,0,0.6,0,0.8,0
		c0.1,0,0.1-0.1,0.2-0.1c0.2,0,0.4,0,0.5,0c0.1,0,0.1-0.1,0.2-0.1c0.1,0,0.3,0,0.5,0c0.1,0,0.1-0.1,0.2-0.1c0.5-0.1,1.1-0.1,1.4-0.1
		c0.4,0.5,0.7,1,0.9,1.6c0.2,0.1,0.2,0.2,0.3,0.4c0.2,0.3,0.4,0.6,0.6,0.8c0,0,0,0.1,0,0.1c0.1,0.2,0.3,0.3,0.4,0.4
		c0.1,0.1,0.1,0.2,0.1,0.3c0.1,0.1,0.2,0.1,0.3,0.2c0.1,0.1,0,0.2,0.1,0.3c0.1,0.1,0.2,0.2,0.3,0.3c0,0.1,0,0.1,0.1,0.2
		c0.1,0.2,0.3,0.3,0.4,0.4c0.2,0.2,0.4,0.4,0.6,0.6c0.1,0.1,0.5,0.4,0.6,0.4c0.1,0,0.3,0.2,0.4,0.3c0.2,0.1,0.6,0.3,0.9,0.4
		c0.2,0.1,0.3,0.1,0.4,0.1c0,0,0,0.1,0.1,0.1c0.7,0.2,1.4,0.4,2.2,0.6c0.5,0.2,1.1,0.3,1.5,0.4c0.2,0,0.4,0.1,0.6,0.1
		c0.2,0,0.5,0,0.7,0.1c0.1,0,0,0.1,0.1,0.1c0.4,0.1,0.9,0.2,1.4,0.2c0.3,0.2,0.9,0.1,1.4,0.2c0.1,0,0.1,0.1,0.2,0.1
		c0.4,0.1,0.9,0.1,1.4,0.1c0.4,0,0.8,0.1,1.1,0.1c0.4,0,0.8-0.1,1.3-0.1c0.1,0,0.2,0.2,0.4,0.1c0.1,0.1,0.3,0.2,0.5,0.3
		c0.2,0.3,0.5,0.5,0.8,0.7c0.1,0.3,0.3,0.6,0.5,0.8c0.1,0.4,0.4,0.8,0.5,1.3c0.1,0.2,0,0.3,0.1,0.4c0,0.1,0.1,0.2,0.1,0.2
		c0.1,0.4,0,0.8,0.2,1.1c0.2-0.3,0.6-0.4,0.9-0.6c0.1-0.1,0.2-0.2,0.3-0.2C64.6,39.8,65,39.8,65.2,39.5 M38.7,89.4
		c0-0.2,0.1-0.3,0-0.4c-0.2-1-1.8-0.9-1.8,0.1c0.5,0.4,1,0.9,1.7,1.1C38.8,90,38.7,89.7,38.7,89.4 M31.9,75.7
		c-0.2-0.2-0.2-0.6-0.3-0.9c-0.2,0-0.3-0.2-0.6-0.2c-0.2-0.3-0.5-0.7-0.7-1.1c-0.2-0.4-0.2-0.9-0.6-1.2c0,0.5-0.1,1-0.4,0.9
		c-0.4,0-0.3-0.9-0.6-1.1c0-0.3-0.2-0.4-0.2-0.8c-0.5,0-0.6-0.5-0.8-0.8h-0.4c-0.6-0.8-0.6-2.2-1.6-2.6c0.1,0.3,0.2,0.7,0.4,0.9
		c0.2,0.3,0.3,0.6,0.4,0.8c0.2,0.3,0.3,0.6,0.4,0.8c0.1,0.1,0.2,0.3,0.2,0.4c0.1,0.2,0.1,0.2,0.2,0.3c0,0.1,0,0.1,0,0.2
		c0.1,0.2,0.2,0.3,0.2,0.4c0,0.1,0,0.2,0,0.3c0,0.1,0.1,0,0.1,0.1c0.1,0.2,0.1,0.5,0.3,0.7c0.1,0.2,0.4,0.3,0.6,0.5
		c0,0.4-0.1,0.6-0.2,0.8c0.1,0.2,0.1,0.2,0.2,0.3c0,0,0,0.1,0,0.1c0.1,0.2,0.2,0.2,0.3,0.3c0.1,0.1,0.1,0.2,0.2,0.4
		c-0.1,0.2,0.1,0.1,0.1,0.4C30.1,75.5,30.9,75.9,31.9,75.7 M23.8,61.6c1.2,0.2,1.7-0.8,1.6-1.8c-0.2-0.1-0.4,0-0.7,0
		c-0.3-0.2-0.4-0.5-0.6-0.7c-0.6,0-0.8,0.5-1.2,0.6C23.1,60.4,23.5,60.9,23.8,61.6 M24.6,41.6c0.2-0.1,0.4-0.3,0.5-0.5
		c-0.8-0.2-1.4-0.4-2-0.7c-0.4-0.2-0.9-0.4-1.2-0.7c-0.8-0.5-1.6-0.9-2.5-1.3c-0.1-0.2-0.2-0.2-0.4-0.3c-0.2-0.2-0.4-0.3-0.6-0.5
		c-0.7-0.5-1.4-0.9-1.9-1.5c-0.2-0.1-0.3-0.2-0.5-0.3c-0.1,0-0.1-0.1-0.1-0.2c-0.1-0.1-0.3-0.1-0.4-0.2c-0.2-0.1-0.4-0.3-0.5-0.4
		c-0.2-0.1-0.4-0.2-0.5-0.3c-0.2-0.1-0.5-0.3-0.8-0.4c-0.2-0.3-0.6-0.5-1-0.8c-0.3-0.2-0.7-0.5-1-0.7c-0.1,0,0-0.1,0-0.1
		c-0.3-0.2-0.7-0.5-1.1-0.7C10,32,9.6,31.7,9,31.6c-0.5-0.1-1.3-0.1-1.7,0c-0.4,0.2-0.9,0.3-1.2,0.6c-0.2,0.1-0.4,0.3-0.5,0.4
		c-0.1,0.1-0.2,0.2-0.4,0.3c-0.1,0.1-0.2,0.1-0.3,0.1c-0.4,0.3-0.5,0.7-0.7,1.2c-0.1,0.3-0.4,0.7-0.4,0.9c0,0-0.1,0-0.1,0
		c0,0.1,0,0.2-0.1,0.4c-0.1,0.3-0.2,0.7-0.3,1c0,0.1-0.1,0.2-0.1,0.3c0,0.1,0,0.2,0,0.3c0,0-0.1,0-0.1,0c0,0.1,0,0.2,0,0.2
		c0,0.1-0.1,0.1-0.1,0.1c-0.1,0.2,0,0.4-0.1,0.6c0,0.1-0.1,0.1-0.1,0.2c0,0.3,0,0.6-0.1,0.9c-0.2,1.4-0.2,2.8-0.2,4.5
		c0,1.8,0.1,3.8,0.1,5.4c0.1,1.8,0,3.6-0.1,5.2c0.3-0.4,0.7-0.6,1.1-0.8c0.3-0.3,0.6-0.8,0.8-1.2c0,0,0-0.1,0-0.1c0,0,0.1,0,0.1,0
		c0-0.1,0-0.4,0.1-0.5c0.1-0.5,0.3-1.1,0.3-1.6c0-0.2,0-0.4,0-0.5c0-0.1,0.1-0.1,0.1-0.2c0-0.4,0-0.7,0-1.1c0-0.1,0.1-0.2,0.1-0.2
		C5.1,47,4.8,46,5,45.2C5,45.1,5,45,5,45c0-0.3-0.1-0.7,0-1c0.3,0.5,0.2,1.4,0.2,2.1c0.1,0.2,0.2,0.5,0.3,0.7
		c0.2,1.4-0.2,3.8-0.1,5.1c0.2-0.1,0.4-0.2,0.5-0.4c0.2-0.1,0.4-0.2,0.6-0.3c0.3-0.2,0.4-0.7,0.5-1c0.1-0.2,0-0.3,0.1-0.6
		c0-0.1,0.1-0.1,0.1-0.2c0-0.2,0-0.5,0-0.7c0-0.1,0.1-0.1,0.1-0.2c0.1-1.5-0.1-3.4,0-4.9c0-0.1,0.1-0.2,0.1-0.2
		c0.1-0.4-0.1-0.9,0.3-1.1c0.2,0.1,0.2,0.3,0.3,0.5c0.1,0.9,0,2,0,3.1c0,1.1-0.1,2.1,0.1,3c0.2-0.2,0.5-0.3,0.7-0.5
		c0.1-0.1,0.1-0.2,0.1-0.3c0.1-0.1,0.3-0.2,0.4-0.3c0,0,0-0.1,0-0.2c0.1-0.1,0.1-0.2,0.2-0.3c0.1-0.1,0.1-0.1,0.1-0.2
		c0-0.1,0.1-0.2,0.2-0.4c0-0.1,0.1-0.2,0.1-0.3c0.5-1.7-0.1-3.8,0.1-5.8c0-0.4,0.2-0.7,0.3-1.1c0.1-0.6-0.2-1.1-0.1-1.6
		c0,0,0.1,0,0.1-0.1c0-0.1,0-0.2,0-0.2c0.1,0,0.1,0.1,0.1,0.1c0,0.1,0.1,0,0.1,0c0,0.1,0,0.2,0,0.2c0,0.1,0.1,0,0.1,0.1
		c0.1,0.8,0,1.7,0,2.6c0.1,1.6,0.2,3.5,0,5.1c0.3,0,0,0.2,0.2,0.2c0.5-0.2,0.9-0.6,1.4-0.8c0.1-0.2,0.3-0.4,0.5-0.5
		c0-0.3,0.3-0.4,0.3-0.7c0-0.1,0.1-0.1,0.1-0.1c0-0.1,0-0.2,0-0.3c0,0,0.1-0.1,0.1-0.2c0-0.1,0-0.2,0-0.4c0-0.1,0.1-0.1,0.1-0.2
		c0-0.3-0.1-0.7,0-1.1c0-0.1,0.1-0.1,0.1-0.2c0.1-1.1-0.1-2.3,0.5-3c0.3,0.3,0.2,1,0.1,1.5c-0.1,1.4,0,3,0,4.3
		c1,0.2,1.5-0.4,2.1-0.7c0.1-0.7,0.6-1.4,0.7-2.2c0.1-0.6,0-1.2,0.4-1.5c0.4,1.3-0.1,2.9-0.4,4.1c0.5,0.3,1.3,0.6,2.1,0.4
		c0.1-0.5,0.3-1,0.4-1.5c0-0.2-0.1-0.5,0.1-0.7C19,42.4,19,42,19.3,42c0.4,0.9,0,2.1-0.2,3c0.1,0.1,0.2,0.2,0.3,0.3
		c0.5-0.1,1-0.1,1.2-0.4c0-0.2,0.1-0.3,0.2-0.4c0.1-0.4,0-1,0.4-1c0.5,0,0.1,1,0.1,1.3c0.1-0.2,0.2-0.3,0.3-0.4
		c0.3-0.2,0.4-0.4,0.6-0.6c0.6-0.6,1.3-1.2,1.9-1.8C24.3,41.9,24.5,41.8,24.6,41.6 M21.2,63.8c0.1-0.7,0-1.3-0.3-1.8
		c0-0.1,0.2,0,0.1-0.2c-0.3-0.9-0.7-1.7-1-2.5c-0.3-0.8-0.7-1.6-1.1-2.5c0,0-0.1,0-0.1,0c-0.3,0.1-0.6,0.5-1,0.6c-0.2,0-0.3,0-0.6,0
		c0,0.2-0.2,0.1-0.1,0.3C17,57.8,17,58,16.9,58.2c-0.1,0.2-0.3,0.3-0.4,0.5c-0.5,0.7-1.2,1.1-1.9,1.6c-0.4,0.2-0.7,0.5-1.1,0.6
		c-0.7,0.8-1.5,1.6-2.6,2c-0.8,1.9-2.2,3.2-3.6,4.5c-0.1,0,0-0.2-0.2-0.1c0,0.2-0.1,0.2-0.1,0.4c-0.2,0.1-0.3,0.4-0.4,0.6
		c-0.1,0.2-0.2,0.3-0.3,0.4C5.7,69,5.4,69.4,5,69.8c-0.1,0.5-1.1,0.9-0.7,1.6c0.1,0.2,0.2,0.3,0.3,0.5c0.1,0.5-0.1,1.1,0,1.7
		c0,0.3,0.1,0.9,0.2,1.2c0,0.2,0,0.4,0,0.5c0,0.4,0.1,0.7,0.2,1.1c0.1,0.7,0,1.6,0,2.5c0,1,0.1,2,0,2.8c0,0.5-0.2,1.2-0.3,1.5
		c0,0.2-0.1,0.2-0.1,0.4c0,0.2-0.1,0.2-0.1,0.3c0,0.2,0,0.2-0.1,0.3c-0.1,0.1-0.1,0.3-0.2,0.4c0.4-0.3,0.9-0.6,1.2-0.9
		c0.1-0.1,0.2-0.2,0.3-0.3c0.2-0.2,0.4-0.4,0.5-0.6c0.1-0.1,0.2-0.2,0.3-0.3c0,0,0.1-0.1,0.1-0.2c0.1-0.2,0.2-0.4,0.3-0.6
		c0,0,0-0.1,0.1-0.2c0,0,0.2-0.1,0.2-0.1c0,0,0-0.1,0-0.2c0-0.1,0.1,0,0.1-0.1c0.4-0.9,0.1-2.4,0.3-3.4c0.1-0.6-0.1-1.2-0.1-1.6
		c0-0.3,0-0.6-0.1-0.8c0-0.1-0.1,0-0.1-0.1c0-0.1,0-0.2,0-0.3c0-0.1-0.1,0-0.1-0.1c0-0.2-0.1-0.3-0.1-0.4c0-0.1,0-0.2,0-0.3
		c0-0.1-0.1,0-0.1-0.1c0-0.1,0-0.3,0-0.4C7,73,6.9,72.2,6.9,71.6c0-0.2,0.1-0.5,0.3-0.7c0.1,0.1,0.2,0.2,0.4,0.2
		c0.4,2.5,1.4,5,1.1,8c0.9-0.5,1.5-1.3,2-2.3v-0.4c1-1.2,0.6-3.6,0.5-5.4c0-0.1-0.1,0-0.1-0.1c0-0.5-0.2-0.9-0.2-1.5
		c0-0.1-0.1,0-0.1-0.1c-0.1-0.9,0-1.8-0.3-2.6c0.1-0.2,0.2-0.4,0.3-0.5c0-0.2-0.1-0.5,0.1-0.6c0.2,0.1,0.2,0.4,0.3,0.7
		c0,0.1,0.1,0.2,0.1,0.4c0,0.1,0.1,0,0.1,0.1c0,0.2,0,0.4,0.1,0.6c0,0.1,0.1,0,0.1,0.1c0.1,0.4,0.2,0.8,0.2,1.3
		c0.1,0.1,0.1,0.3,0.2,0.5c0.1,0.4,0.2,1.1,0.3,1.5c0.2,1.1,0.2,2.2,0.3,3.4c0.1-0.1,0.2-0.3,0.3-0.4c0.2-0.3,0.4-0.4,0.7-0.7
		c0.1-0.1,0.1-0.2,0.2-0.3c0.1-0.2,0.2-0.2,0.3-0.4c0-0.1,0.1,0,0.1,0c0.1-0.2,0.2-0.4,0.3-0.6c0.1-0.1,0.2-0.4,0.3-0.5
		c0-0.1,0.1-0.1,0.1-0.1c0-0.1,0-0.2,0-0.3c0-0.1,0.1,0,0.1-0.1c0-0.2,0-0.3,0-0.5c0.2-0.1,0.1-0.5,0-0.6V69c0.1-0.1-0.1,0-0.1-0.2
		v-0.4c-0.1,0-0.1-0.3-0.1-0.4c-0.1-0.1-0.1-0.3-0.1-0.4c0-0.2-0.1-0.4-0.2-0.5c-0.1-0.4-0.2-0.8-0.2-1.2C14,65.6,14,65.4,14,65.1
		c-0.1-0.2-0.2-0.6-0.3-0.8c0-0.3-0.3-0.8-0.3-1.2c0-0.4,0.1-0.6,0.2-0.9c0,0,0.1,0,0.1,0c0.1-0.2,0-0.4,0.2-0.6
		c0.1,0,0.1-0.1,0.3,0c0.5,2.8,2,4.7,2.2,7.9c0.2-0.1,0.4-0.3,0.5-0.4H17c0.1-0.2,0.3-0.4,0.5-0.5c0.3-0.3,0.5-0.5,0.7-0.8
		c0.1-0.2,0.2-0.4,0.4-0.5c0-0.2,0.2-0.4,0.2-0.6c0.1-0.5,0-1,0-1.5c0-0.1-0.1,0-0.1-0.1c0-0.1,0-0.3,0-0.4c0-0.1-0.1,0-0.1-0.1
		c0-0.2-0.1-0.4-0.1-0.5c0-0.2,0-0.3-0.1-0.4c-0.1-0.2-0.1-0.5-0.2-0.8c-0.1-0.6-0.2-1.1-0.2-1.7c-0.2-0.2-0.3-0.4-0.4-0.7
		c0.3-0.2,0.6-0.1,0.9-0.1c0.7,1.5,1.2,3.1,1.3,5.2c0.2,0,0.4-0.1,0.5-0.2c0.2-0.2,0.4-0.3,0.5-0.5C20.9,64.4,21.1,64,21.2,63.8
		 M20,46.3c0-0.3,0.3-0.4,0.4-0.7c-0.6,0.2-1.4,0.1-1.7-0.3c-0.7,0.5-2.1,0.3-2.5-0.2c-0.5,0.4-1.2,0.6-2.2,0.5
		c-0.1-0.1-0.3-0.1-0.5-0.1c-0.9,0.6-1.7,1.4-3,1.5c0,0.4-0.3,0.9-0.5,1.1c0,0,0,0.1,0,0.1c0,0.1-0.1,0.1-0.1,0.1
		c-0.5,0.6-1.1,1.2-1.8,1.6c-0.1,0.9-0.5,1.5-1,2c-0.6,0.5-1.6,0.7-2,1.4c-0.1,0-0.2,0.1-0.4,0.2c-0.1,0.1-0.2,0.1-0.3,0.2
		c-0.2,0.2-0.3,0.4-0.4,0.7c-0.1,0.1-0.2,0.1-0.2,0.2c-0.1,0.1-0.1,0.2-0.2,0.4c-0.1,0.1-0.2,0.1-0.3,0.2c0,0-0.3,0.3-0.3,0.3
		c0,0.1,0,0.1,0,0.2c-0.2,0.2-0.4,0.4-0.4,0.7c0,0.4,0.4,0.8,0.3,1.3c0.2,0.1,0.1,0.3,0.1,0.4c0,0.1,0.1,0,0.1,0.1
		C3,58.6,3,58.7,3,59c0.1,0,0.1,0.3,0.1,0.4c0.1,0.7,0.4,1.4,0.4,2.2c0,0.1,0.1,0,0.1,0.1v0.4c0.2,0.1,0,0.5,0.2,0.6
		c0.2,1.5,0.5,3.4,0.3,5c-0.1,0.7-0.4,1.3-0.5,1.9c0.3-0.2,0.5-0.5,0.8-0.8c0.3-0.3,0.6-0.5,0.9-0.8c0.4-0.5,1-1,1.1-1.6
		c0,0,0.1,0,0.1,0c0-0.1,0-0.2,0-0.2c0-0.1,0.1,0,0.1-0.1c0.1-0.4-0.1-0.9,0-1.5c-0.1-0.2-0.2-0.7-0.3-0.9c-0.2-0.5-0.3-1-0.4-1.6
		c-0.1-0.1-0.1-0.4-0.2-0.7c0-0.1-0.1,0-0.1-0.1c0-0.1,0-0.2,0-0.2c0-0.1-0.1,0-0.1-0.1c-0.2-0.7-0.2-1.7,0.1-1.9
		c0.4,0.6,0.7,1.3,0.8,2.2c0.1,0,0.1,0.2,0.1,0.4c0,0.1,0.1,0,0.1,0.1c0,0.1,0,0.2,0,0.2c0,0.1,0.2,0.4,0.2,0.4
		c0.1,0.1,0.1,0.3,0.1,0.3c0,0.1,0,0.2,0,0.2c0,0.1,0.1,0,0.1,0.1c0.1,0.5,0.2,1,0.2,1.6c0,0.1,0.1,0,0.1,0.1v0.6
		c0.3,0,0.3-0.2,0.6-0.2c0.3-0.4,0.7-0.7,1-1c0-0.2,0.1-0.2,0.2-0.3c0,0,0-0.1,0-0.2c0,0,0.2-0.1,0.2-0.1c0,0,0-0.1,0-0.1
		c0,0,0.1,0,0.1,0c0.3-0.5,0.5-0.9,0.8-1.3c0-3-1-5-1.2-7.8c0.2,0,0.2-0.2,0.4-0.3c0.5,0.4,0.4,1.4,0.5,1.9c0,0.2,0,0.5,0.1,0.7
		c0,0.1,0.1,0,0.1,0.1c0.1,0.4,0.1,0.8,0.2,1.2c0,0.1,0.1,0,0.1,0.1c0,0.2,0.1,0.2,0.1,0.3c0.1,0.4,0.3,1.1,0.4,1.4
		c0.1,0.5,0.1,1,0.2,1.5c1.4-1,3.1-1.8,2.8-4.2c0-0.2-0.1-0.4-0.1-0.5c-0.3-1.6-1.1-2.9-1.1-4.8c-0.2-0.1-0.1-0.4-0.1-0.5
		c0-0.1-0.1-0.1-0.1-0.2c0-0.1,0.1-0.1,0.1-0.1c0.1-0.2,0-0.3,0.1-0.4c0.1-0.1,0.1-0.1,0.2,0c0.2,0.2,0.2,0.5,0.3,0.8
		c0,0.1,0.1,0,0.1,0.1c0,0.2,0,0.2,0.1,0.3c0.3,0.8,0.4,1.7,0.6,2.6c0.1,0.3,0.2,0.6,0.3,0.9c0.1,0.2,0.2,0.5,0.3,0.7
		c0.1,0.5,0.2,1,0.2,1.5c0,0.1,0.1,0,0.1,0.1c0.1,0.3-0.1,0.7,0.1,0.8c0.5-0.2,0.7-0.6,1.2-0.8c0.2-0.3,0.5-0.6,0.8-0.8
		c0.2-0.4,0.2-0.9,0.2-1.5c-0.1,0-0.1-0.3-0.1-0.4c0-0.1-0.1,0-0.1-0.1c0-0.1,0-0.2,0-0.2c0-0.1-0.1,0-0.1-0.1
		c-0.2-0.6-0.4-1.2-0.4-1.9c0-0.1-0.1,0-0.1-0.1v-0.4c0-0.1-0.1,0-0.1-0.1c0-1.1-0.3-2.1-0.5-3c0.2-0.1,0.6-0.1,0.8,0.1
		c0.1,0.3,0,0.6,0.1,1c0,0.2,0.1,0.4,0.2,0.6c0.1,0.5,0.2,1,0.3,1.5c0,0.1,0.1,0,0.1,0.1c0,0.2,0.1,0.2,0.1,0.3
		c0,0.2,0.1,0.2,0.1,0.3c0.3,1,0.5,2.3,0.4,3.5c0,0.2-0.2,0.5,0,0.6c0.4-0.2,0.8-0.3,1.1-0.6c0-0.3-0.2-0.5-0.3-0.7v-0.2
		c-0.2-0.1-0.3-0.4-0.4-0.6c-0.1-0.2-0.2-0.5-0.2-0.8c-0.1,0-0.1-0.2-0.2-0.3c0-0.1-0.1-0.2-0.1-0.3c-0.3-1-0.2-2.4,0-3.3
		c0-0.1,0-0.2,0-0.3c0,0,0.1,0,0.1-0.1c0-0.2,0-0.2,0.1-0.3c0,0,0-0.1,0-0.1c0,0,0.1,0,0.1,0c0-0.1,0-0.2,0-0.3c0,0,0.1,0,0.1,0
		c0,0,0-0.1,0-0.1c0.1-0.3,0.2-0.5,0.4-0.7c0.2-0.3,0.4-0.7,0.6-0.8c0.2-0.2,0.5-0.3,0.5-0.6C19.6,46.7,19.7,46.4,20,46.3"/>
	<path class="st3" d="M87.2,68.3c-0.6,0.1-0.8-0.6-1.1-0.8c-0.2-0.7-0.5-1.2-0.7-2c-0.3-0.7-0.5-1.5-0.8-2.3
		c-0.1-0.4-0.3-0.9-0.4-1.4c-0.1-0.5-0.2-1.1-0.3-1.6c0-0.1-0.1-0.1-0.1-0.1c-0.1-0.2,0-0.4-0.1-0.6c-0.1-0.2-0.2-0.6-0.2-0.9
		c0.2,0,0.2-0.2,0.4-0.1v0.3C84.8,62.1,85.4,65.8,87.2,68.3"/>
	<path class="st3" d="M82.6,66.9c-0.5,0.4-0.9-0.3-1.2-0.6c0-0.3-0.2-0.3-0.3-0.5c-0.3-0.3-0.8-0.8-1-1.2c-0.1-0.3-0.2-0.5-0.3-0.8
		c0-0.1-0.1-0.3-0.2-0.4c-0.1-0.6-0.2-1.2-0.3-1.9c0-0.1-0.1-0.1-0.1-0.1c-0.1-0.2,0-0.5-0.1-0.7c0-0.1,0-0.2-0.1-0.4
		c0-0.1-0.1-0.1-0.1-0.4c-0.1-0.7-0.4-1.4-0.4-2.3c0-0.1-0.1-0.2-0.1-0.4c0.5-0.1,0.6,0.2,1,0.3c0.1,0.4,0.2,1,0.3,1.5
		c0.1,0.6,0.1,1.4,0.2,1.9c0,0.1,0.1,0.1,0.1,0.1c0.1,1.1,0.5,1.9,0.7,2.9c0.1,0,0.1,0.1,0.1,0.1c0.1,0.1,0.1,0.2,0.2,0.4
		c0.1,0.2,0.3,0.5,0.4,0.7c0.1,0.2,0.2,0.4,0.4,0.6c0,0,0.1,0,0.1,0.1c0.1,0.1,0.2,0.2,0.3,0.3C82.4,66.5,82.5,66.7,82.6,66.9"/>
	<path class="st3" d="M79.6,34.1c0,0.2,0.3,0.2,0.3,0.4c-0.5,0-0.8-0.6-1.1-0.9c-0.1-0.1,0-0.1-0.1-0.3c-0.1-0.1-0.1-0.2-0.2-0.4
		c-0.3-0.5-0.5-1.3-0.6-1.9c-0.1-0.1-0.1-0.4-0.2-0.5c0.2,0.2,0.2,0.5,0.4,0.7v0.2c0.2,0.2,0.1,0.6,0.4,0.7c0.1,0.8,0.5,1.4,0.9,2
		H79.6z"/>
	<path class="st3" d="M78.7,48.6c0.1,0.7,0.5,1.2,0.6,1.7c-0.3,0-0.3-0.3-0.6-0.4c-0.3-1.2-0.9-2.1-0.9-3.6c0.1,0.1,0.2,0.2,0.2,0.4
		C78.3,47.2,78.4,47.9,78.7,48.6C78.6,48.6,78.6,48.6,78.7,48.6"/>
	<path class="st3" d="M76.3,59c0.3,0.4,0.9,1.2,0.4,1.6c-1.2-1.4-1.5-3.6-1.5-6.2h0.1c0.3,0.3,0.1,0.9,0.2,1.5
		C75.6,57.1,76,58.1,76.3,59"/>
	<path class="st3" d="M76.6,23.9c-0.1,0-0.1,0.1-0.1,0.1c-0.5-0.2-0.5-1.1-0.8-1.5c-0.2-0.2-0.3-0.4-0.5-0.5c0-0.2-0.1-0.2-0.1-0.3
		c-1.3-1.6-3.6-2-6.3-2.2c0-0.1,0.1-0.2,0.1-0.3c0,0,0.1,0,0.1,0c0,0,0-0.1,0-0.1c0,0,0.2,0,0.3,0c0,0,0-0.1,0-0.1
		c0.5-0.1,1.4,0,1.8,0.1c0.1,0,0.1,0,0.4,0.1c0.1,0,0.2,0.1,0.3,0.1c0.1,0,0.2,0.1,0.3,0.1c0.4,0.1,1.1,0.4,1.5,0.5
		c0.2,0.3,0.6,0.4,0.9,0.6c0.1,0.1,0.3,0.3,0.4,0.5c0.3,0.2,0.6,0.5,0.8,0.9c0.2,0,0.1,0.2,0.3,0.2c0.1,0.4,0.5,0.6,0.5,1.2
		C76.5,23.4,76.5,23.6,76.6,23.9"/>
	<path class="st3" d="M75.9,32.7v0.4c-0.5,0-0.7-0.4-1-0.7c-0.1-0.1-0.1-0.2-0.2-0.4c-0.1-0.2-0.2-0.3-0.3-0.6
		c0-0.1-0.2-0.4-0.3-0.6c0-0.1,0-0.3,0-0.4c-0.1-0.5-0.3-0.9-0.4-1.4h0.1c0.1,0.2,0.1,0.5,0.3,0.7c0,0.1,0,0.2,0,0.2
		c0,0,0.1,0,0.1,0c0.1,0.2,0.1,0.5,0.2,0.7c0,0,0.1,0,0.1,0c0.2,0.5,0.2,1,0.6,1.4C75.4,32.3,75.7,32.5,75.9,32.7"/>
	<path class="st3" d="M74.9,47.6c0.2,0.2,0.6,0.2,0.4,0.7c-0.2,0.1-0.4,0-0.5-0.1c-0.1-0.1-0.2-0.1-0.4-0.2
		c-0.2-0.2-0.2-0.3-0.4-0.6c-0.1-0.1,0-0.1-0.1-0.2c-0.2-0.4-0.5-1.2-0.6-1.7c0-0.1,0-0.2,0-0.3c0-0.1-0.1-0.1-0.1-0.1
		c0-0.1,0.1-0.4-0.1-0.4v-0.4c0-0.1-0.1-0.1-0.1-0.1c0-0.9-0.2-1.6-0.3-2.4c0.3,0,0.3,0.1,0.4,0.2c0,0.5,0.2,0.8,0.2,1.2
		c0,0.1,0.1,0.1,0.1,0.1c0.1,1.3,0.3,2.4,0.7,3.4c0.1,0.2,0.2,0.4,0.4,0.6C74.7,47.3,74.8,47.5,74.9,47.6"/>
	<path class="st3" d="M71.8,30.2c0.1,0.3,0.5,0.9,0.2,1.2c-1.1-1-1.4-2.7-1.5-4.6c0.2,0,0.2,0.2,0.5,0.1c0.1,0,0,0.2,0.1,0.2v0.4
		C71.4,28.4,71.7,29.2,71.8,30.2"/>
	<path class="st3" d="M71.9,56.8c-0.3,0-0.3-0.3-0.4-0.5c-0.1-0.3-0.3-1-0.4-1.3c-0.1-0.8-0.3-1.4-0.3-2.3c0.1-0.1,0.1-0.2,0.4-0.1
		c0.1,0.1,0.1,0.3,0.1,0.4c0,0.1,0.1,0.1,0.1,0.2c0.1,0.7,0,1.4,0.1,2.1c0,0.2,0.2,0.5,0.3,0.8C71.8,56.3,71.9,56.5,71.9,56.8"/>
	<path class="st3" d="M70.6,44.2c-0.1,0.8,0.5,1,0.5,1.8c-0.2,0-0.2-0.1-0.4-0.3c-0.1-0.1-0.2-0.1-0.3-0.3c0,0,0-0.1,0-0.1
		c-0.1-0.1-0.2-0.5-0.3-0.8c0,0-0.1,0-0.1-0.1c0-0.1,0-0.2,0-0.2c0-0.1-0.1-0.3-0.2-0.5c-0.1-0.6-0.2-1.2-0.2-1.9
		c-0.1-0.1-0.1-0.4-0.1-0.6c0.1,0,0.1,0,0.1-0.1c0.3,0.6,0.5,1.4,0.7,2.1c0,0.1,0,0.1,0.1,0.1C70.4,43.7,70.5,44,70.6,44.2"/>
	<path class="st3" d="M69.4,55.1c0,0.3,0.1,0.4,0,0.6c-0.4-0.4-0.4-1.2-0.6-1.8C69.1,54.2,69.2,54.7,69.4,55.1"/>
	<path class="st3" d="M68.3,30.3c0.2,0.3,0.5,0.6,0.5,0.9c-0.5-0.2-0.7-0.7-0.8-1.3c-0.1-0.2,0-0.6-0.2-0.8c0-0.6-0.3-0.9-0.3-1.5
		c0.4,0.6,0.4,1.4,0.7,2.2c0,0,0.1,0,0.1,0c0,0.1,0,0.2,0,0.2c0,0.1,0.1,0,0.1,0C68.3,30.2,68.2,30.3,68.3,30.3"/>
	<path class="st3" d="M66,30.9c-0.4-0.2-0.7-0.5-0.8-1c-0.2-0.3-0.5-0.8-0.6-1.1c0.1,0,0.2,0.1,0.2,0.2c0.2,0.1,0.2,0.3,0.3,0.5
		C65.3,30.1,65.7,30.5,66,30.9"/>
	<path class="st3" d="M64,32.6c-0.3,0.1-0.4-0.2-0.6-0.4c-0.2-0.2-0.4-0.3-0.5-0.7c-0.3-0.2-0.3-0.6-0.5-0.9c0-0.1,0.1-0.1,0-0.2
		c0,0,0,0,0,0c0.4,0.4,0.5,1,0.9,1.4C63.6,32.2,63.8,32.4,64,32.6"/>
	<path class="st3" d="M60.6,32.4c0.5,0.3,0.8,0.9,1.2,1.3C61,33.6,60.8,33,60.6,32.4L60.6,32.4z"/>
	<path class="st3" d="M55,68.8c0.2,0.4,0.3,1.3-0.3,1.5c0,0.4,0,0.6-0.2,0.8c-0.4,0.1-0.6-0.1-0.8-0.2c0,0.6,0.4,1.8-0.2,2.1
		c-0.9,0-0.4-1.4-1-1.8c-0.4,0.3,0.1,1.3-0.5,1.4c-0.3,0-0.3-0.4-0.5-0.4c0.1-0.2-0.1-0.1-0.1-0.4c-0.2,0.1-0.6,0.1-0.8,0
		c-0.3-0.3-0.1-1,0-1.5c-0.1-0.1-0.1-0.3-0.2-0.4c0.1-0.9-0.3-1.3-0.7-1.7c-0.1-2.1-1.2-3.1-1.2-5.3c0-0.1-0.1-0.1-0.1-0.1
		c0-0.7-0.2-1.3-0.4-1.9c-0.1-0.2-0.2-0.4-0.2-0.5c0-0.3-0.2-0.5-0.4-0.8c-0.1-0.2-0.1-0.3-0.2-0.4c-0.1-0.2-0.2-0.5-0.3-0.8
		c-0.1-0.1-0.2-0.5-0.3-0.7c-0.1-0.3-0.2-0.9-0.3-1.3c0-0.1,0-0.1-0.1-0.3c0-0.1-0.1-0.1-0.1-0.1c0-0.1,0-0.2,0-0.2
		c0,0-0.1,0-0.1-0.1c0-0.1,0-0.1,0-0.2c0,0-0.1,0-0.1-0.1c-0.1-0.2-0.1-0.5-0.3-0.8c-0.2-0.2-0.3-0.8-0.5-1.1c0-0.6-0.1-0.9,0-1.3
		c0,0,0.1,0,0.1,0c0.2-0.4,0.5-0.4,1-0.5c0.1,0,0-0.1,0.1-0.1c0.1,0,0.2,0,0.3-0.1c0.1,0,0.1-0.1,0.3-0.1c0.4-0.3,0.9-0.6,1.5-0.6
		c0.1,0,0.1,0.1,0.1,0.1c0.1,0,0.2,0,0.4,0c0.4,0.1,0.7,0.4,1,0.6c0.3,0.8,0.3,1.6,0.4,2.4c0,0.2,0.1,0.4,0.1,0.7
		c0,0.3,0.2,0.9,0.3,1.3c0,0.1,0.1,0.2,0.2,0.3c0.1,0.2,0.1,0.3,0.2,0.5c0.2,0.3,0.3,1,0.4,1.5c0,0.1,0.1,0.1,0.1,0.1
		c0.1,0.2,0,0.4,0.1,0.6c0.2,0.8,0.5,1.5,0.6,2.3c0.1,0.2,0.2,0.5,0.3,0.8c0.3,0.4,0.4,1,0.7,1.5c0,0,0.1,0,0.1,0
		c0.1,0.1,0,0.4,0.1,0.5c0,0,0.2,0.3,0.2,0.4c0.1,0.8,0.1,1.6,0.2,2.4c0.2,0.5,0.7,1.1,1,1.6C54.8,68.7,54.9,68.7,55,68.8"/>
	<path class="st3" d="M54.1,20c0.2,0.5,0.3,1.8,0.1,2.5c0,0.1-0.1,0.3-0.2,0.4c-0.1,0.3-0.2,0.7-0.4,0.9c0,0-0.1,0.1-0.1,0.1
		c-0.1,0.2-0.3,0.3-0.4,0.5c-0.2,0.2-0.3,0.3-0.6,0.5c-0.3,0.2-0.5,0.4-0.9,0.6c-0.5,0.3-1.3,0.4-2.1,0.2c0,0,0-0.1-0.1-0.1
		c-0.2,0-0.3-0.1-0.5-0.2c-0.4-0.2-0.8-0.4-1-0.8c-0.3-0.4-0.6-1-0.9-1.5c-0.2-0.3-0.5-0.5-0.7-0.9c-0.5-0.4-0.8-1-1.3-1.4
		c-0.1-0.1-0.3,0-0.4-0.1c0,0,0-0.1-0.1-0.1c-0.5-0.1-1.1-0.1-1.5,0c-0.1,0-0.1,0.1-0.1,0.1c-0.1,0-0.2,0-0.3,0c0,0,0,0.1-0.1,0.1
		c-0.2,0.1-0.5,0.2-0.7,0.3c-0.4,0.2-0.6,0.6-1.1,0.6c-0.1-0.3-0.1-0.6,0-0.8c0,0,0.1-0.1,0.1-0.1c0.5-0.9,1.5-1.8,2.1-2.5
		c0.4,0,0.4-0.5,0.8-0.6c0.2-0.3,0.5-0.5,0.9-0.7c0.4-0.4,1-0.6,1.6-0.8c0.2,0,0.4-0.1,0.6-0.2c0.9-0.1,1.8-0.3,2.6-0.1
		c0.5,0.1,0.9,0.3,1.3,0.4c0.4,0.1,0.8,0.4,1.2,0.5c0.3,0.3,0.7,0.4,1,0.8c0.1,0.1,0.1,0.3,0.2,0.4c0.1,0.1,0.2,0.3,0.3,0.4
		C53.7,18.9,53.9,19.6,54.1,20 M52.9,22.7c0-0.2,0-0.6,0-0.8c0-0.2-0.3-0.4-0.4-0.7c-0.1-0.3-0.1-0.7-0.1-1.1
		c-0.1-0.1-0.2-0.3-0.3-0.5c-0.3-0.3-0.7-0.7-0.9-1c0,0-0.1,0-0.1,0c-0.3-0.2-0.5-0.4-0.9-0.6c0,0,0-0.1,0-0.1c-0.1,0-0.2,0-0.2,0
		c-0.1,0,0-0.1-0.1-0.1c-1.1-0.3-2.5-0.3-3.8,0c-0.3,0.2-0.7,0.3-1,0.4c-0.3,0.1-0.6,0.4-0.9,0.4c-0.4,0.4-0.8,0.6-1.2,0.9
		c-0.1,0.1-0.2,0.2-0.3,0.3c-0.1,0.1-0.2,0.2-0.3,0.3c-0.2,0.2-0.4,0.4-0.5,0.6c0.9-0.6,2.5-0.6,3.5-0.2c0.2,0.3,0.6,0.3,0.8,0.5
		c0.1,0.1,0.2,0.2,0.3,0.4c0.3,0.3,0.5,0.6,0.8,0.8c0,0.1,0.1,0.3,0.2,0.4c0.5,0.7,1.1,1.4,1.7,2.1c0.6,0.3,1.1,0.4,1.7,0.3
		C51.9,24.7,52.8,23.7,52.9,22.7"/>
	<path class="st3" d="M53,44c-0.1,0.4-0.5,0.5-0.8,0.7c-0.2,0.1-0.4,0.1-0.6,0.3c-0.4,0.1-0.9,0.2-1.3,0.3c-0.4,0.1-0.9,0.2-1.3,0.3
		c-0.4,0.1-0.8,0.3-1.3,0.4c-0.9,0.3-1.8,0.6-2.7,0.8c-0.3,0.1-0.6,0.2-1,0.3c-0.3,0.1-0.5,0.1-0.8,0.2c-0.8,0.2-1.8,0.4-2.7,0.6
		c-0.1,0-0.1,0.1-0.1,0.1c-0.1,0-0.4-0.1-0.4,0.1c-2.7,0.4-5.4,1-8.1,1.3c-0.1,0-0.1,0.1-0.2,0.1c-0.1,0-0.2,0-0.4,0
		c-0.1,0-0.1,0.1-0.2,0.1c-0.2,0-0.4-0.1-0.6,0.1c-3.1,0.4-7.6,0.7-9.4-1c-0.2-0.5,0-1.2,0.3-1.6c0.2-0.4,0.6-0.8,0.8-1.1
		c0.2-0.3,0.5-0.6,0.8-0.8c0.1-0.1,0.3-0.2,0.4-0.4c0.2-0.2,0.4-0.4,0.7-0.6c0.1-0.1,0.3-0.2,0.4-0.4c0.5-0.5,1.1-1,1.5-1.5
		c0.3-0.3,0.5-0.6,0.8-0.9c0.6-0.7,1.4-1.4,2-2.2c0.3-0.4,0.8-0.8,1.1-1.3c0.1-0.1,0.1-0.2,0.2-0.4c0.1-0.1,0.1-0.2,0.2-0.3
		c0-0.2,0.1-0.4,0-0.6c0.1,0,0.2-0.2,0.4-0.1c-0.1-0.2,0.1-0.2,0.2-0.3c0.1-0.1,0-0.2,0.2-0.3c0-0.4,0.3-0.6,0.4-0.9
		c0.3,0.1,0.3-0.1,0.5-0.1c0.1,0,0,0.2,0.1,0.3c0,0,0.1,0,0.1,0c0,0.1,0.1,0.4,0.1,0.5c0.2,1-0.1,2.2-0.3,3.2c0,0.2,0,0.4-0.1,0.6
		c0,0.1-0.1,0.1-0.1,0.2c0,0.5,0,1,0,1.5c0,0.1,0.1,0.1,0.1,0.2c0,0.1,0,0.3,0,0.4c0.1,0.5,0.3,0.9,0.5,1.2c0.1,0.2,0.1,0.4,0.3,0.5
		c0,0,0.1,0,0.1,0c0,0.1,0.2,0.3,0.4,0.4c0.1,0.1,0.2,0.2,0.3,0.3c0,0,0.1,0,0.1,0c0.1,0.1,0.4,0.2,0.7,0.3c0,0,0,0.1,0,0.1
		c0.1,0,0.3,0,0.4,0.1c0.1,0,0.2,0,0.4,0.1c0.1,0,0.1,0.1,0.1,0.1c0.1,0,0.2,0,0.3,0c0.1,0,0.1,0.1,0.1,0.1c0.1,0,0.2,0,0.4,0
		c0.1,0,0.1,0.1,0.2,0.1c0.2,0,0.5,0,0.8,0c0.6,0.1,1.3,0.3,2,0.4c1.2,0.1,2.9,0,4.1-0.2c0.6-0.1,1.3-0.1,1.9-0.2
		c0.5-0.1,1.1,0,1.5-0.1c1.7-0.1,3.2-0.4,4.7-0.7c0.2-0.2,0.5-0.2,0.7-0.4C52.6,43.8,53,43.7,53,44"/>
	<path class="st3" d="M51.9,21.5c0.1,0.4,0.1,1,0,1.4c0,0.1,0,0.3-0.1,0.4c0,0-0.1,0-0.1,0c-0.1,0.3-0.3,0.6-0.5,0.8
		c-0.3,0.1-0.5,0.2-0.8,0.2c-0.3,0-0.5-0.2-0.7-0.3c-0.2-0.3-0.3-0.7-0.4-1.1c0.1-1.1,0.6-2.5,0.1-3.6c-0.2-0.4-0.6-0.6-0.9-0.9
		c-0.2,0-0.3-0.1-0.6,0c0-0.1-0.2-0.2-0.1-0.3c0.6-0.1,1.3-0.1,1.8,0.1c0,0,0,0.1,0.1,0.1c0,0,0.1,0,0.2,0c0,0,0.1,0.2,0.1,0.2
		c0.1,0,0.2,0,0.2,0.1c0.4,0.3,0.8,0.7,1.1,1.2c0.1,0.2,0.1,0.4,0.2,0.6c0,0,0.1,0,0.1,0c0,0,0,0.2,0,0.2c0.1,0.1,0,0,0.1,0.2
		C51.8,21.1,51.9,21.3,51.9,21.5"/>
	<path class="st3" d="M49.1,72c0.2,0.4,0.3,0.9,0.3,1.5c-0.2,0.2-0.5,0.2-0.8,0.1c-0.2-0.4-0.2-1-0.5-1.4c-0.4,0-0.5,0.5-1,0.4
		c0,0.4,0.2,0.8,0,1.2c-0.8,0.1-0.7-0.8-1.1-1.2c-0.2,0-0.2,0.3-0.4,0.4c-0.2,0.1-0.3,0-0.6,0c-0.1-0.2-0.1-0.4-0.4-0.5
		c-0.1,0.4,0,1.1-0.5,1.2c-0.5-0.1-0.6-0.6-0.9-0.9c-0.3,0.1-0.6,0.5-0.9,0.4c-0.2,0-0.3-0.2-0.4-0.2c-0.1-0.3-0.1-0.7-0.2-1.1
		c0-0.1-0.1-0.1-0.1-0.1c-0.1-0.3-0.1-0.6-0.2-0.9c0-0.1-0.1-0.1-0.1-0.1c-0.2-0.7-0.1-1.4-0.2-2.1c0-0.1-0.1-0.1-0.1-0.1
		c0-0.3-0.1-0.5-0.2-0.8c0,0-0.1,0-0.1,0c0-0.1,0-0.2,0-0.2c-0.1-0.1-0.2-0.3-0.2-0.4c-0.1-0.2-0.2-0.4-0.3-0.6
		c-0.1-0.1-0.1-0.3-0.2-0.4c0-0.1-0.1-0.1-0.2-0.2c-0.1-0.2-0.2-0.6-0.3-0.8c0-0.2,0-0.4-0.1-0.4c0-0.3,0-0.7-0.1-1
		c0-0.1-0.1-0.1-0.1-0.4c0-0.1-0.1-0.3-0.2-0.4c-0.1-0.3-0.1-0.6-0.2-0.9c0,0-0.1,0-0.1-0.1c-0.1-0.2-0.1-0.3-0.2-0.5
		c-0.1-0.1-0.1-0.3-0.2-0.4c-0.1-0.2-0.2-0.5-0.3-0.8c0,0-0.1,0-0.1,0c0-0.1,0-0.2,0-0.2c0-0.1-0.1-0.2-0.2-0.3
		c-0.2-0.4-0.3-0.9-0.5-1.4c0-0.1,0-0.1-0.1-0.4c-0.1-0.3-0.2-0.5-0.2-0.9c0-0.1-0.1-0.1-0.1-0.1c0.1-0.7-0.5-1.6-0.4-2.3
		c0-0.2,0.1-0.5,0.2-0.6c0,0,0.2,0,0.2,0c0.1-0.1,0.2-0.1,0.4-0.2c0.4,0.1,0.7-0.2,1-0.3c0.1-0.1,0.3-0.1,0.4-0.2
		c0.1,0,0.1-0.1,0.1-0.2c0,0,0.1,0,0.1,0c0,0,0.1-0.1,0.3-0.2c0.6-0.2,1.1,0,1.6,0.3c0.4,0.6,0.6,1.3,0.8,2.1c0,0.1,0,0.1,0.1,0.3
		c0,0.1,0,0.2,0.1,0.4c0,0.1,0,0.1,0.1,0.4c0,0.1,0.1,0.4,0.2,0.5c0.1,0.6,0.2,1.2,0.3,1.8c0,0.1,0,0.1,0.1,0.3
		c0,0.1,0.1,0.1,0.1,0.1c0.1,0.2,0,0.4,0.1,0.7c0.1,0.4,0.2,1.2,0.4,1.7c0,0.1,0.1,0.2,0.1,0.3c0,0,0.1,0.2,0.2,0.4
		c0.1,0.4,0,0.6,0.1,0.9c0.3,0.6,0.5,1.4,0.8,2.1c0,1,0.3,1.7,0.5,2.6c0,0.1,0.1,0.1,0.2,0.2c-0.1,0.1-0.1,0.2-0.1,0.4
		c1.3,0.2,2.1-0.5,3.4-0.4c0.8,0.8,0.8,2.6,1.1,4C49.3,71.9,49.2,71.9,49.1,72"/>
	<path class="st3" d="M48.8,6.2c-0.2,0.3-0.1,0.7-0.1,1c0,0.1-0.1,0.1-0.1,0.2c0,0.1,0,0.2,0,0.4c0,0.1-0.1,0.1-0.1,0.1
		c0,0.2,0,0.4,0,0.5c-0.1,0.5-0.4,0.9-0.7,1.2c-0.3,0.4-0.4,0.6-0.8,0.8c-0.6,0.5-1.2,1-1.9,1.4c0,0,0,0.1,0,0.1c0,0-0.1,0-0.1,0
		c0,0-0.1,0.1-0.1,0.1c-0.5,0.4-1.1,0.8-1.6,1.2c-0.4,0.4-1,0.7-1.3,1.2h-0.2c-0.3,0.4-0.7,0.8-1.1,1.1c-0.3,0.6-1,0.9-1.3,1.5
		c-0.4,0.4-0.8,0.8-1.1,1.3c-0.1,0.2-0.2,0.4-0.4,0.5c0,0.4-0.2,0.6-0.3,1.1c-0.1,0.7,0.1,1.7-0.1,2.2c-0.3,0.1-0.3,0-0.5,0
		c-0.1-0.3-0.2-0.6-0.4-0.8c-0.2-0.3-0.4-0.5-0.6-0.8c-0.1-0.2-0.3-0.6-0.4-0.8c-0.1-0.1-0.1-0.3-0.2-0.5c0-0.1-0.1-0.2-0.2-0.3
		c-0.3-0.7-0.6-1.4-0.8-2.1c-0.3-0.9-0.8-1.8-1.1-2.6c0-0.1-0.1-0.2-0.2-0.4c-0.1-0.2-0.1-0.4-0.1-0.6c0-0.3-0.2-0.6-0.2-0.8
		c-0.2-2.3,0.2-4.1,0.8-5.7c0.3-1,1.1-2.1,1.7-2.9c0.3-0.4,0.7-0.8,1.1-1.1c0.2-0.1,0.4-0.4,0.6-0.5c0.1,0,0.1,0,0.2-0.1
		c0.2-0.1,0.3-0.2,0.5-0.4c0.2-0.1,0.4-0.2,0.6-0.3c0.3-0.2,0.7-0.4,1.1-0.5c0,0,0-0.1,0-0.1c0.1,0,0.3,0,0.4,0
		c0.2-0.1,0.4-0.2,0.7-0.2c0.3,0,0.8,0.1,0.8-0.1h1c0,0.1,0,0.1,0.1,0.1c0.7,0.1,1.5-0.1,2.1,0C44.7,0.7,45,1,45.1,1.1
		c0,0,0.1,0,0.1,0c0.1,0.1,0.2,0.2,0.3,0.2c0.1,0,0.1,0.1,0.2,0.1c0.4,0.3,0.8,0.6,1.1,0.9c0.5,0.5,1,1,1.4,1.6
		c0.2,0.3,0.4,0.6,0.4,1C48.8,5.2,48.7,5.9,48.8,6.2 M47.7,8.1c0.2-0.7,0.3-1.8,0.2-2.6c0-0.1-0.2-0.2-0.1-0.3
		c-0.1-0.3-0.2-0.5-0.4-0.8c-0.1-0.2-0.3-0.5-0.4-0.8c-0.3-0.2-0.6-0.4-0.8-0.8h-0.2c-0.3-0.3-0.8-0.6-1.2-0.8
		c-0.1-0.1-0.3-0.1-0.6-0.2c-0.3-0.1-0.7-0.2-1-0.3c-0.4,0-1.1-0.1-1.6,0c-0.2,0-0.6,0.1-0.7,0.2C40.6,1.8,40.3,1.9,40,2
		c-0.2,0.2-0.6,0.2-0.8,0.4c-0.4,0-0.5,0.3-0.9,0.4c-0.5,0.4-1.1,0.6-1.5,1.1c-0.2,0-0.1,0.1-0.3,0.1c-0.2,0.4-0.4,0.7-0.8,1
		c-0.1,0.4-0.4,0.7-0.6,1.1c0,0-0.1,0-0.1,0c-0.1,0.2-0.1,0.3-0.1,0.5c-0.1,0.3-0.3,0.7-0.4,0.9c-0.1,0.2,0,0.4-0.1,0.5
		c0,0.1-0.1,0-0.1,0.1c0,0.1,0,0.2,0,0.4c0,0.1-0.1,0-0.1,0.1c0,0.2,0,0.4,0,0.6c0,0.1-0.1,0-0.1,0.1c-0.1,0.6,0,1.2,0,1.9
		c0,0.1,0.1,0,0.1,0.1V12c0,0.1,0.1,0,0.1,0.1v0.4c0.1,0,0.1,0.3,0.1,0.5c0.1,0.1,0.2,0.5,0.2,0.6c0.1,0.7,0.3,1.3,0.6,1.7v0.2
		c0.2,0,0,0.2,0.2,0.2c0,0.4,0.3,0.7,0.3,1.1c0.2,0.3,0.2,0.6,0.3,0.9c0.1,0.4,0.4,0.9,0.5,1.2c0.1,0.3,0.2,0.4,0.4,0.5
		c0-0.3,0.1-0.5,0.2-0.6c0.1-0.1,0-0.2,0.1-0.3c0.1-0.2,0.2-0.5,0.4-0.7c0.1-0.1,0.2-0.1,0.2-0.2c0-0.1,0-0.1,0-0.2
		c0.1-0.1,0.1-0.2,0.2-0.2c0.1-0.2,0.2-0.5,0.4-0.6v-0.2c0.3-0.3,0.5-0.6,0.8-0.8c0.3-0.3,0.5-0.6,0.8-0.8c0.4-0.1,0.5-0.6,0.9-0.7
		c0.4-0.4,0.9-0.9,1.4-1.1c0.3-0.4,0.7-0.6,1-0.8c0.7-0.5,1.3-1,1.9-1.6h0.2c0.1-0.2,0.3-0.3,0.4-0.5c0.1,0,0.2,0,0.2-0.1
		c0.1-0.1,0.3-0.3,0.4-0.5c0.1-0.2,0.4-0.4,0.4-0.5c0-0.1,0.1-0.1,0.2-0.2c0.1-0.2,0.3-0.5,0.4-0.7C47.6,8.3,47.6,8.1,47.7,8.1"/>
	<path class="st3" d="M43.5,3.9c0.1,0.2,0.1,0.6,0.1,1c-0.4,0.5-0.9,0.9-1.4,1.3c-0.5,0.4-1.1,0.7-1.5,1.2h-0.2
		c-0.3,0.4-0.8,0.6-1.1,1c-0.1,0.1-0.1,0.2-0.2,0.3c-0.1,0.1-0.2,0.2-0.3,0.3c0,0-0.1,0.1-0.1,0.2c-0.2,0.3-0.5,0.7-0.8,1.1
		c-0.2,0.4-0.4,0.8-0.6,1.2c0,0,0,0.1,0,0.1c0,0-0.1,0-0.1,0c-0.1,0.2-0.1,0.5-0.2,0.8c-0.1,0.4-0.3,0.8-0.3,1.2c0,0.2,0,0.4,0,0.6
		c0,0.1-0.1,0.1-0.1,0.2c-0.1,0.3,0,0.8,0,1.1c0,0.1,0.1,0.1,0.1,0.1c0,0.1,0,0.2,0,0.3c0,0.2,0.1,0.4,0.1,0.6
		c0,0.6-0.1,1.2-0.2,1.9c-0.1,0-0.1,0-0.2-0.1c-0.1-0.1-0.2-0.4-0.3-0.8c-0.1-0.4-0.4-0.9-0.5-1.5c0-0.1-0.1-0.3-0.2-0.4
		c0-0.1,0-0.1,0-0.2c0-0.1-0.1-0.2-0.2-0.4c0-0.1,0-0.1,0-0.2c0,0-0.1-0.1-0.1-0.1c-0.1-0.4-0.1-0.9-0.2-1.2c0-0.2-0.1-0.3-0.2-0.5
		c0-0.1,0-0.2,0-0.3c0-0.1-0.1-0.1-0.1-0.1c0-0.1,0-0.2,0-0.4c-0.2-0.8-0.3-2.2-0.2-3.3c0.1-1.1,0.5-2,0.8-2.9
		c0.3-0.2,0.4-0.7,0.7-1c0.2-0.3,0.5-0.4,0.7-0.8c0.5-0.1,0.5-0.7,1-0.8c0.3-0.3,0.6-0.6,1.1-0.8c0-0.1,0.2,0,0.2-0.2
		c0.1,0,0.2,0,0.2-0.1c0.8-0.2,1.5-0.6,2.5-0.4c0.1,0,0.5,0.1,0.6,0.2c0,0,0,0.1,0,0.1c0.2,0.1,0.2,0.2,0.4,0.4
		c0.3,0.3,0.4,0.4,0.6,0.9C43.4,3.8,43.5,3.8,43.5,3.9"/>
	<path class="st3" d="M39.7,52.4c0,0.2-0.2,0.1-0.4,0.1C39.3,52.3,39.5,52.5,39.7,52.4"/>
	<path class="st3" d="M33.9,53.5c-0.1,0.1-0.2,0.1-0.3,0C33.6,53.4,33.7,53.5,33.9,53.5"/>
	<path class="st3" d="M31.3,17.5c0.1,0.3,0.3,0.5,0.2,0.8c-0.5,0.2-0.5-0.2-0.8-0.4c-0.1-0.1-0.7-0.5-0.9-0.6
		c-0.1-0.1-0.1,0-0.3-0.1c0,0,0-0.1-0.1-0.1c-0.3-0.1-0.8,0-1.1,0c-0.1,0-0.1,0.1-0.2,0.1c-0.2,0.1-0.5,0-0.7,0.1
		c-0.1,0-0.1,0.1-0.1,0.1c-0.1,0-0.2,0-0.3,0c-0.4,0.1-1,0.3-1.6,0.3c-0.2,0-0.6-0.1-0.7-0.2c-0.1,0-0.1,0-0.3-0.1
		c-0.2-0.1-0.5-0.3-0.7-0.4c-0.1,0-0.1-0.2-0.2-0.3c-0.1-0.1-0.2-0.2-0.3-0.4c-0.3-0.6-0.2-1.9,0.1-2.5c0,0,0.1-0.1,0.1-0.2
		c0.2-0.3,0.5-0.7,0.9-1c0,0,0.2,0,0.2-0.1c0.1-0.1,0.1-0.1,0.1-0.1c0.4-0.3,0.9-0.4,1.6-0.5c0.1,0,0.1,0,0.1-0.1c0.4,0,0.8,0,1.1,0
		c0.1,0,0.4,0.1,0.6,0.1c0.2,0,0.4,0.1,0.6,0.2c0.2,0.1,0.4,0.3,0.6,0.4c0.1,0.2,0.4,0.4,0.6,0.6c0.4,0.4,0.7,1.4,0.9,2.1
		C31.1,15.9,31.1,16.7,31.3,17.5 M30.7,16.8c0-0.4-0.1-0.8-0.1-1.2c-0.1-0.2-0.2-0.4-0.2-0.7c-0.1-0.3-0.2-0.5-0.4-0.8
		c-0.1-0.2-0.3-0.6-0.4-0.8c-0.1-0.1-0.2-0.2-0.3-0.3c-0.2-0.2-0.3-0.2-0.4-0.4c-0.1-0.1-0.3-0.2-0.4-0.3c-0.6-0.1-1.1-0.3-1.8-0.3
		c-0.2,0.2-0.5,0.2-0.9,0.3c-0.1,0-0.3,0.2-0.3,0.2c-0.1,0.1-0.1,0.1-0.2,0.1c-0.1,0-0.1,0.1-0.2,0.1c-0.7,0.5-1.1,1.1-1.2,2
		c0.1,0,0.1,0.3,0.1,0.5c0.2,0.1,0.1,0.4,0.3,0.5c0.6,0.7,1.8,0.6,3.1,0.5c0.1,0,0-0.1,0.1-0.1C28.7,16.2,30,16.1,30.7,16.8"/>
	<path class="st3" d="M30.3,22c0.1,0.6,1.4,0.7,0.8,1.4c-0.7,0-1.2-0.4-1.8-0.5c-0.4,0-0.9,0.1-1.3,0.2c-0.1,0-0.3,0.1-0.4,0.1
		c-0.2,0.1-0.3,0.2-0.5,0.4c-0.1,0.1-0.2,0.1-0.3,0.1c-0.3,0.2-0.8,0.6-1.1,0.9c-0.5,0.5-0.9,1.3-1.3,1.9c-0.5,1-1.2,2.1-2.1,2.8
		c-0.2,0.1-0.3,0.3-0.4,0.4c-0.2,0.1-0.3,0.2-0.5,0.3c-0.2,0.1-0.4,0.1-0.6,0.2c-0.1,0.1-0.2,0.3-0.3,0.3c0,0-0.4-0.1-0.6-0.1
		c-0.2,0-0.3,0.1-0.5,0.2c-1,0.1-1.6-0.3-2.3-0.6c-0.3-0.1-0.8-0.6-0.9-0.9c0,0-0.1,0-0.1,0c0-0.1,0-0.1,0-0.2c0,0-0.1,0-0.1,0
		c0-0.1,0.1-0.3-0.1-0.4c-0.1-1-0.1-1.9,0-2.7c0.1-1,0.6-1.8,0.8-2.6c0.1,0.1,0-0.1,0.2-0.1c0-0.4,0.3-0.5,0.4-0.8
		c0.4-0.3,0.6-0.6,0.9-1c0.2-0.2,0.5-0.3,0.7-0.6c0.7-0.3,1.3-0.9,2.2-1.1c0.2-0.1,0.6,0,0.7-0.1c0.2,0,0.4,0,0.7,0
		c0.1,0,0.2,0.1,0.2,0.1c1.5,0.1,2.6-0.1,3.7,0.3c0.1,0,0.1,0.1,0.2,0.1c0.2,0.1,0.2,0.1,0.4,0.1c0.1,0.1,0.1,0,0.3,0.1
		c0,0,0,0.1,0,0.1c0.3,0.1,0.5,0.1,0.8,0.3c0.1,0,0.1,0.1,0.3,0.2c0.2,0.1,0.3,0.2,0.6,0.4C29.5,21.3,29.8,21.6,30.3,22 M29.5,22
		c-0.2-0.1-0.4-0.4-0.6-0.5c-0.1-0.1-0.3-0.1-0.4-0.2c-0.1,0-0.1-0.1-0.1-0.2c0,0-0.1,0-0.2,0c0,0-0.1-0.2-0.1-0.2
		c-0.1,0-0.2-0.1-0.4-0.1c-0.1-0.1-0.2-0.1-0.3-0.2c-0.2-0.1-0.6-0.3-0.8-0.4c-0.1-0.1-0.2,0-0.4-0.1c-0.1,0,0-0.1-0.1-0.1
		c-0.5-0.1-1.1-0.2-1.6-0.2c-1.1-0.1-2.3,0-3.4,0.2c-1.3,0.5-2.5,1.3-3.4,2.3c-0.4,1.3-1,2.6-0.8,4.5c0.1,0.1,0.2,0.3,0.2,0.5
		c0.2,0,0.1,0.2,0.2,0.4c0,0,0.1,0.1,0.1,0.1c0,0.1,0,0.1,0.1,0.2c0.3,0.4,0.6,0.6,0.9,1c0.2,0,0.4,0.1,0.5,0.2c0,0,0,0.1,0,0.1
		c0.7,0.2,1.5,0.1,2.1-0.1c0.1-0.2,0.3-0.2,0.4-0.3c0.2-0.2,0.6-0.6,0.8-0.8c0.1-0.2,0.3-0.4,0.3-0.6c0.1,0.1,0-0.1,0.2-0.1
		c0.2-0.6,0.6-0.9,0.8-1.5c0.2-0.1,0.3-0.3,0.3-0.5c0.3-0.2,0.4-0.6,0.7-0.8c0-0.2,0.2-0.2,0.2-0.4c0.5-0.3,0.7-0.8,1.3-1
		c0.1-0.3,0.6-0.4,0.8-0.5c0.3-0.2,0.9-0.3,1.4-0.4c0.1,0,0-0.1,0.1-0.1C28.9,22.2,29.1,22.1,29.5,22"/>
	<path class="st3" d="M30.5,36.4c0.1,0,0.1,0.1,0.1,0.1C30.5,36.5,30.5,36.5,30.5,36.4L30.5,36.4z"/>
	<path class="st3" d="M29.7,15.5c-0.2,0-0.5-0.1-0.7-0.2c0,0-0.1-0.2-0.1-0.2c0,0-0.1,0-0.2,0c0,0-0.1-0.2-0.1-0.2c0,0-0.1,0-0.1,0
		c-0.1-0.1-0.5-0.3-0.7-0.4c0,0-0.1,0-0.2,0c0,0,0-0.1,0-0.1c-0.7-0.2-1.2,0.2-1.9,0.3c-0.1,0-0.1,0.1-0.1,0.1
		c-0.3,0.1-0.5-0.1-0.8-0.1c-0.1-0.2-0.2-0.4-0.2-0.8c0.2-0.4,0.6-0.6,0.8-1c0.6-0.1,1.1-0.3,1.7-0.4C28.4,13,29.6,13.7,29.7,15.5"
		/>
	<path class="st3" d="M21.4,24.1c1.8,0.3,2.2-1.3,4-1.1c-0.1,0.3-0.4,0.3-0.6,0.4c-0.7,0.4-1,1.1-1.5,1.6c-0.3,0.5-0.7,1-1.1,1.4
		c-0.4,0.5-0.7,0.9-1.3,1.1c0,0.1-0.1,0.1-0.1,0.2c-0.4,0.1-0.9,0.4-1.6,0.3c-1.4-0.3-1.4-3.5-0.5-4.4c0.3-0.1,0.7-0.2,1.3-0.2
		c0.3,0,0.4,0.1,0.6,0.2c0,0,0.1,0,0.2,0c0,0,0.1,0.2,0.1,0.2c0.1,0,0.3,0,0.4,0.1C21.3,24,21.4,24.1,21.4,24.1"/>
	<path class="st3" d="M20.4,63.7c0.3-0.7-0.2-1.8-0.3-2.6h0.3c0.3,0.8,0.9,2.7-0.2,3.2C20.1,64,20.3,63.9,20.4,63.7"/>
	<path class="st3" d="M20.1,44.4c0,0.2-0.2,0.4-0.4,0.3C19.7,44.4,19.9,44.4,20.1,44.4"/>
	<path class="st3" d="M18.3,43.3h0.1c0,0.4-0.2,0.7-0.3,1c-0.1,0-0.1-0.1-0.2-0.2C18,43.8,18.2,43.6,18.3,43.3"/>
	<path class="st3" d="M17.8,61.9c0.1,1.7,0.8,4.2-0.1,5.5c-0.5-0.1-0.4,0.4-0.7,0.4c-0.2-0.2,0-0.7-0.1-1c0-0.2-0.2-0.1-0.1-0.3
		c1.2-1.1,0.4-3.7,0.5-5.4c0.1,0,0.1,0,0.1,0C17.6,61.3,17.6,61.7,17.8,61.9"/>
	<path class="st3" d="M16.5,54.8c0,0.2,0.1,0.6,0.1,1c0,0.1-0.1,0.1-0.1,0.1c0,0.2,0,0.5-0.1,0.7c0,0-0.1,0-0.1,0
		c-0.1,0.2-0.2,0.6-0.4,0.6c0.2-0.8,0.6-1.6,0.4-2.6c0-0.1-0.1-0.1-0.1-0.1c-0.1-0.2,0-0.3-0.1-0.5C16.1,54,16.1,54,16,53.7
		c0-0.2-0.2-0.5-0.1-0.8h0.1C16.3,53.4,16.4,54.1,16.5,54.8"/>
	<path class="st3" d="M16,41.2c0.1,0,0.1,0.1,0.2,0.2c0,0.7-0.6,1.2-0.4,1.9c-0.2,0.3-0.3,0.7-0.8,0.7c0-0.1,0-0.1-0.1-0.2
		c0-0.1-0.1-0.2,0-0.3c0,0,0.1,0,0.1,0c0,0,0.1-0.3,0.2-0.3c0.1-0.1,0.3,0,0.4-0.1C15.6,42.4,15.9,41.9,16,41.2"/>
	<path class="st3" d="M14.1,68.3c0,0.3,0,0.6-0.1,0.7c-0.2-0.1-0.2-0.4-0.3-0.5c0.1-1.4-0.5-2.5-0.5-3.8c0.3,0.1,0.2,0.5,0.4,0.7
		c0.1,0.9,0.2,1.8,0.5,2.5C14.1,68.1,14,68.3,14.1,68.3"/>
	<path class="st3" d="M14.1,70.5c0.2,0,0.1,0.2,0.1,0.3c-0.2,0.2-0.2,0.6-0.5,0.7C13.6,71,14,70.9,14.1,70.5"/>
	<path class="st3" d="M13.2,56.9c0.1,1.1,0,2.3-0.7,2.6c0-0.5,0.3-0.9,0.4-1.4c0.1-0.6-0.1-1.1-0.1-1.9v-0.1h0.1
		C13.1,56.3,13.2,56.6,13.2,56.9"/>
	<path class="st3" d="M12.3,42c0.2,0.2,0.1,0.5,0.1,0.8c0,0.7,0,1.5-0.2,2c-0.2,0-0.4,0.2-0.4,0.1C12.5,44.4,12.2,43,12.3,42"/>
	<path class="st3" d="M11.1,34.1c0,0.2,0.2,0.1,0.2,0.3c-0.6,0-0.9-0.1-1.3-0.4c-0.1,0-0.1-0.1-0.3-0.2c0,0-0.1,0-0.2,0
		c0,0,0-0.1,0-0.1c-0.1,0-0.3,0-0.4,0c-0.4-0.1-0.5-0.5-1-0.4c-0.7,0.1-1,0.7-1.6,1.1c-0.1,0.4-0.4,0.6-0.7,0.8
		c0,0.4-0.4,0.5-0.4,0.8c-0.1-0.1,0,0.1-0.2,0.1c0,0.2-0.1,0.4-0.3,0.5c0,0.2-0.1,0.4-0.2,0.7c0,0.1-0.1,0.1-0.1,0.2
		c0,0.1,0,0.1-0.1,0.3c0,0.1,0,0.1-0.1,0.3c0,0.1-0.1,0.1-0.1,0.1c0,0.1,0,0.2,0,0.2c0,0.1-0.1,0.3-0.1,0.6c0,0.1-0.1,0.1-0.1,0.1
		C4.1,40,4.4,41,3.9,41.6c-0.2-0.2-0.2-0.5-0.4-0.6c0-0.6-0.1-1.2-0.1-1.7c0-0.1,0.1-0.1,0.1-0.1c0-0.2,0-0.4,0-0.6
		c0-0.1,0.1-0.1,0.1-0.1c0-0.1,0-0.2,0-0.3c0-0.3,0.1-0.7,0.2-0.9C3.9,37.1,4,37,4,36.8c0-0.1,0-0.1,0.1-0.3
		c0.1-0.1,0.1-0.3,0.2-0.4c0.2-0.3,0.4-0.8,0.5-1.1c0.1,0.1,0-0.1,0.2-0.1c0-0.4,0.4-0.5,0.4-0.8c0.5-0.3,0.7-0.9,1.2-1.1
		c0.4-0.4,1.1-0.5,1.7-0.4c0.1,0,0.3,0,0.4,0.1c0,0,0,0.1,0,0.1c0.1,0,0.1,0,0.2,0.1c0.2,0.1,0.3,0.1,0.4,0.2
		C9.8,33.4,10.2,34.1,11.1,34.1"/>
	<path class="st3" d="M10.7,73.2c0.1,0.7,0.1,1.5-0.1,2.1c-0.2,0.7-0.4,1.3-0.9,1.6c0.5-1.1,0.8-2.3,0.9-3.7H10.7z"/>
	<path class="st3" d="M9.5,60.7c0,0.9,0,1.7-0.4,2.3C9,62.6,9.2,62.3,9.2,62c0-0.2,0-0.4,0-0.7c0-0.4,0.1-0.6,0.1-1
		c0-0.1-0.1-0.1-0.1-0.1c0-0.1,0-0.2,0-0.2c0-0.1-0.1-0.1-0.1-0.1c-0.1-0.5-0.1-1-0.2-1.5c0-0.1-0.1-0.1-0.1-0.1c0-0.1,0-0.2,0-0.3
		c0-0.1-0.1-0.1-0.1-0.4c0.2,0.1,0.1,0.4,0.2,0.6c0.2,0.7,0.5,1.5,0.5,2.3C9.4,60.6,9.5,60.6,9.5,60.7"/>
	<path class="st3" d="M9.4,44.1c0,0.4,0.1,0.9,0,1.1c-0.2-0.3-0.1-0.9-0.1-1.3C9.3,43.9,9.2,44.2,9.4,44.1"/>
	<path class="st3" d="M8.6,47.6c0-0.3,0.2-0.8,0.5-1C9.1,47,8.9,47.3,8.6,47.6"/>
	<path class="st3" d="M6.8,75.4c0.3,1.5,0.4,3.5,0,4.9c-0.1,0.4-0.2,0.8-0.4,1.1c-0.2,0.5-0.4,0.8-0.8,1.1c-0.3-0.1-0.1-0.8,0-1
		c0,0,0-0.1,0-0.1c0,0,0.1,0,0.1,0c0-0.1,0-0.3,0.1-0.4c0,0,0.1,0,0.1,0c0.1-0.4,0.3-0.7,0.4-1.2c0-0.1,0.1-0.2,0.1-0.4
		c0.1-0.2,0-0.4,0.1-0.7c0-0.1,0.1-0.1,0.1-0.2c0-0.2,0-0.4,0-0.6c0-0.1,0.1-0.1,0.1-0.2c0.1-0.7-0.1-1.5,0-2.3
		C6.7,75.4,6.7,75.4,6.8,75.4C6.8,75.3,6.8,75.3,6.8,75.4"/>
	<path class="st3" d="M6.7,46.3C6.8,47.1,7,48.2,6.8,49c0,0.2-0.1,0.4-0.2,0.4c0,0.1,0,0.2-0.2,0.2c0,0.4,0,0.7-0.1,0.9
		c-0.2,0-0.2,0.2-0.4,0.1c-0.1-0.4,0.2-0.7,0.4-0.9c0-0.2,0.1-0.3,0.2-0.3c-0.1-0.1,0.1-0.2,0.1-0.3c0.1-0.6-0.3-1.1-0.2-1.8
		c0.4-0.5,0-1.4,0-2c0.2-0.1,0,0.2,0.2,0.2v0.6C6.6,46.2,6.7,46.2,6.7,46.3"/>
	<path class="st3" d="M5.6,65.7c0.2,0.7-0.1,1.4-0.6,1.6c0-1,0.6-1.6,0.3-2.6c0-0.2,0.2,0,0.2-0.2c-0.2-1.1-0.4-2.1-0.5-3.3
		c0.1,0,0.1,0,0.1,0C5.2,62.8,6,64.1,5.6,65.7"/>
	<path class="st3" d="M4,49.1c0.2,0.6,0.1,1.9-0.1,2.6c-0.1,0.4-0.3,1.2-0.8,1.2c0-0.1,0.1-0.4,0.2-0.5c0-0.3,0.1-0.6,0.3-0.8
		c-0.1-0.4,0.2-0.7,0.2-1.1C3.9,49.9,3.8,49.4,4,49.1"/>
</g>
</svg>
